<svg width="300" height="300" viewBox="0 0 287 455" fill="none" xmlns="http://www.w3.org/2000/svg">
<g filter="url(#filter0_d_6873_1563)">
<path fill-rule="evenodd" clip-rule="evenodd" d="M251.262 130.847C250.998 126.309 247.594 120.788 243.657 118.515L103.328 37.4961C99.3914 35.2233 96.4136 37.0596 96.6768 41.5976L110.649 282.449C110.912 286.987 114.316 292.508 118.253 294.781L258.582 375.8C262.519 378.073 265.497 376.237 265.233 371.699L251.262 130.847ZM180.711 102.053V102.053C180.721 102.226 180.848 102.44 180.999 102.527L192.068 108.918C194.815 110.504 197.19 114.356 197.374 117.522C197.557 120.688 195.48 121.97 192.733 120.384L158.451 100.591C155.705 99.0053 153.329 95.1533 153.145 91.987C152.962 88.8207 155.039 87.5395 157.786 89.1253L168.855 95.516C169.006 95.6029 169.117 95.5268 169.106 95.3533V95.3533C168.892 91.6596 171.316 90.1648 174.521 92.0148C177.725 93.8648 180.496 98.3592 180.711 102.053Z" fill="black"/>
<path d="M211.361 123.463L210.847 123.166L210.815 122.604C210.275 122.253 209.838 121.828 209.505 121.33C209.174 120.832 208.993 120.332 208.961 119.829L209.756 120.288C209.791 120.556 209.897 120.823 210.074 121.09C210.254 121.356 210.485 121.588 210.767 121.787L210.653 119.815L210.313 119.523C209.886 119.157 209.553 118.768 209.314 118.357C209.078 117.945 208.947 117.528 208.923 117.107C208.894 116.609 209.014 116.287 209.284 116.142C209.555 115.995 209.943 116.041 210.448 116.279L210.413 115.682L210.927 115.979L210.962 116.576C211.45 116.905 211.85 117.313 212.164 117.8C212.477 118.288 212.654 118.776 212.694 119.264L211.911 118.812C211.889 118.568 211.796 118.318 211.631 118.061C211.467 117.802 211.259 117.583 211.01 117.406L211.118 119.269L211.472 119.561C211.95 119.965 212.309 120.372 212.55 120.781C212.794 121.192 212.929 121.621 212.955 122.068C212.985 122.595 212.859 122.932 212.575 123.077C212.291 123.219 211.875 123.159 211.328 122.896L211.361 123.463ZM212.162 121.706C212.147 121.458 212.06 121.214 211.898 120.973C211.739 120.734 211.498 120.484 211.173 120.225L211.282 122.092C211.578 122.244 211.803 122.286 211.956 122.218C212.109 122.151 212.178 121.98 212.162 121.706ZM209.721 117.493C209.734 117.715 209.814 117.941 209.963 118.172C210.112 118.403 210.323 118.628 210.597 118.847L210.496 117.105C210.257 116.981 210.064 116.956 209.919 117.031C209.773 117.103 209.707 117.257 209.721 117.493Z" fill="white"/>
<path d="M219.964 121.08L220.86 136.535L219.237 135.598L218.454 122.105L218.375 122.06L215.248 122.675L215.137 120.774L218.34 120.143L219.964 121.08ZM229.101 141.497C228.115 140.928 227.257 140.133 226.527 139.114C225.797 138.089 225.214 136.88 224.779 135.486C224.344 134.087 224.077 132.548 223.98 130.868C223.883 129.197 223.983 127.877 224.281 126.906C224.583 125.933 225.063 125.335 225.721 125.112C226.383 124.886 227.202 125.056 228.18 125.62C229.157 126.184 230.011 126.981 230.742 128.011C231.476 129.038 232.061 130.251 232.497 131.65C232.936 133.046 233.204 134.579 233.301 136.249C233.399 137.93 233.299 139.258 233.001 140.233C232.703 141.204 232.225 141.801 231.567 142.024C230.909 142.242 230.087 142.067 229.101 141.497ZM229.005 139.837C229.982 140.401 230.71 140.296 231.188 139.522C231.666 138.748 231.847 137.355 231.73 135.342C231.653 134.004 231.462 132.793 231.159 131.709C230.86 130.627 230.465 129.706 229.974 128.946C229.487 128.188 228.92 127.623 228.274 127.25C227.306 126.691 226.58 126.804 226.099 127.591C225.617 128.373 225.434 129.767 225.551 131.775C225.628 133.113 225.816 134.32 226.115 135.397C226.414 136.474 226.806 137.389 227.293 138.141C227.784 138.896 228.354 139.461 229.005 139.837ZM240.622 148.149C239.636 147.579 238.778 146.785 238.048 145.766C237.318 144.741 236.735 143.532 236.3 142.138C235.865 140.739 235.598 139.2 235.501 137.519C235.404 135.849 235.505 134.529 235.803 133.558C236.105 132.585 236.584 131.987 237.242 131.764C237.904 131.538 238.724 131.707 239.701 132.272C240.679 132.836 241.533 133.633 242.263 134.663C242.998 135.689 243.583 136.902 244.018 138.301C244.457 139.698 244.726 141.231 244.823 142.901C244.92 144.582 244.82 145.909 244.522 146.885C244.224 147.856 243.746 148.453 243.089 148.676C242.431 148.894 241.609 148.718 240.622 148.149ZM240.526 146.489C241.503 147.053 242.231 146.948 242.709 146.174C243.188 145.4 243.368 144.007 243.252 141.994C243.174 140.656 242.983 139.445 242.68 138.36C242.381 137.278 241.986 136.358 241.495 135.597C241.008 134.84 240.442 134.275 239.796 133.902C238.827 133.342 238.102 133.456 237.62 134.243C237.138 135.025 236.955 136.419 237.072 138.426C237.15 139.765 237.338 140.972 237.636 142.049C237.935 143.126 238.328 144.04 238.814 144.793C239.305 145.548 239.876 146.113 240.526 146.489Z" fill="white"/>
<g clip-path="url(#clip0_6873_1563)">
<path d="M224.668 308.263C182.416 307.009 154.17 271.34 136.127 249.164C135.01 247.778 133.241 247.671 134.945 250.679C141.189 262.087 161.247 292.474 185.954 306.739C210.679 321.014 224.486 313.955 226.168 312.304C227.84 310.669 226.463 308.44 224.667 308.262L224.668 308.263ZM236.471 307.536C235.197 305.1 229.224 301.335 225.508 299.702C221.785 298.05 216.305 297.442 216.887 299.312C217.172 300.052 217.67 300.082 220.233 301.303C222.801 302.498 229.982 305.626 231.623 308.771C233.272 311.936 230.078 320.635 229.482 321.991C228.909 323.361 229.868 324.353 231.068 323.914C232.251 323.464 234.339 321.738 235.61 318.323C236.868 314.879 237.44 309.39 236.471 307.536Z" fill="#FF9900"/>
<path fill-rule="evenodd" clip-rule="evenodd" d="M192.489 242.467C192.854 248.749 193.295 254.067 190.865 258.056C188.904 261.308 185.545 262.065 181.61 259.793C176.239 256.692 172.837 250.169 172.433 243.206C171.636 229.462 182.174 233.136 192.287 238.974L192.489 242.467ZM208.875 289.914C208.006 290.332 206.672 289.628 205.592 288.391C200.692 281.266 199.745 278.725 196.942 273.007C189.793 277.604 184.519 277.167 174.565 271.42C162.8 264.627 153.146 250.965 152.174 234.205C151.415 221.12 157.056 215.762 165.558 216.462C172.928 216.991 183.493 222.433 191.537 226.047L191.416 223.961C191.193 220.128 191.186 215.739 189.046 211.304C187.162 207.345 183.825 204.235 180.953 202.576C175.621 199.498 171.043 199.901 170.261 205.763C170.109 207.078 169.268 207.973 168.012 207.314L154.34 197.799C153.182 196.845 151.861 195.052 152.059 193.215C154.087 176.062 168.609 178.922 181.908 186.6C188.715 190.53 197.729 197.751 203.445 206.794C210.677 218.049 210.594 227.449 211.211 238.086L212.669 263.214C213.107 270.766 216.014 275.645 218.809 281.204C219.798 283.178 220.096 285.038 219.018 285.467C216.324 286.564 211.544 288.737 208.917 289.982L208.875 289.914" fill="white"/>
<path d="M224.668 308.263C182.416 307.009 154.17 271.34 136.127 249.164C135.01 247.778 133.241 247.671 134.945 250.679C141.189 262.087 161.247 292.474 185.954 306.739C210.679 321.014 224.486 313.955 226.168 312.304C227.84 310.669 226.463 308.44 224.667 308.262L224.668 308.263ZM236.471 307.536C235.197 305.1 229.224 301.335 225.508 299.702C221.785 298.05 216.305 297.442 216.887 299.312C217.172 300.052 217.67 300.082 220.233 301.303C222.801 302.498 229.982 305.626 231.623 308.771C233.272 311.936 230.078 320.635 229.482 321.991C228.909 323.361 229.868 324.353 231.068 323.914C232.251 323.464 234.339 321.738 235.61 318.323C236.868 314.879 237.44 309.39 236.471 307.536Z" fill="#FF9900"/>
<path fill-rule="evenodd" clip-rule="evenodd" d="M192.489 242.467C192.854 248.749 193.295 254.067 190.865 258.056C188.904 261.308 185.545 262.065 181.61 259.793C176.239 256.692 172.837 250.169 172.433 243.206C171.636 229.462 182.174 233.136 192.287 238.974L192.489 242.467ZM208.875 289.914C208.006 290.332 206.672 289.628 205.592 288.391C200.692 281.266 199.745 278.725 196.942 273.007C189.793 277.604 184.519 277.167 174.565 271.42C162.8 264.627 153.146 250.965 152.174 234.205C151.415 221.12 157.056 215.762 165.558 216.462C172.928 216.991 183.493 222.433 191.537 226.047L191.416 223.961C191.193 220.128 191.186 215.739 189.046 211.304C187.162 207.345 183.825 204.235 180.953 202.576C175.621 199.498 171.043 199.901 170.261 205.763C170.109 207.078 169.268 207.973 168.012 207.314L154.34 197.799C153.182 196.845 151.861 195.052 152.059 193.215C154.087 176.062 168.609 178.922 181.908 186.6C188.715 190.53 197.729 197.751 203.445 206.794C210.677 218.049 210.594 227.449 211.211 238.086L212.669 263.214C213.107 270.766 216.014 275.645 218.809 281.204C219.798 283.178 220.096 285.038 219.018 285.467C216.324 286.564 211.544 288.737 208.917 289.982L208.875 289.914" fill="white"/>
</g>
<g clip-path="url(#clip1_6873_1563)">
<path fill-rule="evenodd" clip-rule="evenodd" d="M166.614 144.247C162.702 145.367 156.846 143.789 151.711 140.825C144.511 136.668 137.852 129.856 132.652 121.919C132.243 121.295 132.557 120.947 133.037 121.527C138.535 128.132 145.202 134.045 151.961 137.947C156.52 140.579 161.471 142.387 165.951 142.793C166.628 142.854 167.261 144.057 166.614 144.247Z" fill="#FF9900"/>
<path fill-rule="evenodd" clip-rule="evenodd" d="M168.195 142.978C167.626 141.901 164.697 140.605 163.382 140.021C162.982 139.845 162.896 139.404 163.243 139.323C165.484 138.772 169.375 141.551 169.862 142.45C170.349 143.353 170.041 147.485 167.955 148.337C167.634 148.468 167.301 148.107 167.427 147.761C167.84 146.619 168.767 144.06 168.195 142.978Z" fill="#FF9900"/>
<path fill-rule="evenodd" clip-rule="evenodd" d="M162.655 125.965L162.547 124.11C162.531 123.83 162.705 123.748 162.927 123.876L170.13 128.035C170.361 128.168 170.557 128.467 170.573 128.744L170.666 130.332C170.678 130.597 170.504 130.833 170.191 131.185L166.815 135.173C168.199 135.934 169.677 137.018 170.982 138.561C171.276 138.909 171.369 139.224 171.406 139.503L171.521 141.482C171.536 141.752 171.296 141.919 171.015 141.599C168.721 138.98 165.77 137.135 163.406 137.219C163.166 137.231 162.886 136.768 162.87 136.497L162.761 134.618C162.743 134.316 162.716 133.803 162.952 133.495L166.861 128.844L163.098 126.671C162.867 126.537 162.671 126.242 162.655 125.965Z" fill="white"/>
<path fill-rule="evenodd" clip-rule="evenodd" d="M137.05 122.368L134.859 121.102C134.648 120.964 134.471 120.686 134.442 120.446L133.69 107.482C133.675 107.222 133.851 107.125 134.086 107.26L136.129 108.44C136.342 108.573 136.523 108.859 136.552 109.103L136.65 110.798L136.69 110.821C137.128 109.491 138.086 109.305 139.436 110.085C140.807 110.876 141.708 112.135 142.42 114.129C142.855 112.797 144.016 112.729 145.307 113.474C146.226 114.005 147.256 115.022 147.926 116.357C148.683 117.848 148.633 119.35 148.714 120.74L149.185 128.92C149.2 129.18 149.024 129.281 148.79 129.146L146.602 127.882C146.382 127.738 146.194 127.434 146.18 127.185L145.781 120.314C145.75 119.767 145.714 118.427 145.579 117.848C145.365 116.883 144.861 116.355 144.226 115.989C143.696 115.683 143.165 115.771 142.977 116.295C142.79 116.819 142.875 117.925 142.918 118.661L143.317 125.532C143.332 125.792 143.156 125.893 142.922 125.758L140.733 124.494C140.51 124.348 140.326 124.046 140.312 123.797L139.91 116.924C139.826 115.478 139.909 113.469 138.353 112.57C136.778 111.661 136.96 113.772 137.047 115.271L137.445 122.142C137.46 122.402 137.284 122.503 137.05 122.368Z" fill="white"/>
<path fill-rule="evenodd" clip-rule="evenodd" d="M176.734 131.618C179.986 133.495 181.932 137.73 182.17 141.823C182.399 145.778 180.636 147.792 177.57 146.021C174.377 144.178 172.452 139.955 172.219 135.944C171.985 131.908 173.563 129.787 176.734 131.618ZM176.906 134.275C175.291 133.343 175.337 135.821 175.428 137.402C175.52 138.987 175.695 142.357 177.415 143.35C179.113 144.33 179.035 141.648 178.938 139.985C178.875 138.891 178.759 137.56 178.412 136.357C178.113 135.312 177.603 134.677 176.906 134.275Z" fill="white"/>
<path fill-rule="evenodd" clip-rule="evenodd" d="M186.782 151.079L184.6 149.819C184.38 149.675 184.193 149.371 184.179 149.123L183.423 136.152C183.428 135.925 183.599 135.845 183.821 135.973L185.852 137.146C186.044 137.267 186.21 137.507 186.265 137.734L186.38 139.717L186.42 139.74C186.93 138.321 187.741 137.972 189.254 138.846C190.237 139.414 191.22 140.376 191.901 141.851C192.535 143.219 192.636 144.964 192.709 146.218L193.182 154.379C193.17 154.592 192.999 154.668 192.783 154.544L190.586 153.275C190.384 153.142 190.208 152.875 190.174 152.642L189.765 145.6C189.683 144.183 189.704 142.19 188.191 141.316C187.658 141.008 187.192 141.137 186.985 141.622C186.722 142.236 186.728 143.002 186.779 143.876L187.184 150.858C187.196 151.115 187.017 151.214 186.782 151.079Z" fill="white"/>
<path fill-rule="evenodd" clip-rule="evenodd" d="M194.518 154.549C194.48 153.895 194.933 153.649 195.528 153.992C196.123 154.336 196.637 155.141 196.675 155.795C196.713 156.445 196.26 156.699 195.665 156.355C195.07 156.012 194.555 155.199 194.518 154.549Z" fill="white"/>
<path fill-rule="evenodd" clip-rule="evenodd" d="M217.795 168.987C217.566 168.845 217.376 168.539 217.361 168.284L216.609 155.319C216.608 155.095 216.767 155.012 216.976 155.118L217.78 155.583C218.002 155.711 218.191 155.999 218.224 156.251L218.334 158.141C218.82 156.973 219.818 156.416 221.165 157.194L221.248 157.242L221.328 157.288C222.759 158.114 223.874 159.932 224.365 161.922C224.871 160.528 225.939 159.95 227.443 160.819L227.52 160.863L227.61 160.915C228.673 161.529 229.742 162.908 230.342 164.415C230.92 165.858 230.99 167.375 231.065 168.658L231.514 176.455C231.532 176.705 231.368 176.806 231.15 176.698L230.188 176.143C229.978 176.011 229.799 175.743 229.758 175.503L229.302 167.64C229.248 166.713 229.231 165.752 228.855 164.717C228.472 163.662 227.803 162.753 227.116 162.319C226.355 161.921 225.689 162.158 225.283 162.762C224.756 163.539 224.836 164.561 224.912 165.868L225.323 172.949C225.308 173.146 225.154 173.219 224.955 173.121L223.999 172.57C223.771 172.427 223.577 172.12 223.562 171.864L223.074 163.543C223.029 162.779 222.937 161.857 222.592 160.995C222.192 160.009 221.528 159.13 220.86 158.707C220.172 158.355 219.511 158.56 219.139 159.029C218.658 159.623 218.621 160.68 218.687 161.828L219.121 169.3C219.135 169.548 218.971 169.649 218.754 169.541L217.795 168.987Z" fill="white"/>
<path fill-rule="evenodd" clip-rule="evenodd" d="M211.209 165.446C208.099 163.65 206.493 159.19 206.281 155.534C206.058 151.689 207.502 149.305 210.633 151.113L210.713 151.159L210.8 151.209C213.845 152.967 215.567 157.389 215.779 161.045C216.004 164.918 214.522 167.359 211.372 165.54L211.292 165.494L211.209 165.446ZM211.334 163.804C212.355 164.356 213.12 164.09 213.527 163.148C213.892 162.301 213.902 161.094 213.833 159.894C213.757 158.586 213.554 157.151 212.956 155.723C212.422 154.471 211.566 153.375 210.695 152.838C209.729 152.318 208.907 152.575 208.54 153.49C208.207 154.273 208.165 155.543 208.229 156.658C208.302 157.913 208.528 159.444 209.041 160.795C209.539 162.081 210.419 163.239 211.334 163.804Z" fill="white"/>
<path fill-rule="evenodd" clip-rule="evenodd" d="M201.385 158.006C202.778 158.763 203.437 157.896 203.642 156.401C203.691 156.227 203.821 156.147 204.024 156.265L204.946 156.793C205.165 156.93 205.376 157.238 205.372 157.461C205.111 160.062 203.735 161.132 201.614 159.907L201.528 159.857L201.448 159.811C198.359 158.028 196.82 153.685 196.61 150.058C196.401 146.458 197.537 143.553 200.626 145.336L200.709 145.384L200.792 145.432C202.937 146.671 204.577 149.458 205.075 152.496C205.087 152.709 204.925 152.794 204.723 152.702L203.758 152.131C203.552 151.981 203.408 151.706 203.364 151.464C203.041 149.742 202.176 148.02 200.854 147.209C198.759 146.075 198.334 148.707 198.467 150.999C198.595 153.205 199.281 156.716 201.385 158.006Z" fill="white"/>
<path fill-rule="evenodd" clip-rule="evenodd" d="M157.226 128.029C157.283 129.013 157.352 129.846 156.971 130.471C156.664 130.981 156.135 131.098 155.521 130.743C154.68 130.258 154.144 129.234 154.081 128.143C153.956 125.99 155.607 126.566 157.194 127.482L157.226 128.029ZM159.793 135.462C159.657 135.528 159.448 135.418 159.279 135.224C158.511 134.107 158.359 133.708 157.923 132.814C156.803 133.534 155.974 133.464 154.418 132.565C152.571 131.499 151.062 129.361 150.91 126.735C150.791 124.685 151.672 123.844 153.007 123.955C154.161 124.038 155.816 124.891 157.077 125.457L157.058 125.13C157.023 124.529 157.022 123.842 156.683 123.145C156.391 122.527 155.868 122.04 155.415 121.778C154.58 121.296 153.866 121.361 153.743 122.279C153.72 122.485 153.588 122.625 153.388 122.52L151.249 121.031C151.068 120.882 150.858 120.599 150.892 120.313C151.206 117.624 153.485 118.074 155.568 119.277C156.635 119.893 158.047 121.024 158.942 122.441C160.075 124.204 160.062 125.676 160.159 127.343L160.387 131.279C160.456 132.463 160.911 133.227 161.349 134.098C161.501 134.405 161.548 134.697 161.379 134.764C160.957 134.936 160.208 135.276 159.796 135.471L159.793 135.462Z" fill="white"/>
<path fill-rule="evenodd" clip-rule="evenodd" d="M128.497 111.443C128.554 112.427 128.623 113.26 128.243 113.885C127.936 114.394 127.409 114.513 126.793 114.157C125.951 113.671 125.418 112.649 125.355 111.559C125.23 109.405 126.881 109.981 128.465 110.896L128.497 111.443ZM131.064 118.876C130.928 118.941 130.719 118.831 130.55 118.637C129.782 117.521 129.634 117.123 129.195 116.227C128.075 116.947 127.249 116.879 125.689 115.979C123.846 114.914 122.334 112.774 122.181 110.148C122.062 108.098 122.946 107.259 124.278 107.369C125.433 107.452 127.088 108.304 128.348 108.87L128.329 108.543C128.294 107.943 128.293 107.256 127.958 106.561C127.663 105.94 127.14 105.453 126.69 105.193C125.855 104.711 125.137 104.774 125.015 105.693C124.991 105.899 124.859 106.039 124.663 105.936L122.521 104.445C122.339 104.295 122.132 104.015 122.163 103.727C122.481 101.039 124.756 101.488 126.84 102.691C127.906 103.306 129.318 104.437 130.214 105.854C131.347 107.617 131.334 109.09 131.43 110.756L131.659 114.693C131.727 115.876 132.183 116.641 132.621 117.511C132.776 117.821 132.822 118.112 132.653 118.179C132.231 118.351 131.483 118.692 131.071 118.887L131.064 118.876Z" fill="white"/>
</g>
<path d="M177.918 168.29C177.258 167.909 176.675 167.476 176.167 166.991C175.66 166.511 175.227 166.004 174.867 165.468C174.507 164.933 174.22 164.4 174.007 163.869L174.886 163.703C175.041 164.064 175.242 164.447 175.489 164.851C175.74 165.258 176.058 165.659 176.442 166.054C176.83 166.452 177.3 166.81 177.85 167.127C178.707 167.622 179.384 167.774 179.881 167.583C180.381 167.395 180.602 166.78 180.541 165.739L180.395 163.225L180.295 163.167C180.184 163.431 180.017 163.662 179.793 163.86C179.568 164.054 179.265 164.148 178.883 164.143C178.505 164.14 178.027 163.971 177.447 163.636C176.674 163.19 175.974 162.573 175.348 161.785C174.725 161 174.218 160.099 173.826 159.081C173.438 158.062 173.211 156.983 173.145 155.844C173.08 154.716 173.188 153.819 173.47 153.153C173.757 152.49 174.186 152.092 174.759 151.96C175.332 151.827 176.018 151.991 176.816 152.452C177.409 152.794 177.907 153.199 178.312 153.667C178.717 154.13 179.047 154.606 179.302 155.095C179.562 155.587 179.769 156.039 179.923 156.451L180.037 156.516L179.913 154.387L181.01 155.021L181.674 166.47C181.729 167.415 181.599 168.091 181.286 168.5C180.973 168.909 180.524 169.085 179.94 169.029C179.357 168.978 178.682 168.731 177.918 168.29ZM177.51 162.529C178.132 162.888 178.654 163.022 179.075 162.933C179.496 162.839 179.805 162.536 180.003 162.023C180.2 161.509 180.273 160.805 180.221 159.909C180.171 159.037 180.01 158.198 179.74 157.391C179.47 156.58 179.103 155.853 178.639 155.211C178.179 154.566 177.632 154.061 176.998 153.694C176.351 153.321 175.816 153.206 175.394 153.351C174.972 153.496 174.668 153.845 174.48 154.397C174.293 154.944 174.223 155.636 174.272 156.474C174.321 157.326 174.481 158.146 174.75 158.933C175.018 159.716 175.386 160.42 175.853 161.045C176.319 161.665 176.872 162.16 177.51 162.529ZM183.664 167.338L183.016 156.179L184.144 156.83L184.792 167.989L183.664 167.338ZM183.478 154.592C183.247 154.459 183.045 154.255 182.87 153.981C182.696 153.703 182.601 153.435 182.586 153.178C182.571 152.922 182.641 152.751 182.794 152.666C182.947 152.577 183.139 152.599 183.371 152.732C183.602 152.866 183.804 153.072 183.979 153.35C184.153 153.624 184.248 153.889 184.263 154.146C184.278 154.403 184.208 154.576 184.055 154.665C183.902 154.75 183.71 154.726 183.478 154.592ZM190.118 160.279L190.183 161.405L185.425 158.658L185.36 157.532L190.118 160.279ZM187.494 169.55L186.752 156.756C186.717 156.156 186.808 155.719 187.023 155.445C187.243 155.174 187.542 155.045 187.921 155.057C188.299 155.07 188.707 155.202 189.144 155.455C189.438 155.624 189.683 155.794 189.88 155.964C190.08 156.131 190.239 156.274 190.355 156.393L190.093 157.337C190.008 157.259 189.903 157.166 189.779 157.057C189.655 156.948 189.5 156.84 189.315 156.733C188.828 156.452 188.461 156.392 188.215 156.554C187.968 156.716 187.862 157.09 187.896 157.676L188.616 170.197L187.494 169.55ZM195.194 163.21L195.259 164.336L190.639 161.669L190.574 160.542L195.194 163.21ZM191.862 158.702L192.99 159.354L193.624 170.273C193.651 170.738 193.741 171.143 193.895 171.49C194.049 171.831 194.241 172.122 194.47 172.362C194.699 172.597 194.939 172.788 195.191 172.933C195.338 173.018 195.464 173.081 195.568 173.122C195.671 173.159 195.762 173.188 195.841 173.21L196.148 174.518C196.042 174.503 195.91 174.469 195.752 174.416C195.595 174.367 195.399 174.275 195.164 174.139C194.752 173.901 194.349 173.568 193.954 173.139C193.564 172.712 193.235 172.223 192.968 171.671C192.7 171.118 192.549 170.537 192.513 169.927L191.862 158.702ZM205.223 180.01C204.357 179.51 203.588 178.825 202.917 177.955C202.249 177.088 201.714 176.119 201.311 175.048C200.907 173.977 200.674 172.887 200.609 171.778C200.544 170.659 200.665 169.767 200.972 169.101C201.282 168.438 201.743 168.044 202.353 167.919C202.962 167.789 203.69 167.967 204.534 168.455C205.181 168.828 205.776 169.312 206.318 169.906C206.859 170.495 207.316 171.149 207.686 171.869C208.061 172.586 208.312 173.316 208.441 174.06L207.306 173.405C207.152 172.707 206.837 172.006 206.362 171.301C205.89 170.593 205.31 170.04 204.621 169.643C204.004 169.286 203.469 169.164 203.016 169.278C202.564 169.386 202.223 169.707 201.994 170.239C201.769 170.769 201.682 171.485 201.735 172.386C201.787 173.291 201.964 174.168 202.265 175.016C202.566 175.859 202.963 176.613 203.456 177.277C203.953 177.943 204.519 178.459 205.154 178.826C205.582 179.073 205.968 179.207 206.31 179.226C206.656 179.244 206.939 179.149 207.159 178.944C207.382 178.741 207.522 178.426 207.579 178L208.713 178.655C208.668 179.279 208.495 179.76 208.194 180.096C207.897 180.43 207.494 180.596 206.986 180.593C206.483 180.592 205.895 180.398 205.223 180.01ZM213.049 184.549C212.465 184.212 211.924 183.773 211.425 183.233C210.927 182.687 210.52 182.083 210.205 181.419C209.89 180.75 209.712 180.058 209.671 179.341C209.639 178.789 209.702 178.376 209.861 178.102C210.019 177.829 210.258 177.667 210.576 177.616C210.894 177.566 211.275 177.601 211.721 177.723C212.166 177.844 212.66 178.024 213.202 178.262C213.739 178.497 214.193 178.694 214.564 178.852C214.939 179.012 215.221 179.086 215.411 179.074C215.601 179.062 215.688 178.916 215.672 178.635L215.657 178.373C215.613 177.613 215.381 176.901 214.96 176.237C214.544 175.571 213.968 175.025 213.233 174.601C212.536 174.198 211.977 174.046 211.556 174.145C211.139 174.246 210.857 174.486 210.708 174.863L209.618 173.805C209.801 173.321 210.075 173.009 210.44 172.869C210.806 172.724 211.223 172.71 211.693 172.827C212.162 172.938 212.643 173.136 213.134 173.42C213.504 173.634 213.892 173.911 214.297 174.253C214.707 174.597 215.092 175.007 215.453 175.482C215.813 175.952 216.114 176.494 216.357 177.106C216.599 177.715 216.742 178.391 216.785 179.137L217.225 186.715L216.103 186.067L216.001 184.302L215.931 184.262C215.816 184.513 215.635 184.718 215.388 184.875C215.142 185.032 214.825 185.095 214.437 185.063C214.049 185.031 213.587 184.86 213.049 184.549ZM213.131 183.452C213.728 183.797 214.236 183.943 214.655 183.89C215.074 183.837 215.387 183.627 215.593 183.259C215.803 182.888 215.89 182.398 215.855 181.788L215.761 180.175C215.683 180.219 215.547 180.22 215.354 180.178C215.164 180.139 214.943 180.075 214.691 179.985C214.442 179.893 214.192 179.793 213.942 179.687C213.692 179.58 213.468 179.483 213.268 179.395C212.726 179.157 212.267 179.009 211.89 178.951C211.513 178.892 211.23 178.949 211.041 179.121C210.851 179.288 210.77 179.596 210.796 180.047C210.835 180.725 211.076 181.372 211.517 181.987C211.959 182.598 212.497 183.086 213.131 183.452ZM219.233 187.874L218.586 176.715L219.676 177.345L219.775 179.059L219.857 179.106C220.018 178.656 220.328 178.397 220.787 178.33C221.25 178.26 221.786 178.401 222.395 178.753C222.488 178.806 222.591 178.868 222.704 178.938C222.818 179.009 222.913 179.068 222.989 179.117L223.065 180.432C223.014 180.393 222.925 180.327 222.798 180.235C222.671 180.143 222.534 180.055 222.387 179.97C221.882 179.679 221.44 179.543 221.059 179.562C220.683 179.578 220.393 179.736 220.192 180.037C219.99 180.337 219.905 180.763 219.937 181.315L220.355 188.522L219.233 187.874ZM227.787 193.037C226.993 192.579 226.283 191.935 225.659 191.106C225.034 190.278 224.528 189.333 224.142 188.272C223.76 187.213 223.535 186.107 223.468 184.955C223.402 183.807 223.509 182.898 223.791 182.227C224.077 181.554 224.507 181.152 225.08 181.019C225.652 180.882 226.338 181.043 227.136 181.504C227.724 181.844 228.221 182.247 228.626 182.715C229.03 183.178 229.36 183.654 229.616 184.144C229.872 184.633 230.074 185.082 230.224 185.492L230.325 185.55L229.986 179.702L231.114 180.353L231.977 195.232L230.88 194.599L230.76 192.528L230.628 192.452C230.517 192.715 230.353 192.957 230.134 193.178C229.915 193.393 229.615 193.508 229.234 193.522C228.857 193.538 228.375 193.377 227.787 193.037ZM227.85 191.929C228.476 192.291 228.999 192.403 229.417 192.265C229.835 192.123 230.14 191.772 230.331 191.213C230.525 190.651 230.597 189.92 230.544 189.019C230.493 188.128 230.332 187.274 230.061 186.458C229.79 185.637 229.423 184.905 228.959 184.263C228.495 183.616 227.948 183.11 227.318 182.747C226.671 182.373 226.136 182.261 225.715 182.411C225.297 182.558 224.992 182.909 224.801 183.463C224.614 184.02 224.545 184.727 224.595 185.584C224.645 186.451 224.806 187.3 225.078 188.131C225.349 188.962 225.718 189.71 226.183 190.377C226.652 191.041 227.208 191.558 227.85 191.929Z" fill="#E5B166"/>
<path d="M147.177 299.395L146.854 299.208C146.829 299.09 146.79 298.976 146.737 298.867C146.685 298.759 146.624 298.658 146.553 298.563C146.483 298.469 146.406 298.384 146.322 298.308C146.239 298.233 146.153 298.17 146.064 298.119C145.902 298.025 145.759 297.988 145.633 298.006C145.508 298.025 145.412 298.104 145.345 298.243C145.279 298.382 145.254 298.585 145.269 298.852C145.285 299.118 145.336 299.366 145.423 299.593C145.511 299.822 145.623 300.02 145.759 300.19C145.896 300.36 146.046 300.492 146.207 300.585C146.296 300.637 146.381 300.672 146.461 300.691C146.541 300.71 146.613 300.711 146.677 300.695C146.741 300.678 146.795 300.642 146.837 300.588C146.88 300.534 146.908 300.459 146.921 300.363L147.244 300.55C147.229 300.694 147.193 300.809 147.136 300.896C147.079 300.983 147.005 301.043 146.914 301.075C146.824 301.106 146.72 301.11 146.603 301.086C146.488 301.063 146.362 301.012 146.228 300.934C146 300.803 145.793 300.622 145.608 300.391C145.423 300.16 145.273 299.897 145.158 299.601C145.042 299.306 144.975 298.996 144.956 298.671C144.937 298.346 144.972 298.095 145.06 297.917C145.148 297.739 145.277 297.637 145.447 297.611C145.617 297.585 145.816 297.638 146.044 297.77C146.179 297.847 146.307 297.943 146.428 298.056C146.549 298.17 146.661 298.299 146.761 298.441C146.862 298.583 146.948 298.734 147.02 298.896C147.091 299.056 147.144 299.223 147.177 299.395ZM148.374 302.185C148.247 302.112 148.131 302.018 148.024 301.903C147.917 301.787 147.83 301.659 147.763 301.518C147.696 301.377 147.658 301.231 147.65 301.081C147.642 300.948 147.658 300.854 147.699 300.798C147.739 300.741 147.796 300.711 147.869 300.707C147.942 300.704 148.023 300.717 148.113 300.746C148.204 300.776 148.295 300.81 148.388 300.85C148.508 300.902 148.606 300.946 148.682 300.98C148.758 301.014 148.812 301.03 148.846 301.027C148.88 301.025 148.896 300.995 148.892 300.938L148.892 300.926C148.883 300.777 148.841 300.641 148.766 300.519C148.691 300.396 148.583 300.294 148.442 300.212C148.295 300.127 148.181 300.098 148.102 300.124C148.023 300.15 147.969 300.195 147.94 300.26L147.641 299.971C147.685 299.86 147.748 299.791 147.83 299.763C147.914 299.735 148.006 299.735 148.108 299.764C148.21 299.792 148.312 299.835 148.413 299.893C148.477 299.93 148.552 299.982 148.636 300.048C148.722 300.114 148.805 300.197 148.887 300.296C148.969 300.396 149.039 300.516 149.098 300.655C149.156 300.794 149.191 300.956 149.202 301.139L149.29 302.662L148.982 302.484L148.964 302.171L148.948 302.162C148.93 302.2 148.898 302.234 148.853 302.263C148.808 302.292 148.746 302.303 148.667 302.296C148.589 302.29 148.491 302.253 148.374 302.185ZM148.403 301.894C148.525 301.964 148.626 301.996 148.706 301.989C148.787 301.982 148.847 301.948 148.884 301.885C148.923 301.823 148.939 301.744 148.933 301.647L148.915 301.323C148.903 301.333 148.875 301.333 148.831 301.323C148.789 301.311 148.739 301.295 148.682 301.273C148.626 301.25 148.571 301.227 148.518 301.204C148.465 301.181 148.423 301.162 148.39 301.148C148.311 301.113 148.237 301.09 148.169 301.077C148.102 301.063 148.048 301.071 148.009 301.099C147.97 301.127 147.953 301.186 147.958 301.277C147.966 301.4 148.011 301.516 148.093 301.625C148.177 301.733 148.28 301.823 148.403 301.894ZM149.852 302.986L149.718 300.676L150.015 300.847L150.036 301.196L150.057 301.208C150.086 301.115 150.147 301.061 150.239 301.045C150.33 301.029 150.436 301.055 150.556 301.125C150.579 301.138 150.607 301.155 150.641 301.175C150.675 301.196 150.701 301.212 150.718 301.224L150.739 301.585C150.729 301.576 150.704 301.558 150.667 301.53C150.63 301.502 150.591 301.476 150.55 301.453C150.453 301.396 150.367 301.37 150.293 301.373C150.22 301.375 150.164 301.405 150.124 301.461C150.085 301.517 150.069 301.598 150.075 301.702L150.16 303.164L149.852 302.986ZM151.918 304.225C151.751 304.129 151.6 303.995 151.467 303.824C151.333 303.652 151.225 303.456 151.143 303.236C151.06 303.014 151.012 302.781 150.997 302.537C150.983 302.294 151.007 302.104 151.069 301.968C151.131 301.831 151.223 301.751 151.347 301.728C151.47 301.705 151.616 301.742 151.784 301.84C151.915 301.915 152.019 302 152.098 302.093C152.177 302.187 152.239 302.277 152.283 302.363C152.327 302.449 152.362 302.518 152.387 302.571L152.413 302.586L152.347 301.449L152.655 301.627L152.833 304.708L152.536 304.536L152.515 304.181L152.479 304.16C152.459 304.189 152.43 304.223 152.392 304.263C152.353 304.302 152.297 304.325 152.223 304.33C152.148 304.335 152.046 304.3 151.918 304.225ZM151.941 303.931C152.064 304.002 152.167 304.025 152.248 304C152.329 303.974 152.387 303.908 152.424 303.801C152.461 303.693 152.474 303.552 152.464 303.378C152.454 303.205 152.423 303.042 152.372 302.887C152.321 302.732 152.251 302.593 152.162 302.472C152.072 302.349 151.965 302.252 151.839 302.18C151.709 302.104 151.602 302.08 151.52 302.107C151.438 302.134 151.379 302.2 151.344 302.306C151.308 302.412 151.296 302.546 151.305 302.709C151.315 302.873 151.345 303.035 151.396 303.194C151.448 303.353 151.52 303.497 151.611 303.626C151.702 303.755 151.812 303.856 151.941 303.931ZM154.756 304.084L154.485 304.015C154.464 303.952 154.435 303.885 154.399 303.816C154.363 303.745 154.315 303.677 154.255 303.611C154.196 303.545 154.122 303.486 154.032 303.434C153.909 303.363 153.809 303.337 153.731 303.355C153.654 303.372 153.618 303.431 153.624 303.53C153.629 303.618 153.661 303.704 153.72 303.787C153.778 303.87 153.868 303.963 153.988 304.066L154.29 304.322C154.473 304.475 154.611 304.629 154.704 304.783C154.798 304.936 154.85 305.093 154.859 305.255C154.867 305.387 154.841 305.486 154.781 305.552C154.721 305.619 154.635 305.649 154.521 305.641C154.407 305.633 154.272 305.585 154.116 305.495C153.912 305.377 153.74 305.228 153.6 305.048C153.46 304.869 153.366 304.67 153.319 304.453L153.607 304.538C153.642 304.678 153.7 304.802 153.781 304.908C153.863 305.016 153.967 305.106 154.093 305.179C154.236 305.262 154.348 305.292 154.429 305.271C154.51 305.249 154.548 305.188 154.542 305.089C154.537 305.009 154.509 304.928 154.457 304.845C154.405 304.762 154.328 304.678 154.225 304.592L153.886 304.309C153.7 304.153 153.56 303.998 153.468 303.843C153.377 303.687 153.326 303.53 153.317 303.37C153.31 303.24 153.335 303.143 153.392 303.079C153.451 303.016 153.534 302.988 153.641 302.994C153.749 303.002 153.873 303.046 154.014 303.127C154.213 303.242 154.371 303.382 154.49 303.547C154.61 303.713 154.699 303.892 154.756 304.084ZM156.621 305.551L156.701 306.941L156.393 306.763L156.215 303.682L156.523 303.86L156.588 304.991L156.614 305.006C156.654 304.914 156.719 304.86 156.809 304.844C156.9 304.828 157.024 304.865 157.181 304.956C157.318 305.035 157.439 305.135 157.546 305.258C157.652 305.379 157.737 305.521 157.801 305.683C157.866 305.844 157.904 306.024 157.916 306.223L158.001 307.691L157.693 307.513L157.609 306.069C157.599 305.886 157.549 305.72 157.461 305.572C157.373 305.423 157.256 305.307 157.111 305.223C157.01 305.165 156.921 305.137 156.844 305.14C156.768 305.144 156.709 305.179 156.669 305.247C156.629 305.315 156.613 305.416 156.621 305.551ZM159.157 308.411C159.03 308.338 158.913 308.243 158.807 308.128C158.7 308.013 158.613 307.884 158.546 307.744C158.479 307.602 158.441 307.457 158.432 307.306C158.425 307.174 158.441 307.08 158.482 307.023C158.522 306.966 158.579 306.936 158.652 306.933C158.724 306.929 158.806 306.942 158.896 306.972C158.987 307.001 159.078 307.036 159.171 307.075C159.291 307.128 159.389 307.171 159.464 307.206C159.54 307.24 159.595 307.255 159.629 307.252C159.663 307.25 159.678 307.22 159.675 307.163L159.674 307.151C159.666 307.003 159.624 306.867 159.549 306.744C159.474 306.622 159.366 306.519 159.224 306.438C159.077 306.353 158.964 306.323 158.885 306.349C158.806 306.375 158.752 306.421 158.723 306.485L158.423 306.196C158.467 306.086 158.531 306.017 158.613 305.989C158.696 305.96 158.789 305.96 158.891 305.989C158.993 306.017 159.095 306.06 159.196 306.119C159.26 306.156 159.335 306.208 159.419 306.274C159.505 306.34 159.588 306.422 159.669 306.522C159.752 306.621 159.822 306.741 159.881 306.88C159.939 307.02 159.974 307.181 159.984 307.365L160.073 308.887L159.765 308.709L159.747 308.396L159.731 308.387C159.713 308.425 159.681 308.459 159.636 308.488C159.591 308.517 159.529 308.528 159.45 308.522C159.371 308.515 159.274 308.478 159.157 308.411ZM159.186 308.119C159.308 308.189 159.409 308.221 159.489 308.214C159.57 308.208 159.629 308.173 159.667 308.111C159.705 308.048 159.722 307.969 159.716 307.873L159.697 307.548C159.685 307.559 159.658 307.559 159.614 307.548C159.571 307.537 159.522 307.52 159.465 307.498C159.409 307.476 159.354 307.453 159.301 307.43C159.248 307.406 159.205 307.387 159.173 307.373C159.093 307.339 159.02 307.315 158.952 307.302C158.884 307.289 158.831 307.296 158.792 307.325C158.753 307.353 158.736 307.412 158.741 307.502C158.748 307.625 158.793 307.741 158.876 307.85C158.96 307.959 159.063 308.048 159.186 308.119ZM162.068 307.806L161.461 309.688L161.148 309.508L160.272 306.769L160.606 306.962L161.266 309.123L161.287 309.135L161.734 307.613L162.068 307.806ZM163.38 310.843C163.187 310.731 163.017 310.586 162.871 310.407C162.726 310.227 162.611 310.027 162.525 309.806C162.44 309.584 162.39 309.355 162.377 309.118C162.363 308.882 162.388 308.695 162.453 308.557C162.518 308.419 162.615 308.339 162.744 308.315C162.874 308.291 163.029 308.332 163.21 308.436C163.314 308.496 163.418 308.576 163.523 308.675C163.627 308.774 163.723 308.892 163.812 309.031C163.9 309.168 163.974 309.325 164.032 309.501C164.09 309.677 164.125 309.873 164.138 310.089L164.147 310.239L162.602 309.347L162.584 309.04L163.816 309.751C163.808 309.621 163.779 309.492 163.728 309.363C163.677 309.235 163.609 309.118 163.523 309.011C163.438 308.905 163.34 308.819 163.228 308.755C163.106 308.684 163.002 308.658 162.916 308.677C162.831 308.694 162.768 308.745 162.727 308.829C162.685 308.913 162.668 309.018 162.676 309.146L162.688 309.35C162.698 309.525 162.733 309.688 162.792 309.839C162.852 309.99 162.931 310.124 163.028 310.242C163.126 310.358 163.237 310.452 163.361 310.524C163.442 310.571 163.514 310.6 163.578 310.611C163.643 310.623 163.697 310.615 163.742 310.59C163.787 310.563 163.82 310.517 163.841 310.452L164.144 310.72C164.12 310.819 164.073 310.89 164.004 310.936C163.935 310.981 163.848 310.996 163.742 310.982C163.636 310.968 163.515 310.921 163.38 310.843ZM165.936 310.929L166.017 312.319L165.709 312.141L165.575 309.831L165.872 310.002L165.893 310.363L165.919 310.378C165.959 310.288 166.025 310.235 166.117 310.219C166.208 310.202 166.33 310.237 166.481 310.325C166.617 310.403 166.737 310.504 166.843 310.627C166.948 310.749 167.033 310.891 167.097 311.053C167.161 311.214 167.199 311.392 167.21 311.589L167.295 313.057L166.987 312.879L166.904 311.435C166.893 311.254 166.844 311.089 166.756 310.94C166.669 310.791 166.553 310.675 166.411 310.592C166.312 310.536 166.226 310.51 166.151 310.514C166.078 310.519 166.021 310.556 165.983 310.624C165.944 310.693 165.928 310.795 165.936 310.929ZM168.675 313.9C168.494 313.796 168.332 313.654 168.19 313.476C168.049 313.299 167.934 313.098 167.848 312.876C167.762 312.654 167.712 312.423 167.698 312.185C167.684 311.944 167.709 311.756 167.775 311.62C167.841 311.485 167.939 311.406 168.069 311.385C168.2 311.365 168.356 311.407 168.536 311.512C168.717 311.616 168.879 311.757 169.02 311.935C169.162 312.113 169.277 312.313 169.363 312.537C169.45 312.76 169.5 312.992 169.514 313.233C169.528 313.472 169.502 313.658 169.436 313.793C169.37 313.927 169.272 314.005 169.141 314.025C169.011 314.046 168.856 314.005 168.675 313.9ZM168.657 313.581C168.794 313.661 168.905 313.685 168.989 313.655C169.073 313.625 169.132 313.556 169.167 313.449C169.202 313.341 169.215 313.21 169.206 313.055C169.197 312.901 169.168 312.745 169.117 312.587C169.067 312.429 168.995 312.283 168.901 312.15C168.808 312.016 168.692 311.91 168.555 311.83C168.418 311.751 168.307 311.727 168.223 311.758C168.139 311.789 168.079 311.859 168.045 311.968C168.01 312.076 167.997 312.208 168.006 312.362C168.015 312.517 168.044 312.672 168.095 312.829C168.145 312.986 168.217 313.131 168.31 313.264C168.404 313.396 168.519 313.502 168.657 313.581ZM172.589 313.88L171.982 315.763L171.668 315.582L170.793 312.844L171.127 313.036L171.787 315.197L171.808 315.209L172.255 313.687L172.589 313.88ZM173.661 316.785C173.534 316.711 173.417 316.617 173.311 316.502C173.204 316.386 173.117 316.258 173.05 316.118C172.983 315.976 172.945 315.83 172.936 315.68C172.929 315.548 172.945 315.453 172.985 315.397C173.026 315.34 173.082 315.31 173.155 315.306C173.228 315.303 173.31 315.316 173.4 315.346C173.491 315.375 173.582 315.409 173.674 315.449C173.795 315.501 173.893 315.545 173.968 315.579C174.044 315.614 174.099 315.629 174.132 315.626C174.167 315.624 174.182 315.594 174.179 315.537L174.178 315.525C174.17 315.376 174.128 315.241 174.053 315.118C173.978 314.995 173.87 314.893 173.728 314.811C173.581 314.727 173.468 314.697 173.389 314.723C173.31 314.749 173.256 314.794 173.227 314.859L172.927 314.57C172.971 314.46 173.035 314.391 173.117 314.363C173.2 314.334 173.293 314.334 173.395 314.363C173.497 314.391 173.599 314.434 173.7 314.493C173.764 314.53 173.839 314.581 173.923 314.648C174.008 314.713 174.092 314.796 174.173 314.895C174.256 314.995 174.326 315.115 174.385 315.254C174.443 315.394 174.478 315.555 174.488 315.739L174.577 317.261L174.269 317.083L174.251 316.77L174.235 316.761C174.217 316.799 174.185 316.833 174.14 316.862C174.094 316.891 174.032 316.902 173.954 316.896C173.875 316.889 173.778 316.852 173.661 316.785ZM173.69 316.493C173.811 316.563 173.912 316.595 173.993 316.588C174.074 316.582 174.133 316.547 174.171 316.484C174.209 316.422 174.226 316.343 174.22 316.247L174.201 315.922C174.189 315.932 174.162 315.932 174.118 315.922C174.075 315.911 174.026 315.894 173.969 315.872C173.913 315.849 173.858 315.827 173.805 315.803C173.752 315.78 173.709 315.761 173.677 315.747C173.597 315.713 173.524 315.689 173.456 315.676C173.388 315.662 173.335 315.67 173.295 315.698C173.257 315.726 173.24 315.786 173.245 315.876C173.252 315.999 173.297 316.115 173.38 316.224C173.464 316.333 173.567 316.422 173.69 316.493ZM175.268 314.683L175.447 317.763L175.139 317.585L174.96 314.505L175.268 314.683ZM177.219 317.873L177.14 316.508L177.448 316.685L177.582 318.996L177.274 318.818L177.251 318.427L177.23 318.415C177.19 318.505 177.123 318.563 177.028 318.588C176.934 318.612 176.811 318.58 176.66 318.493C176.534 318.42 176.421 318.324 176.32 318.205C176.219 318.085 176.137 317.944 176.074 317.784C176.01 317.622 175.973 317.443 175.962 317.246L175.877 315.778L176.185 315.956L176.268 317.4C176.278 317.569 176.327 317.727 176.414 317.874C176.503 318.022 176.611 318.133 176.739 318.207C176.815 318.251 176.892 318.273 176.968 318.274C177.046 318.275 177.109 318.245 177.157 318.182C177.207 318.121 177.227 318.018 177.219 317.873ZM178.989 319.855C178.796 319.743 178.626 319.598 178.48 319.419C178.336 319.239 178.22 319.039 178.134 318.818C178.049 318.596 177.999 318.367 177.986 318.13C177.972 317.893 177.997 317.706 178.062 317.569C178.127 317.431 178.224 317.351 178.353 317.327C178.483 317.303 178.638 317.344 178.819 317.448C178.923 317.508 179.028 317.588 179.132 317.687C179.236 317.786 179.332 317.904 179.421 318.043C179.51 318.18 179.583 318.337 179.641 318.513C179.699 318.689 179.735 318.885 179.747 319.1L179.756 319.251L178.211 318.359L178.193 318.052L179.425 318.763C179.417 318.633 179.388 318.504 179.337 318.375C179.286 318.247 179.218 318.13 179.132 318.023C179.047 317.917 178.949 317.831 178.837 317.767C178.715 317.696 178.611 317.67 178.525 317.688C178.44 317.706 178.377 317.757 178.336 317.841C178.295 317.925 178.278 318.03 178.285 318.157L178.297 318.362C178.307 318.537 178.342 318.699 178.401 318.851C178.461 319.002 178.54 319.136 178.637 319.254C178.735 319.37 178.846 319.464 178.97 319.536C179.051 319.583 179.123 319.612 179.187 319.623C179.252 319.634 179.306 319.627 179.351 319.602C179.396 319.575 179.429 319.529 179.45 319.464L179.753 319.732C179.729 319.83 179.682 319.902 179.613 319.948C179.544 319.992 179.457 320.008 179.351 319.994C179.245 319.98 179.124 319.933 178.989 319.855ZM182.526 320.937L182.447 319.572L182.755 319.75L182.889 322.06L182.581 321.882L182.558 321.491L182.537 321.479C182.497 321.569 182.43 321.627 182.335 321.652C182.241 321.676 182.118 321.644 181.967 321.557C181.841 321.484 181.728 321.388 181.627 321.269C181.526 321.149 181.444 321.008 181.381 320.848C181.318 320.686 181.28 320.507 181.269 320.311L181.184 318.842L181.492 319.02L181.575 320.464C181.585 320.633 181.634 320.791 181.721 320.938C181.81 321.086 181.918 321.197 182.046 321.271C182.122 321.315 182.199 321.338 182.276 321.338C182.353 321.339 182.416 321.309 182.464 321.247C182.514 321.185 182.534 321.082 182.526 320.937ZM183.68 321.173L183.761 322.563L183.453 322.386L183.319 320.075L183.616 320.247L183.637 320.608L183.663 320.623C183.703 320.533 183.769 320.48 183.861 320.464C183.952 320.447 184.074 320.482 184.225 320.569C184.361 320.648 184.481 320.748 184.587 320.871C184.692 320.993 184.777 321.135 184.841 321.297C184.905 321.458 184.943 321.637 184.954 321.834L185.039 323.302L184.731 323.124L184.648 321.68C184.637 321.498 184.588 321.333 184.5 321.185C184.413 321.035 184.298 320.919 184.155 320.837C184.057 320.78 183.97 320.754 183.896 320.759C183.822 320.764 183.766 320.8 183.727 320.869C183.688 320.938 183.672 321.039 183.68 321.173ZM186.34 321.819L186.357 322.12L185.319 321.52L185.301 321.22L186.34 321.819ZM185.572 320.841L185.88 321.019L186.007 323.221C186.013 323.321 186.03 323.404 186.058 323.468C186.087 323.532 186.122 323.585 186.163 323.625C186.205 323.664 186.249 323.697 186.294 323.723C186.328 323.743 186.355 323.757 186.377 323.766C186.398 323.773 186.416 323.779 186.428 323.784L186.51 324.139C186.489 324.136 186.461 324.128 186.424 324.115C186.387 324.104 186.34 324.081 186.282 324.048C186.195 323.998 186.109 323.927 186.023 323.836C185.938 323.745 185.865 323.64 185.805 323.52C185.746 323.401 185.713 323.274 185.705 323.139L185.572 320.841ZM186.937 324.397L186.803 322.087L187.111 322.265L187.245 324.575L186.937 324.397ZM186.937 321.792C186.877 321.757 186.824 321.704 186.778 321.632C186.732 321.56 186.708 321.491 186.704 321.425C186.7 321.359 186.718 321.314 186.758 321.292C186.799 321.27 186.849 321.276 186.909 321.311C186.969 321.345 187.022 321.399 187.067 321.47C187.114 321.543 187.139 321.612 187.142 321.678C187.146 321.744 187.128 321.788 187.087 321.81C187.047 321.833 186.997 321.827 186.937 321.792ZM187.938 321.998L188.117 325.078L187.809 324.901L187.63 321.82L187.938 321.998ZM190.307 326.395C190.18 326.322 190.063 326.228 189.957 326.113C189.85 325.997 189.763 325.869 189.696 325.728C189.629 325.587 189.591 325.441 189.582 325.291C189.575 325.158 189.591 325.064 189.631 325.008C189.672 324.951 189.729 324.92 189.802 324.917C189.874 324.914 189.956 324.927 190.046 324.956C190.137 324.986 190.228 325.02 190.321 325.06C190.441 325.112 190.539 325.155 190.614 325.19C190.69 325.224 190.745 325.24 190.779 325.237C190.813 325.234 190.828 325.205 190.825 325.147L190.824 325.135C190.816 324.987 190.774 324.851 190.699 324.728C190.624 324.606 190.516 324.504 190.374 324.422C190.227 324.337 190.114 324.308 190.035 324.334C189.956 324.36 189.902 324.405 189.873 324.47L189.573 324.181C189.617 324.07 189.681 324.001 189.763 323.973C189.846 323.945 189.939 323.945 190.041 323.973C190.143 324.002 190.245 324.045 190.346 324.103C190.41 324.14 190.485 324.192 190.569 324.258C190.655 324.324 190.738 324.407 190.819 324.506C190.902 324.606 190.972 324.725 191.031 324.865C191.089 325.004 191.124 325.166 191.134 325.349L191.223 326.872L190.915 326.694L190.897 326.381L190.881 326.372C190.863 326.41 190.831 326.443 190.786 326.473C190.741 326.502 190.679 326.513 190.6 326.506C190.521 326.5 190.424 326.463 190.307 326.395ZM190.336 326.104C190.457 326.174 190.559 326.206 190.639 326.199C190.72 326.192 190.779 326.158 190.817 326.095C190.855 326.033 190.872 325.954 190.866 325.857L190.847 325.533C190.835 325.543 190.808 325.543 190.764 325.532C190.721 325.521 190.672 325.505 190.615 325.483C190.559 325.46 190.504 325.437 190.451 325.414C190.398 325.39 190.355 325.372 190.323 325.358C190.243 325.323 190.17 325.3 190.102 325.287C190.034 325.273 189.981 325.28 189.942 325.309C189.903 325.337 189.886 325.396 189.891 325.486C189.898 325.61 189.943 325.726 190.026 325.835C190.11 325.943 190.213 326.033 190.336 326.104ZM192.602 327.714C192.414 327.606 192.249 327.461 192.107 327.281C191.966 327.1 191.853 326.899 191.77 326.677C191.686 326.455 191.638 326.229 191.624 325.999C191.611 325.764 191.636 325.578 191.701 325.442C191.766 325.305 191.863 325.225 191.992 325.202C192.122 325.178 192.277 325.218 192.458 325.323C192.599 325.404 192.728 325.507 192.844 325.633C192.961 325.758 193.058 325.896 193.137 326.046C193.215 326.196 193.267 326.348 193.293 326.503L192.985 326.325C192.956 326.206 192.898 326.083 192.812 325.955C192.728 325.826 192.617 325.723 192.482 325.645C192.362 325.575 192.258 325.551 192.172 325.571C192.087 325.59 192.023 325.65 191.98 325.752C191.938 325.852 191.922 325.99 191.932 326.164C191.942 326.343 191.975 326.512 192.032 326.673C192.089 326.834 192.165 326.977 192.259 327.102C192.353 327.227 192.461 327.325 192.583 327.395C192.663 327.442 192.735 327.467 192.798 327.473C192.862 327.479 192.914 327.464 192.956 327.43C192.998 327.396 193.026 327.343 193.04 327.269L193.348 327.447C193.339 327.574 193.303 327.672 193.24 327.741C193.179 327.81 193.094 327.845 192.985 327.844C192.877 327.843 192.75 327.8 192.602 327.714ZM194.575 326.574L194.592 326.875L193.554 326.275L193.536 325.974L194.575 326.574ZM193.807 325.595L194.115 325.773L194.243 327.975C194.248 328.076 194.265 328.158 194.293 328.223C194.322 328.287 194.357 328.339 194.398 328.379C194.44 328.419 194.484 328.452 194.529 328.478C194.563 328.498 194.591 328.512 194.612 328.52C194.634 328.528 194.651 328.534 194.664 328.538L194.745 328.893C194.724 328.89 194.696 328.883 194.659 328.87C194.622 328.858 194.575 328.836 194.518 328.803C194.431 328.753 194.344 328.682 194.258 328.591C194.173 328.5 194.1 328.394 194.04 328.274C193.981 328.155 193.948 328.028 193.94 327.894L193.807 325.595ZM195.172 329.152L195.038 326.841L195.346 327.019L195.48 329.33L195.172 329.152ZM195.172 326.547C195.112 326.512 195.059 326.459 195.013 326.386C194.968 326.315 194.943 326.246 194.939 326.179C194.935 326.113 194.953 326.069 194.993 326.046C195.034 326.024 195.084 326.031 195.144 326.065C195.204 326.1 195.257 326.153 195.302 326.225C195.349 326.297 195.374 326.366 195.378 326.433C195.381 326.499 195.363 326.543 195.322 326.565C195.282 326.587 195.232 326.581 195.172 326.547ZM197.549 328.291L196.942 330.173L196.629 329.993L195.753 327.254L196.087 327.447L196.748 329.608L196.768 329.62L197.215 328.098L197.549 328.291ZM198.621 331.195C198.494 331.122 198.377 331.028 198.271 330.913C198.164 330.797 198.077 330.669 198.01 330.529C197.943 330.387 197.905 330.241 197.896 330.091C197.889 329.958 197.905 329.864 197.946 329.808C197.986 329.751 198.043 329.721 198.116 329.717C198.189 329.714 198.27 329.727 198.36 329.757C198.451 329.786 198.542 329.82 198.635 329.86C198.755 329.912 198.853 329.956 198.928 329.99C199.004 330.024 199.059 330.04 199.093 330.037C199.127 330.035 199.142 330.005 199.139 329.948L199.138 329.936C199.13 329.787 199.088 329.651 199.013 329.529C198.938 329.406 198.83 329.304 198.688 329.222C198.541 329.137 198.428 329.108 198.349 329.134C198.27 329.16 198.216 329.205 198.187 329.27L197.887 328.981C197.932 328.87 197.995 328.801 198.077 328.773C198.161 328.745 198.253 328.745 198.355 328.774C198.457 328.802 198.559 328.845 198.66 328.903C198.724 328.94 198.799 328.992 198.883 329.058C198.969 329.124 199.052 329.207 199.133 329.306C199.216 329.406 199.286 329.526 199.345 329.665C199.403 329.804 199.438 329.966 199.448 330.149L199.537 331.672L199.229 331.494L199.211 331.181L199.195 331.172C199.177 331.21 199.145 331.244 199.1 331.273C199.055 331.302 198.993 331.313 198.914 331.306C198.835 331.3 198.738 331.263 198.621 331.195ZM198.65 330.904C198.772 330.974 198.873 331.006 198.953 330.999C199.034 330.992 199.093 330.958 199.131 330.895C199.169 330.833 199.186 330.754 199.18 330.658L199.161 330.333C199.149 330.343 199.122 330.343 199.078 330.333C199.036 330.321 198.986 330.305 198.929 330.283C198.873 330.26 198.818 330.237 198.765 330.214C198.712 330.191 198.67 330.172 198.637 330.158C198.557 330.123 198.484 330.1 198.416 330.087C198.349 330.073 198.295 330.081 198.256 330.109C198.217 330.137 198.2 330.196 198.205 330.287C198.213 330.41 198.258 330.526 198.34 330.635C198.424 330.743 198.527 330.833 198.65 330.904ZM200.836 330.189L200.854 330.49L199.815 329.89L199.798 329.589L200.836 330.189ZM200.068 329.211L200.376 329.388L200.504 331.59C200.51 331.691 200.527 331.773 200.555 331.838C200.584 331.902 200.619 331.954 200.66 331.994C200.702 332.034 200.745 332.067 200.791 332.093C200.824 332.113 200.852 332.127 200.874 332.135C200.895 332.143 200.912 332.149 200.925 332.153L201.006 332.508C200.986 332.505 200.957 332.498 200.92 332.485C200.884 332.473 200.837 332.451 200.779 332.418C200.692 332.368 200.606 332.297 200.52 332.206C200.434 332.115 200.362 332.009 200.302 331.89C200.243 331.77 200.21 331.643 200.202 331.509L200.068 329.211ZM202.255 333.288C202.062 333.176 201.893 333.031 201.747 332.852C201.602 332.672 201.487 332.472 201.401 332.251C201.315 332.029 201.266 331.8 201.252 331.563C201.239 331.326 201.264 331.139 201.328 331.002C201.393 330.864 201.49 330.784 201.619 330.76C201.749 330.736 201.904 330.777 202.085 330.881C202.19 330.941 202.294 331.021 202.398 331.12C202.502 331.219 202.599 331.337 202.687 331.476C202.776 331.613 202.849 331.77 202.908 331.946C202.966 332.122 203.001 332.318 203.014 332.533L203.022 332.684L201.477 331.792L201.46 331.485L202.691 332.196C202.684 332.066 202.654 331.936 202.603 331.808C202.553 331.68 202.485 331.563 202.399 331.456C202.313 331.349 202.215 331.264 202.104 331.2C201.981 331.129 201.877 331.103 201.792 331.121C201.707 331.139 201.644 331.19 201.602 331.274C201.561 331.358 201.544 331.463 201.551 331.59L201.563 331.795C201.573 331.969 201.608 332.132 201.667 332.284C201.727 332.435 201.806 332.569 201.904 332.686C202.001 332.803 202.112 332.897 202.237 332.969C202.318 333.016 202.39 333.045 202.454 333.056C202.518 333.067 202.573 333.06 202.618 333.035C202.662 333.008 202.695 332.962 202.717 332.897L203.02 333.165C202.995 333.263 202.949 333.335 202.88 333.381C202.811 333.425 202.724 333.441 202.618 333.427C202.512 333.413 202.391 333.366 202.255 333.288ZM204.31 334.474C204.143 334.378 203.993 334.244 203.86 334.073C203.726 333.901 203.618 333.705 203.535 333.485C203.453 333.263 203.404 333.03 203.39 332.786C203.376 332.543 203.4 332.353 203.462 332.216C203.524 332.08 203.616 332 203.739 331.977C203.862 331.954 204.008 331.991 204.177 332.089C204.308 332.164 204.412 332.249 204.491 332.342C204.57 332.436 204.632 332.526 204.675 332.612C204.72 332.698 204.754 332.767 204.779 332.82L204.806 332.835L204.74 331.698L205.047 331.876L205.226 334.956L204.929 334.785L204.908 334.43L204.872 334.409C204.851 334.438 204.822 334.472 204.784 334.512C204.746 334.551 204.69 334.574 204.615 334.579C204.541 334.583 204.439 334.549 204.31 334.474ZM204.334 334.179C204.457 334.251 204.559 334.274 204.64 334.249C204.721 334.223 204.78 334.157 204.817 334.05C204.853 333.942 204.867 333.801 204.856 333.626C204.846 333.454 204.816 333.291 204.765 333.136C204.714 332.981 204.644 332.842 204.554 332.721C204.465 332.598 204.357 332.501 204.232 332.429C204.102 332.353 203.995 332.329 203.913 332.356C203.831 332.383 203.772 332.449 203.736 332.555C203.701 332.661 203.688 332.795 203.698 332.957C203.707 333.122 203.738 333.284 203.789 333.443C203.841 333.602 203.913 333.746 204.003 333.875C204.095 334.004 204.205 334.105 204.334 334.179ZM206.908 335.927L206.729 332.847L207.037 333.025L207.103 334.162L207.129 334.177C207.15 334.15 207.178 334.117 207.214 334.078C207.252 334.038 207.307 334.016 207.38 334.01C207.453 334.004 207.555 334.039 207.686 334.114C207.854 334.212 208.006 334.346 208.14 334.518C208.275 334.69 208.383 334.885 208.466 335.106C208.548 335.326 208.597 335.557 208.611 335.8C208.625 336.045 208.601 336.236 208.539 336.374C208.478 336.51 208.386 336.591 208.263 336.615C208.141 336.639 207.997 336.602 207.83 336.506C207.701 336.432 207.596 336.348 207.516 336.254C207.436 336.159 207.373 336.068 207.327 335.981C207.282 335.892 207.247 335.821 207.222 335.765L207.185 335.744L207.206 336.099L206.908 335.927ZM207.144 334.947C207.154 335.122 207.185 335.288 207.237 335.447C207.289 335.605 207.36 335.746 207.45 335.871C207.539 335.994 207.646 336.092 207.769 336.163C207.898 336.237 208.003 336.26 208.085 336.232C208.167 336.203 208.226 336.134 208.262 336.026C208.299 335.917 208.312 335.781 208.303 335.616C208.293 335.454 208.263 335.295 208.212 335.139C208.162 334.983 208.091 334.842 207.999 334.716C207.909 334.589 207.798 334.487 207.668 334.412C207.542 334.34 207.439 334.316 207.358 334.34C207.277 334.363 207.219 334.427 207.183 334.532C207.147 334.636 207.134 334.775 207.144 334.947ZM209.325 338.16C209.273 338.13 209.226 338.098 209.185 338.065C209.143 338.032 209.115 338.007 209.098 337.989L209.159 337.721C209.235 337.786 209.301 337.833 209.358 337.86C209.415 337.887 209.465 337.887 209.506 337.859C209.548 337.833 209.584 337.772 209.615 337.676L209.662 337.529L208.786 334.779L209.12 334.972L209.78 337.132L209.801 337.144L210.248 335.623L210.582 335.815L209.884 337.972C209.853 338.069 209.811 338.14 209.759 338.186C209.707 338.232 209.645 338.253 209.573 338.248C209.501 338.243 209.418 338.214 209.325 338.16ZM212.893 337.15L212.911 337.451L211.872 336.851L211.854 336.55L212.893 337.15ZM212.125 336.172L212.433 336.349L212.561 338.551C212.567 338.652 212.584 338.734 212.612 338.799C212.641 338.863 212.676 338.915 212.717 338.955C212.758 338.995 212.802 339.028 212.847 339.054C212.881 339.074 212.909 339.088 212.93 339.096C212.952 339.104 212.969 339.11 212.982 339.114L213.063 339.469C213.043 339.466 213.014 339.459 212.977 339.446C212.94 339.434 212.893 339.412 212.836 339.379C212.749 339.329 212.662 339.258 212.576 339.167C212.491 339.076 212.419 338.97 212.359 338.85C212.3 338.731 212.266 338.604 212.258 338.47L212.125 336.172ZM213.761 338.541L213.841 339.93L213.533 339.753L213.355 336.672L213.663 336.85L213.728 337.981L213.754 337.996C213.794 337.904 213.859 337.85 213.949 337.834C214.04 337.817 214.164 337.855 214.321 337.946C214.458 338.024 214.579 338.125 214.686 338.247C214.792 338.369 214.877 338.511 214.941 338.673C215.006 338.834 215.044 339.014 215.056 339.213L215.141 340.681L214.833 340.503L214.749 339.059C214.739 338.875 214.689 338.71 214.601 338.562C214.513 338.413 214.397 338.297 214.251 338.213C214.15 338.155 214.061 338.127 213.984 338.13C213.908 338.134 213.849 338.169 213.809 338.237C213.769 338.305 213.753 338.406 213.761 338.541ZM216.547 341.539C216.354 341.428 216.185 341.282 216.039 341.103C215.894 340.924 215.779 340.723 215.693 340.502C215.608 340.28 215.558 340.051 215.544 339.815C215.531 339.578 215.556 339.391 215.62 339.254C215.685 339.116 215.783 339.035 215.911 339.012C216.041 338.988 216.197 339.028 216.378 339.133C216.482 339.193 216.586 339.272 216.69 339.371C216.794 339.47 216.891 339.589 216.98 339.727C217.068 339.865 217.142 340.022 217.2 340.198C217.258 340.374 217.293 340.569 217.306 340.785L217.314 340.935L215.77 340.043L215.752 339.737L216.984 340.448C216.976 340.317 216.947 340.188 216.895 340.06C216.845 339.932 216.777 339.814 216.691 339.707C216.606 339.601 216.507 339.516 216.396 339.451C216.273 339.381 216.169 339.354 216.084 339.373C215.999 339.391 215.936 339.442 215.895 339.525C215.853 339.609 215.836 339.715 215.844 339.842L215.855 340.047C215.866 340.221 215.9 340.384 215.96 340.535C216.02 340.686 216.098 340.821 216.196 340.938C216.294 341.054 216.405 341.149 216.529 341.22C216.61 341.267 216.682 341.296 216.746 341.308C216.81 341.319 216.865 341.312 216.91 341.286C216.955 341.26 216.988 341.214 217.009 341.149L217.312 341.417C217.288 341.515 217.241 341.587 217.172 341.632C217.103 341.677 217.016 341.692 216.91 341.679C216.804 341.664 216.683 341.618 216.547 341.539ZM219.693 343.356C219.505 343.247 219.341 343.103 219.199 342.922C219.057 342.741 218.945 342.54 218.861 342.318C218.778 342.097 218.729 341.871 218.716 341.64C218.702 341.405 218.728 341.22 218.792 341.084C218.858 340.947 218.955 340.867 219.084 340.843C219.213 340.819 219.369 340.86 219.55 340.964C219.691 341.045 219.819 341.149 219.936 341.274C220.052 341.4 220.15 341.537 220.228 341.687C220.307 341.837 220.359 341.99 220.385 342.144L220.077 341.966C220.047 341.847 219.99 341.724 219.904 341.596C219.819 341.468 219.709 341.364 219.573 341.286C219.453 341.217 219.35 341.192 219.264 341.212C219.178 341.231 219.114 341.292 219.071 341.393C219.029 341.494 219.013 341.631 219.023 341.806C219.034 341.984 219.067 342.154 219.123 342.314C219.181 342.475 219.256 342.618 219.35 342.743C219.445 342.869 219.553 342.966 219.675 343.037C219.755 343.083 219.827 343.109 219.89 343.114C219.953 343.12 220.006 343.106 220.048 343.072C220.089 343.038 220.117 342.984 220.132 342.911L220.44 343.089C220.43 343.215 220.394 343.313 220.332 343.383C220.27 343.452 220.185 343.486 220.077 343.485C219.969 343.484 219.841 343.441 219.693 343.356ZM221.522 344.417C221.395 344.344 221.278 344.25 221.171 344.135C221.064 344.019 220.978 343.891 220.911 343.75C220.844 343.609 220.806 343.463 220.797 343.312C220.789 343.18 220.806 343.086 220.846 343.03C220.886 342.973 220.943 342.942 221.016 342.939C221.089 342.935 221.171 342.948 221.261 342.978C221.351 343.007 221.443 343.042 221.535 343.081C221.656 343.134 221.754 343.177 221.829 343.212C221.905 343.246 221.96 343.262 221.993 343.259C222.027 343.256 222.043 343.226 222.04 343.169L222.039 343.157C222.03 343.009 221.988 342.873 221.913 342.75C221.839 342.628 221.731 342.526 221.589 342.444C221.442 342.359 221.329 342.329 221.25 342.355C221.17 342.381 221.116 342.427 221.087 342.491L220.788 342.202C220.832 342.092 220.895 342.023 220.978 341.995C221.061 341.966 221.153 341.967 221.255 341.995C221.358 342.023 221.459 342.067 221.56 342.125C221.625 342.162 221.699 342.214 221.784 342.28C221.869 342.346 221.953 342.428 222.034 342.528C222.116 342.628 222.187 342.747 222.245 342.887C222.304 343.026 222.338 343.188 222.349 343.371L222.437 344.893L222.129 344.715L222.111 344.403L222.096 344.394C222.078 344.432 222.046 344.465 222 344.494C221.955 344.523 221.893 344.534 221.815 344.528C221.736 344.521 221.638 344.484 221.522 344.417ZM221.55 344.125C221.672 344.196 221.773 344.227 221.853 344.22C221.935 344.214 221.994 344.179 222.032 344.117C222.07 344.055 222.086 343.975 222.081 343.879L222.062 343.554C222.05 343.565 222.022 343.565 221.979 343.554C221.936 343.543 221.886 343.527 221.83 343.504C221.774 343.482 221.719 343.459 221.665 343.436C221.613 343.412 221.57 343.393 221.537 343.379C221.458 343.345 221.384 343.321 221.316 343.308C221.249 343.295 221.196 343.302 221.156 343.331C221.117 343.359 221.101 343.418 221.106 343.508C221.113 343.632 221.158 343.748 221.241 343.857C221.324 343.965 221.428 344.054 221.55 344.125ZM224.315 344.244L224.044 344.175C224.023 344.112 223.994 344.045 223.958 343.976C223.922 343.905 223.874 343.837 223.815 343.771C223.755 343.705 223.681 343.646 223.591 343.594C223.469 343.523 223.368 343.497 223.29 343.515C223.213 343.532 223.177 343.591 223.183 343.69C223.188 343.778 223.22 343.864 223.279 343.947C223.337 344.03 223.427 344.123 223.547 344.226L223.85 344.482C224.032 344.635 224.17 344.789 224.263 344.943C224.357 345.096 224.409 345.253 224.418 345.415C224.426 345.547 224.4 345.646 224.34 345.712C224.28 345.779 224.194 345.809 224.08 345.801C223.966 345.793 223.831 345.745 223.675 345.655C223.471 345.537 223.299 345.388 223.159 345.208C223.019 345.029 222.926 344.83 222.878 344.613L223.166 344.698C223.201 344.838 223.259 344.962 223.34 345.068C223.422 345.176 223.526 345.266 223.652 345.339C223.796 345.422 223.907 345.452 223.988 345.431C224.069 345.409 224.107 345.348 224.101 345.249C224.096 345.169 224.068 345.087 224.016 345.005C223.964 344.922 223.887 344.838 223.784 344.752L223.445 344.469C223.259 344.313 223.119 344.158 223.027 344.002C222.936 343.847 222.885 343.69 222.876 343.53C222.869 343.4 222.894 343.303 222.951 343.239C223.01 343.176 223.093 343.148 223.2 343.154C223.308 343.162 223.432 343.206 223.573 343.287C223.772 343.402 223.93 343.542 224.049 343.707C224.169 343.873 224.258 344.052 224.315 344.244ZM225.146 345.114L225.227 346.504L224.919 346.326L224.74 343.246L225.048 343.423L225.114 344.555L225.14 344.57C225.18 344.477 225.245 344.423 225.335 344.407C225.426 344.391 225.55 344.428 225.707 344.519C225.844 344.598 225.965 344.699 226.071 344.821C226.178 344.942 226.263 345.084 226.327 345.246C226.392 345.408 226.43 345.588 226.441 345.786L226.527 347.254L226.219 347.076L226.135 345.632C226.124 345.449 226.075 345.283 225.986 345.135C225.899 344.987 225.782 344.871 225.637 344.787C225.536 344.728 225.447 344.701 225.37 344.704C225.293 344.707 225.235 344.743 225.194 344.81C225.155 344.878 225.139 344.98 225.146 345.114ZM227.09 347.58L226.956 345.269L227.264 345.447L227.398 347.757L227.09 347.58ZM227.09 344.974C227.03 344.94 226.977 344.886 226.931 344.814C226.885 344.742 226.861 344.673 226.857 344.607C226.853 344.541 226.871 344.497 226.911 344.474C226.952 344.452 227.002 344.458 227.062 344.493C227.122 344.528 227.175 344.581 227.22 344.653C227.267 344.725 227.292 344.794 227.295 344.86C227.299 344.927 227.281 344.971 227.24 344.993C227.2 345.015 227.15 345.009 227.09 344.974ZM228.805 348.616C228.612 348.505 228.442 348.359 228.297 348.18C228.152 348.001 228.036 347.8 227.95 347.579C227.865 347.357 227.816 347.128 227.802 346.892C227.788 346.655 227.814 346.468 227.878 346.331C227.943 346.193 228.04 346.112 228.169 346.089C228.299 346.065 228.454 346.105 228.635 346.21C228.74 346.27 228.844 346.349 228.948 346.448C229.052 346.547 229.148 346.666 229.237 346.804C229.326 346.942 229.399 347.098 229.457 347.274C229.516 347.451 229.551 347.646 229.563 347.862L229.572 348.012L228.027 347.12L228.009 346.814L229.241 347.525C229.234 347.394 229.204 347.265 229.153 347.137C229.103 347.009 229.035 346.891 228.948 346.784C228.863 346.678 228.765 346.593 228.654 346.528C228.531 346.458 228.427 346.431 228.341 346.45C228.257 346.468 228.194 346.519 228.152 346.602C228.111 346.686 228.094 346.792 228.101 346.919L228.113 347.123C228.123 347.298 228.158 347.461 228.217 347.612C228.277 347.763 228.356 347.898 228.454 348.015C228.551 348.131 228.662 348.226 228.787 348.297C228.867 348.344 228.94 348.373 229.003 348.385C229.068 348.396 229.123 348.389 229.167 348.363C229.212 348.337 229.245 348.291 229.267 348.226L229.57 348.494C229.545 348.592 229.498 348.664 229.43 348.709C229.361 348.754 229.273 348.769 229.168 348.756C229.062 348.741 228.941 348.695 228.805 348.616ZM230.101 349.318L229.967 347.007L230.264 347.179L230.284 347.528L230.305 347.54C230.335 347.447 230.396 347.392 230.487 347.376C230.579 347.36 230.685 347.387 230.805 347.456C230.827 347.469 230.856 347.486 230.89 347.507C230.924 347.527 230.949 347.544 230.967 347.556L230.988 347.917C230.977 347.908 230.953 347.889 230.915 347.862C230.878 347.834 230.839 347.808 230.799 347.784C230.701 347.728 230.616 347.701 230.542 347.704C230.469 347.707 230.412 347.736 230.373 347.793C230.334 347.849 230.318 347.929 230.324 348.033L230.408 349.495L230.101 349.318Z" fill="white"/>
</g>
<defs>
<filter id="filter0_d_6873_1563" x="-0.0328941" y="-2.56198" width="286.614" height="463.639" filterUnits="userSpaceOnUse" color-interpolation-filters="sRGB">
<feFlood flood-opacity="0" result="BackgroundImageFix"/>
<feColorMatrix in="SourceAlpha" type="matrix" values="0 0 0 0 0 0 0 0 0 0 0 0 0 0 0 0 0 0 127 0" result="hardAlpha"/>
<feOffset dx="-37.682" dy="22.6092"/>
<feGaussianBlur stdDeviation="29.276"/>
<feComposite in2="hardAlpha" operator="out"/>
<feColorMatrix type="matrix" values="0 0 0 0 0 0 0 0 0 0 0 0 0 0 0 0 0 0 0.25 0"/>
<feBlend mode="normal" in2="BackgroundImageFix" result="effect1_dropShadow_6873_1563"/>
<feBlend mode="normal" in="SourceGraphic" in2="effect1_dropShadow_6873_1563" result="shape"/>
</filter>
<clipPath id="clip0_6873_1563">
<rect width="124.486" height="124.486" fill="white" transform="matrix(0.866025 0.5 0.0579125 0.998322 126.037 154.343)"/>
</clipPath>
<clipPath id="clip1_6873_1563">
<rect width="126.03" height="24.6387" fill="white" transform="matrix(0.866025 0.5 0.0579125 0.998322 121.572 99.6489)"/>
</clipPath>
</defs>
</svg>
