<svg width="300" height="300" viewBox="0 0 288 455" fill="none" xmlns="http://www.w3.org/2000/svg">
<g filter="url(#filter0_d_6873_1591)">
<g clip-path="url(#clip0_6873_1591)">
<mask id="mask0_6873_1591" style="mask-type:alpha" maskUnits="userSpaceOnUse" x="97" y="36" width="169" height="341">
<path fill-rule="evenodd" clip-rule="evenodd" d="M251.72 130.848C251.456 126.31 248.052 120.788 244.115 118.516L103.786 37.4966C99.8494 35.2238 96.8716 37.0601 97.1349 41.598L111.107 282.45C111.37 286.988 114.775 292.509 118.711 294.782L259.04 375.801C262.977 378.073 265.955 376.237 265.691 371.699L251.72 130.848ZM181.169 102.053V102.053C181.179 102.227 181.306 102.441 181.457 102.528L192.526 108.918C195.273 110.504 197.648 114.356 197.832 117.523C198.015 120.689 195.938 121.97 193.191 120.384L158.909 100.592C156.163 99.0058 153.787 95.1537 153.603 91.9875C153.42 88.8212 155.497 87.54 158.244 89.1258L169.313 95.5165C169.464 95.6034 169.575 95.5273 169.564 95.3538V95.3538C169.35 91.66 171.774 90.1653 174.979 92.0153C178.183 93.8653 180.954 98.3597 181.169 102.053Z" fill="black"/>
</mask>
<g mask="url(#mask0_6873_1591)">
<g filter="url(#filter1_f_6873_1591)">
<path d="M44.7486 -104.42C41.1226 -101.952 39.213 -95.885 39.7607 -86.4444L59.4891 253.642C60.0367 263.083 62.8069 271.851 66.9805 278.823L68.0206 280.51L222.314 185.365L222.054 180.87L45.6453 -105.206L44.7486 -104.42Z" fill="url(#paint0_linear_6873_1591)"/>
<path d="M280.992 280.723L222.315 185.365L222.054 180.869L273.546 149.117L274.768 150.691L342.567 231.112C361.99 254.057 363.151 274.063 345.149 275.618L282.305 280.612L280.992 280.723Z" fill="url(#paint1_linear_6873_1591)"/>
<path d="M282.305 280.611L222.184 183.116L66.9809 278.822C73.4558 289.729 83.8555 296.82 94.7215 295.707L282.305 280.611Z" fill="url(#paint2_linear_6873_1591)"/>
<path d="M274.78 150.915L72.3847 -89.3346C60.4501 -103.394 50.3628 -108.349 44.7484 -104.421L222.197 183.341L274.78 150.915Z" fill="url(#paint3_linear_6873_1591)"/>
</g>
</g>
<g filter="url(#filter2_d_6873_1591)">
<path d="M211.815 123.463L211.301 123.166L211.269 122.604C210.729 122.253 210.292 121.828 209.959 121.33C209.628 120.832 209.447 120.332 209.415 119.829L210.21 120.288C210.245 120.556 210.351 120.823 210.529 121.09C210.708 121.356 210.939 121.588 211.221 121.787L211.107 119.815L210.768 119.523C210.34 119.157 210.007 118.768 209.768 118.357C209.532 117.945 209.401 117.528 209.377 117.107C209.348 116.609 209.468 116.287 209.738 116.142C210.009 115.995 210.398 116.041 210.902 116.279L210.867 115.682L211.381 115.979L211.416 116.576C211.904 116.905 212.304 117.313 212.618 117.8C212.931 118.288 213.108 118.776 213.148 119.264L212.365 118.812C212.343 118.568 212.25 118.318 212.085 118.061C211.921 117.802 211.713 117.583 211.464 117.406L211.572 119.269L211.926 119.561C212.404 119.965 212.763 120.372 213.005 120.781C213.248 121.192 213.383 121.621 213.409 122.068C213.44 122.595 213.313 122.932 213.029 123.077C212.745 123.219 212.329 123.159 211.782 122.896L211.815 123.463ZM212.616 121.706C212.602 121.458 212.514 121.214 212.352 120.973C212.193 120.734 211.952 120.484 211.627 120.225L211.736 122.092C212.032 122.244 212.257 122.286 212.41 122.218C212.563 122.151 212.632 121.98 212.616 121.706ZM210.175 117.493C210.188 117.715 210.269 117.941 210.417 118.172C210.566 118.403 210.777 118.628 211.051 118.847L210.95 117.105C210.711 116.981 210.518 116.956 210.373 117.031C210.227 117.103 210.161 117.257 210.175 117.493Z" fill="white"/>
</g>
<g filter="url(#filter3_d_6873_1591)">
<path d="M220.695 121.239L221.591 136.694L219.562 135.522L218.801 122.407L218.722 122.362L215.655 122.924L215.525 120.691L218.724 120.102L220.695 121.239ZM229.9 141.739C228.865 141.137 227.963 140.312 227.194 139.265C226.425 138.218 225.811 136.986 225.354 135.569C224.896 134.153 224.619 132.605 224.521 130.924C224.424 129.249 224.535 127.93 224.855 126.967C225.179 126.006 225.689 125.426 226.386 125.225C227.087 125.027 227.951 125.224 228.976 125.816C230.002 126.409 230.9 127.231 231.669 128.283C232.439 129.33 233.052 130.559 233.509 131.971C233.971 133.38 234.25 134.922 234.347 136.597C234.445 138.282 234.334 139.609 234.015 140.577C233.695 141.54 233.187 142.125 232.49 142.33C231.793 142.531 230.93 142.334 229.9 141.739ZM229.783 139.724C230.691 140.248 231.37 140.147 231.822 139.42C232.278 138.697 232.449 137.369 232.337 135.437C232.263 134.154 232.082 133.002 231.795 131.98C231.512 130.956 231.139 130.09 230.676 129.38C230.217 128.667 229.689 128.139 229.091 127.794C228.188 127.272 227.508 127.376 227.053 128.105C226.597 128.834 226.423 130.16 226.531 132.085C226.606 133.372 226.784 134.528 227.067 135.552C227.354 136.574 227.727 137.438 228.186 138.145C228.644 138.848 229.177 139.374 229.783 139.724ZM241.799 148.609C240.765 148.007 239.863 147.182 239.093 146.135C238.324 145.088 237.711 143.856 237.253 142.44C236.795 141.023 236.518 139.475 236.42 137.794C236.323 136.119 236.434 134.8 236.754 133.837C237.078 132.876 237.588 132.296 238.285 132.095C238.987 131.897 239.85 132.094 240.876 132.687C241.901 133.279 242.799 134.101 243.569 135.153C244.338 136.2 244.951 137.429 245.408 138.841C245.87 140.25 246.149 141.792 246.246 143.467C246.344 145.153 246.233 146.479 245.914 147.447C245.595 148.41 245.086 148.995 244.39 149.2C243.693 149.401 242.829 149.204 241.799 148.609ZM241.682 146.594C242.59 147.118 243.27 147.017 243.721 146.291C244.177 145.567 244.349 144.239 244.237 142.307C244.162 141.024 243.981 139.872 243.694 138.85C243.411 137.826 243.039 136.96 242.576 136.25C242.117 135.538 241.588 135.009 240.99 134.664C240.087 134.142 239.408 134.246 238.952 134.975C238.497 135.704 238.323 137.03 238.43 138.955C238.505 140.242 238.684 141.398 238.967 142.422C239.254 143.444 239.626 144.308 240.085 145.015C240.543 145.718 241.076 146.244 241.682 146.594Z" fill="white"/>
</g>
<g filter="url(#filter4_d_6873_1591)">
<path d="M143.14 156.782L142.309 156.302L143.828 151.403L144.732 151.925L146.944 158.978L146.114 158.499L144.365 152.762L144.324 152.739L143.14 156.782ZM143.143 154.522L145.836 156.077L145.88 156.835L143.187 155.28L143.143 154.522ZM147.729 161.056L147.372 154.893L148.111 155.32L148.153 156.047L148.216 156.083C148.255 156.015 148.312 155.944 148.388 155.869C148.463 155.794 148.572 155.753 148.713 155.747C148.855 155.738 149.046 155.803 149.287 155.943C149.601 156.124 149.886 156.377 150.143 156.702C150.4 157.027 150.609 157.402 150.769 157.827C150.931 158.254 151.026 158.709 151.054 159.193C151.082 159.678 151.036 160.052 150.916 160.318C150.796 160.581 150.619 160.736 150.385 160.781C150.151 160.825 149.877 160.756 149.563 160.575C149.327 160.438 149.131 160.281 148.976 160.103C148.822 159.926 148.699 159.752 148.608 159.58C148.516 159.409 148.445 159.263 148.394 159.141L148.348 159.115L148.486 161.493L147.729 161.056ZM148.244 157.562C148.262 157.877 148.318 158.177 148.411 158.46C148.504 158.743 148.629 158.995 148.787 159.216C148.945 159.435 149.133 159.607 149.35 159.733C149.577 159.863 149.762 159.903 149.905 159.853C150.049 159.801 150.153 159.677 150.217 159.483C150.282 159.289 150.306 159.043 150.289 158.743C150.272 158.447 150.217 158.16 150.126 157.879C150.037 157.6 149.911 157.348 149.75 157.123C149.59 156.899 149.396 156.722 149.168 156.59C148.949 156.464 148.767 156.422 148.623 156.464C148.48 156.508 148.377 156.624 148.313 156.813C148.249 157.001 148.226 157.251 148.244 157.562ZM152.129 163.596L151.771 157.433L152.51 157.86L152.552 158.586L152.616 158.623C152.654 158.555 152.711 158.483 152.787 158.409C152.862 158.334 152.971 158.293 153.112 158.286C153.254 158.278 153.445 158.343 153.686 158.483C154 158.664 154.286 158.917 154.543 159.242C154.8 159.567 155.008 159.942 155.168 160.367C155.33 160.794 155.425 161.249 155.453 161.733C155.481 162.218 155.435 162.592 155.315 162.858C155.195 163.121 155.018 163.276 154.784 163.321C154.55 163.365 154.276 163.296 153.962 163.115C153.726 162.978 153.53 162.821 153.375 162.643C153.221 162.466 153.098 162.291 153.007 162.12C152.915 161.949 152.844 161.802 152.793 161.681L152.748 161.655L152.885 164.033L152.129 163.596ZM152.643 160.102C152.661 160.417 152.717 160.716 152.81 161C152.903 161.283 153.028 161.535 153.186 161.756C153.344 161.975 153.532 162.147 153.75 162.273C153.976 162.403 154.161 162.443 154.305 162.393C154.448 162.34 154.552 162.217 154.616 162.023C154.681 161.829 154.705 161.583 154.688 161.283C154.671 160.987 154.617 160.699 154.525 160.419C154.436 160.14 154.31 159.888 154.149 159.663C153.989 159.439 153.795 159.262 153.567 159.13C153.348 159.003 153.166 158.961 153.022 159.004C152.879 159.048 152.776 159.164 152.712 159.352C152.648 159.541 152.625 159.791 152.643 160.102ZM159.147 162.749L158.469 162.493C158.435 162.376 158.384 162.253 158.316 162.126C158.25 161.999 158.163 161.876 158.055 161.758C157.947 161.639 157.814 161.534 157.657 161.444C157.443 161.32 157.267 161.272 157.13 161.3C156.993 161.326 156.93 161.426 156.94 161.599C156.949 161.749 157.004 161.897 157.105 162.044C157.207 162.191 157.366 162.356 157.584 162.538L158.211 163.058C158.574 163.359 158.849 163.66 159.036 163.96C159.223 164.26 159.326 164.568 159.345 164.885C159.36 165.154 159.306 165.354 159.184 165.486C159.062 165.617 158.885 165.673 158.653 165.653C158.422 165.635 158.149 165.535 157.835 165.353C157.4 165.102 157.039 164.79 156.751 164.417C156.464 164.043 156.277 163.639 156.192 163.206L156.916 163.5C156.974 163.746 157.077 163.966 157.226 164.161C157.374 164.354 157.562 164.516 157.789 164.647C158.038 164.791 158.232 164.846 158.374 164.813C158.515 164.778 158.581 164.674 158.571 164.501C158.563 164.361 158.511 164.217 158.414 164.069C158.319 163.922 158.177 163.77 157.989 163.615L157.321 163.068C156.953 162.764 156.676 162.457 156.49 162.148C156.306 161.841 156.204 161.528 156.186 161.209C156.17 160.944 156.221 160.75 156.338 160.625C156.455 160.501 156.623 160.449 156.842 160.468C157.062 160.486 157.318 160.579 157.61 160.748C158.03 160.99 158.367 161.286 158.62 161.636C158.874 161.983 159.049 162.354 159.147 162.749ZM161.189 166.413L161.17 166.709C161.158 166.928 161.129 167.146 161.083 167.364C161.038 167.584 160.991 167.785 160.939 167.966C160.889 168.148 160.848 168.291 160.815 168.396L160.278 168.086C160.293 167.979 160.314 167.833 160.341 167.649C160.368 167.467 160.393 167.26 160.415 167.029C160.437 166.798 160.45 166.556 160.454 166.304L160.46 165.992L161.189 166.413ZM165.841 171.603C165.532 171.424 165.264 171.224 165.036 171.002C164.809 170.781 164.621 170.554 164.472 170.319C164.323 170.085 164.209 169.856 164.129 169.633L164.762 169.699C164.812 169.811 164.878 169.937 164.96 170.076C165.043 170.218 165.153 170.361 165.288 170.505C165.425 170.65 165.599 170.783 165.808 170.904C166.095 171.07 166.327 171.126 166.505 171.072C166.683 171.021 166.762 170.82 166.742 170.47L166.691 169.589L166.642 169.561C166.602 169.63 166.543 169.698 166.463 169.765C166.386 169.833 166.275 169.867 166.132 169.867C165.988 169.867 165.798 169.798 165.56 169.661C165.252 169.483 164.971 169.241 164.715 168.933C164.461 168.625 164.252 168.267 164.09 167.859C163.929 167.45 163.835 167.008 163.807 166.531C163.78 166.055 163.826 165.687 163.946 165.427C164.068 165.168 164.247 165.02 164.483 164.981C164.719 164.941 164.993 165.01 165.305 165.191C165.546 165.33 165.744 165.489 165.898 165.668C166.052 165.845 166.174 166.019 166.263 166.189C166.355 166.361 166.426 166.506 166.477 166.626L166.533 166.658L166.491 165.931L167.232 166.36L167.498 170.941C167.52 171.326 167.461 171.597 167.32 171.755C167.179 171.912 166.98 171.973 166.722 171.939C166.465 171.906 166.172 171.794 165.841 171.603ZM165.685 169.034C165.902 169.159 166.083 169.207 166.226 169.177C166.371 169.146 166.476 169.043 166.541 168.868C166.608 168.692 166.632 168.45 166.614 168.14C166.596 167.839 166.542 167.551 166.451 167.276C166.36 167.002 166.236 166.757 166.078 166.542C165.921 166.325 165.731 166.153 165.51 166.025C165.282 165.894 165.096 165.852 164.953 165.901C164.808 165.947 164.704 166.064 164.64 166.251C164.578 166.438 164.555 166.675 164.571 166.961C164.588 167.255 164.642 167.535 164.732 167.801C164.823 168.068 164.948 168.307 165.107 168.52C165.268 168.733 165.46 168.904 165.685 169.034ZM169.644 172.18C169.398 172.038 169.172 171.857 168.967 171.637C168.762 171.415 168.595 171.169 168.467 170.899C168.34 170.631 168.269 170.35 168.252 170.056C168.237 169.803 168.267 169.619 168.342 169.505C168.417 169.39 168.523 169.326 168.661 169.314C168.799 169.301 168.955 169.322 169.129 169.376C169.304 169.429 169.482 169.496 169.665 169.577C169.896 169.681 170.083 169.765 170.227 169.829C170.371 169.891 170.475 169.918 170.538 169.909C170.601 169.901 170.629 169.844 170.623 169.739L170.622 169.718C170.607 169.464 170.533 169.23 170.4 169.018C170.269 168.807 170.081 168.631 169.836 168.489C169.582 168.342 169.385 168.291 169.245 168.337C169.108 168.382 169.016 168.467 168.969 168.592L168.247 167.995C168.316 167.771 168.426 167.622 168.578 167.548C168.732 167.474 168.913 167.46 169.121 167.507C169.329 167.552 169.551 167.642 169.785 167.777C169.941 167.867 170.106 167.983 170.283 168.126C170.461 168.269 170.629 168.439 170.787 168.638C170.947 168.837 171.082 169.068 171.192 169.331C171.301 169.592 171.366 169.885 171.385 170.212L171.557 173.188L170.818 172.762L170.783 172.149L170.752 172.131C170.71 172.216 170.643 172.285 170.551 172.337C170.46 172.389 170.339 172.407 170.19 172.391C170.041 172.374 169.859 172.304 169.644 172.18ZM169.768 171.575C169.978 171.695 170.154 171.751 170.297 171.741C170.441 171.733 170.548 171.674 170.617 171.565C170.687 171.455 170.717 171.312 170.707 171.135L170.673 170.557C170.648 170.573 170.597 170.572 170.521 170.554C170.447 170.536 170.361 170.508 170.265 170.471C170.168 170.432 170.073 170.393 169.981 170.355C169.889 170.315 169.812 170.282 169.751 170.256C169.605 170.192 169.473 170.151 169.354 170.131C169.238 170.113 169.146 170.13 169.079 170.184C169.013 170.236 168.985 170.34 168.994 170.496C169.006 170.712 169.085 170.915 169.23 171.106C169.375 171.295 169.554 171.451 169.768 171.575ZM172.565 173.77L172.305 169.289L173.032 169.708L173.074 170.437L173.122 170.465C173.189 170.265 173.31 170.149 173.486 170.117C173.662 170.083 173.878 170.14 174.135 170.288C174.394 170.438 174.616 170.634 174.8 170.875C174.985 171.118 175.127 171.386 175.226 171.68L175.266 171.703C175.345 171.517 175.482 171.412 175.676 171.387C175.87 171.36 176.107 171.427 176.387 171.589C176.74 171.793 177.035 172.086 177.273 172.469C177.512 172.854 177.646 173.303 177.676 173.816L177.851 176.822L177.094 176.385L176.924 173.461C176.906 173.158 176.822 172.896 176.671 172.678C176.519 172.459 176.344 172.292 176.145 172.177C175.899 172.034 175.712 172.011 175.586 172.107C175.459 172.202 175.404 172.385 175.419 172.657L175.585 175.514L174.831 175.078L174.658 172.099C174.644 171.856 174.567 171.623 174.427 171.399C174.286 171.175 174.111 171.002 173.9 170.88C173.756 170.798 173.626 170.765 173.51 170.782C173.395 170.799 173.305 170.862 173.24 170.973C173.176 171.085 173.15 171.242 173.162 171.444L173.322 174.207L172.565 173.77ZM180.546 178.465C180.163 178.244 179.827 177.959 179.54 177.611C179.254 177.261 179.025 176.871 178.855 176.44C178.687 176.008 178.589 175.56 178.562 175.095C178.535 174.636 178.586 174.274 178.714 174.01C178.844 173.746 179.038 173.594 179.294 173.552C179.553 173.512 179.863 173.596 180.224 173.804C180.443 173.931 180.658 174.095 180.869 174.298C181.08 174.5 181.272 174.738 181.446 175.012C181.62 175.285 181.763 175.592 181.874 175.933C181.985 176.271 182.052 176.644 182.076 177.05L182.094 177.36L179.003 175.575L178.965 174.922L181.314 176.278C181.301 176.048 181.249 175.822 181.157 175.598C181.066 175.372 180.944 175.165 180.791 174.977C180.64 174.791 180.467 174.641 180.271 174.528C180.058 174.405 179.876 174.358 179.725 174.387C179.574 174.415 179.462 174.501 179.387 174.643C179.314 174.785 179.284 174.968 179.297 175.192L179.326 175.703C179.344 176.002 179.404 176.283 179.507 176.546C179.612 176.81 179.751 177.045 179.922 177.251C180.094 177.455 180.291 177.621 180.512 177.749C180.655 177.832 180.784 177.884 180.9 177.905C181.015 177.925 181.113 177.912 181.194 177.866C181.274 177.821 181.333 177.741 181.371 177.627L182.095 178.19C182.052 178.4 181.962 178.553 181.824 178.65C181.687 178.747 181.511 178.781 181.294 178.753C181.079 178.725 180.829 178.629 180.546 178.465ZM185.765 178.117L185.087 177.861C185.053 177.743 185.002 177.621 184.934 177.493C184.868 177.367 184.781 177.244 184.673 177.126C184.565 177.007 184.432 176.902 184.275 176.811C184.061 176.688 183.885 176.64 183.748 176.668C183.611 176.694 183.548 176.794 183.558 176.967C183.567 177.117 183.622 177.265 183.723 177.412C183.825 177.559 183.984 177.723 184.202 177.906L184.829 178.426C185.192 178.727 185.467 179.028 185.654 179.328C185.841 179.628 185.944 179.936 185.962 180.253C185.978 180.522 185.924 180.722 185.802 180.854C185.68 180.985 185.503 181.041 185.271 181.021C185.04 181.003 184.767 180.903 184.453 180.721C184.018 180.47 183.657 180.158 183.369 179.785C183.081 179.41 182.895 179.007 182.809 178.574L183.534 178.868C183.592 179.114 183.695 179.334 183.843 179.529C183.992 179.722 184.18 179.884 184.407 180.015C184.656 180.158 184.85 180.214 184.992 180.181C185.133 180.146 185.199 180.042 185.189 179.869C185.181 179.729 185.129 179.585 185.032 179.437C184.937 179.29 184.795 179.138 184.607 178.983L183.939 178.436C183.571 178.132 183.294 177.825 183.108 177.516C182.924 177.209 182.822 176.896 182.804 176.577C182.788 176.312 182.839 176.118 182.956 175.993C183.073 175.869 183.241 175.816 183.46 175.836C183.68 175.854 183.936 175.947 184.228 176.116C184.648 176.358 184.985 176.654 185.238 177.004C185.492 177.351 185.667 177.722 185.765 178.117ZM187.807 181.781L187.787 182.077C187.776 182.295 187.747 182.514 187.701 182.732C187.656 182.952 187.609 183.153 187.557 183.334C187.507 183.516 187.466 183.659 187.433 183.764L186.896 183.454C186.911 183.346 186.932 183.201 186.959 183.017C186.986 182.835 187.011 182.628 187.033 182.397C187.055 182.165 187.068 181.924 187.072 181.672L187.078 181.36L187.807 181.781ZM190.726 184.255L190.466 179.774L191.192 180.193L191.235 180.923L191.283 180.95C191.35 180.75 191.471 180.634 191.647 180.602C191.823 180.568 192.039 180.625 192.295 180.773C192.555 180.923 192.777 181.119 192.96 181.36C193.146 181.603 193.288 181.871 193.386 182.165L193.427 182.188C193.506 182.002 193.642 181.897 193.837 181.872C194.031 181.845 194.268 181.912 194.548 182.074C194.901 182.278 195.196 182.571 195.433 182.955C195.673 183.339 195.807 183.788 195.837 184.301L196.011 187.307L195.254 186.87L195.085 183.946C195.067 183.643 194.983 183.382 194.831 183.163C194.68 182.944 194.505 182.777 194.306 182.662C194.059 182.519 193.873 182.496 193.746 182.593C193.62 182.687 193.564 182.87 193.58 183.142L193.746 185.999L192.991 185.563L192.819 182.584C192.805 182.341 192.727 182.108 192.587 181.884C192.447 181.66 192.271 181.487 192.06 181.365C191.917 181.283 191.787 181.25 191.671 181.267C191.556 181.284 191.466 181.347 191.4 181.458C191.337 181.57 191.311 181.727 191.323 181.929L191.483 184.692L190.726 184.255ZM198.668 188.928C198.304 188.718 197.98 188.438 197.697 188.089C197.415 187.739 197.188 187.348 197.018 186.915C196.847 186.482 196.749 186.034 196.722 185.571C196.695 185.106 196.747 184.743 196.877 184.482C197.007 184.22 197.202 184.071 197.462 184.036C197.723 184 198.035 184.087 198.4 184.298C198.764 184.508 199.088 184.788 199.371 185.138C199.654 185.487 199.88 185.879 200.051 186.314C200.221 186.749 200.32 187.199 200.347 187.664C200.374 188.127 200.322 188.488 200.192 188.748C200.062 189.007 199.866 189.155 199.606 189.191C199.345 189.226 199.033 189.139 198.668 188.928ZM198.628 188.198C198.865 188.334 199.056 188.375 199.203 188.321C199.35 188.266 199.454 188.141 199.514 187.945C199.576 187.749 199.599 187.508 199.582 187.22C199.566 186.934 199.512 186.649 199.423 186.366C199.334 186.082 199.208 185.822 199.045 185.587C198.881 185.351 198.681 185.165 198.445 185.029C198.207 184.891 198.014 184.85 197.865 184.906C197.718 184.962 197.614 185.089 197.552 185.286C197.492 185.482 197.47 185.724 197.486 186.01C197.503 186.297 197.555 186.583 197.644 186.865C197.733 187.148 197.86 187.406 198.024 187.64C198.189 187.874 198.391 188.06 198.628 188.198ZM204.254 187.734L203.104 191.402L202.294 190.934L200.622 185.637L201.434 186.106L202.619 190.124L202.66 190.147L203.442 187.265L204.254 187.734ZM205.225 192.627L204.965 188.145L205.722 188.582L205.982 193.064L205.225 192.627ZM205.307 187.674C205.176 187.598 205.06 187.482 204.959 187.326C204.861 187.17 204.807 187.02 204.799 186.878C204.791 186.734 204.83 186.639 204.917 186.591C205.005 186.543 205.115 186.556 205.247 186.632C205.379 186.708 205.494 186.825 205.593 186.981C205.693 187.137 205.747 187.287 205.756 187.431C205.764 187.573 205.724 187.668 205.635 187.717C205.548 187.764 205.439 187.75 205.307 187.674ZM208.681 194.709C208.298 194.488 207.963 194.203 207.675 193.855C207.389 193.505 207.161 193.115 206.991 192.684C206.822 192.252 206.724 191.804 206.697 191.339C206.671 190.88 206.721 190.518 206.85 190.254C206.98 189.99 207.173 189.838 207.43 189.796C207.688 189.756 207.998 189.84 208.359 190.048C208.579 190.175 208.794 190.339 209.005 190.542C209.215 190.744 209.408 190.982 209.582 191.256C209.756 191.529 209.898 191.836 210.009 192.177C210.12 192.515 210.188 192.888 210.211 193.294L210.229 193.604L207.139 191.819L207.101 191.166L209.45 192.522C209.436 192.292 209.384 192.066 209.293 191.842C209.201 191.616 209.079 191.409 208.927 191.221C208.775 191.035 208.602 190.885 208.406 190.772C208.194 190.649 208.012 190.602 207.86 190.631C207.71 190.659 207.597 190.745 207.523 190.887C207.449 191.029 207.419 191.212 207.432 191.436L207.462 191.947C207.479 192.246 207.539 192.527 207.643 192.79C207.748 193.054 207.886 193.289 208.058 193.495C208.23 193.699 208.426 193.865 208.647 193.993C208.79 194.076 208.92 194.128 209.035 194.149C209.151 194.169 209.248 194.156 209.329 194.11C209.41 194.065 209.469 193.985 209.506 193.871L210.231 194.434C210.188 194.644 210.097 194.797 209.959 194.894C209.823 194.991 209.646 195.025 209.429 194.997C209.214 194.969 208.965 194.873 208.681 194.709ZM213.901 194.361L213.223 194.105C213.188 193.987 213.137 193.865 213.069 193.737C213.003 193.611 212.916 193.488 212.808 193.37C212.7 193.251 212.568 193.146 212.411 193.055C212.197 192.932 212.021 192.884 211.884 192.912C211.747 192.938 211.683 193.038 211.693 193.211C211.702 193.361 211.757 193.509 211.859 193.656C211.96 193.803 212.12 193.967 212.337 194.15L212.964 194.669C213.328 194.971 213.603 195.272 213.79 195.572C213.977 195.872 214.079 196.18 214.098 196.497C214.113 196.766 214.06 196.966 213.937 197.098C213.816 197.229 213.639 197.285 213.406 197.265C213.175 197.247 212.903 197.147 212.589 196.965C212.153 196.714 211.792 196.402 211.504 196.029C211.217 195.654 211.03 195.251 210.945 194.818L211.669 195.112C211.727 195.358 211.831 195.578 211.979 195.773C212.127 195.966 212.315 196.128 212.543 196.259C212.791 196.402 212.986 196.458 213.127 196.425C213.269 196.39 213.335 196.286 213.325 196.113C213.316 195.973 213.264 195.829 213.167 195.681C213.072 195.534 212.931 195.382 212.742 195.227L212.075 194.68C211.706 194.375 211.429 194.069 211.243 193.76C211.059 193.453 210.958 193.14 210.939 192.821C210.924 192.556 210.974 192.362 211.091 192.237C211.208 192.113 211.376 192.06 211.596 192.08C211.815 192.098 212.071 192.191 212.363 192.36C212.783 192.602 213.12 192.898 213.374 193.248C213.627 193.595 213.803 193.966 213.901 194.361ZM215.942 198.025L215.923 198.321C215.911 198.539 215.882 198.758 215.836 198.976C215.792 199.196 215.744 199.397 215.692 199.578C215.643 199.76 215.601 199.903 215.568 200.008L215.032 199.698C215.047 199.59 215.067 199.445 215.094 199.261C215.121 199.079 215.146 198.872 215.168 198.641C215.191 198.409 215.204 198.168 215.207 197.916L215.213 197.604L215.942 198.025ZM152.121 171.616L151.774 165.64L152.531 166.077L152.66 168.297L152.706 168.324C152.744 168.256 152.801 168.184 152.877 168.109C152.952 168.035 153.061 167.994 153.202 167.987C153.344 167.979 153.535 168.044 153.776 168.183C154.09 168.365 154.376 168.618 154.633 168.943C154.89 169.268 155.098 169.643 155.258 170.068C155.42 170.494 155.515 170.95 155.543 171.434C155.571 171.918 155.525 172.293 155.405 172.559C155.285 172.822 155.108 172.976 154.874 173.022C154.64 173.065 154.366 172.997 154.052 172.815C153.816 172.679 153.62 172.522 153.465 172.344C153.311 172.166 153.188 171.992 153.097 171.821C153.005 171.65 152.934 171.503 152.883 171.382L152.82 171.345L152.86 172.043L152.121 171.616ZM152.733 169.803C152.751 170.118 152.807 170.417 152.9 170.7C152.993 170.984 153.118 171.236 153.276 171.456C153.434 171.675 153.622 171.848 153.84 171.973C154.066 172.104 154.251 172.144 154.395 172.094C154.538 172.041 154.642 171.918 154.706 171.723C154.771 171.53 154.795 171.283 154.778 170.984C154.761 170.688 154.707 170.4 154.615 170.12C154.526 169.841 154.4 169.589 154.239 169.364C154.079 169.14 153.885 168.962 153.657 168.831C153.438 168.704 153.256 168.662 153.112 168.705C152.969 168.749 152.866 168.865 152.802 169.053C152.738 169.242 152.715 169.492 152.733 169.803ZM158.165 175.193C157.801 174.982 157.477 174.702 157.194 174.353C156.911 174.003 156.685 173.612 156.514 173.179C156.344 172.746 156.246 172.298 156.219 171.835C156.192 171.371 156.243 171.007 156.373 170.746C156.503 170.484 156.699 170.336 156.959 170.3C157.22 170.264 157.532 170.352 157.897 170.562C158.261 170.773 158.585 171.052 158.868 171.402C159.15 171.751 159.377 172.144 159.547 172.578C159.718 173.013 159.816 173.463 159.843 173.928C159.87 174.391 159.819 174.752 159.689 175.012C159.558 175.271 159.363 175.419 159.103 175.455C158.842 175.491 158.53 175.403 158.165 175.193ZM158.125 174.462C158.361 174.598 158.553 174.639 158.7 174.585C158.847 174.531 158.95 174.405 159.011 174.209C159.073 174.013 159.096 173.772 159.079 173.484C159.062 173.198 159.009 172.913 158.919 172.63C158.831 172.346 158.705 172.086 158.541 171.851C158.378 171.615 158.178 171.429 157.941 171.293C157.703 171.156 157.51 171.115 157.362 171.17C157.215 171.226 157.111 171.353 157.049 171.55C156.988 171.747 156.966 171.988 156.983 172.274C157 172.562 157.052 172.847 157.14 173.129C157.23 173.412 157.357 173.67 157.52 173.904C157.686 174.138 157.887 174.324 158.125 174.462ZM162.46 177.672C162.095 177.462 161.772 177.182 161.489 176.833C161.206 176.483 160.98 176.092 160.809 175.659C160.639 175.226 160.54 174.778 160.514 174.315C160.487 173.85 160.538 173.487 160.668 173.225C160.798 172.964 160.993 172.815 161.254 172.78C161.514 172.744 161.827 172.831 162.191 173.042C162.556 173.252 162.879 173.532 163.162 173.881C163.445 174.231 163.672 174.623 163.842 175.058C164.013 175.493 164.111 175.943 164.138 176.408C164.165 176.871 164.113 177.232 163.983 177.492C163.853 177.751 163.658 177.899 163.397 177.934C163.137 177.97 162.824 177.883 162.46 177.672ZM162.42 176.941C162.656 177.078 162.848 177.119 162.995 177.065C163.142 177.01 163.245 176.885 163.306 176.688C163.368 176.493 163.39 176.251 163.374 175.963C163.357 175.678 163.304 175.393 163.214 175.11C163.126 174.826 163 174.566 162.836 174.33C162.672 174.095 162.472 173.909 162.236 173.773C161.998 173.635 161.805 173.594 161.657 173.649C161.51 173.706 161.405 173.833 161.343 174.03C161.283 174.226 161.261 174.468 161.278 174.753C161.294 175.041 161.347 175.326 161.435 175.608C161.525 175.892 161.652 176.15 161.815 176.384C161.98 176.618 162.182 176.804 162.42 176.941ZM165.72 177.998L165.653 176.93L165.784 177.006L167.224 176.003L168.13 176.527L166.488 177.666L166.369 177.597L165.72 177.998ZM165.112 179.116L164.765 173.14L165.522 173.577L165.869 179.553L165.112 179.116ZM167.567 180.534L166.051 177.6L166.537 177.291L168.496 181.07L167.567 180.534ZM171.796 179.701L171.118 179.445C171.084 179.327 171.033 179.205 170.965 179.077C170.899 178.951 170.812 178.828 170.704 178.709C170.596 178.591 170.463 178.486 170.307 178.395C170.092 178.272 169.917 178.224 169.78 178.252C169.642 178.278 169.579 178.378 169.589 178.551C169.598 178.701 169.653 178.849 169.754 178.996C169.856 179.143 170.015 179.307 170.233 179.489L170.86 180.009C171.223 180.311 171.499 180.612 171.686 180.912C171.873 181.212 171.975 181.52 171.994 181.837C172.009 182.105 171.956 182.306 171.833 182.438C171.712 182.569 171.535 182.625 171.302 182.605C171.071 182.586 170.798 182.486 170.484 182.305C170.049 182.054 169.688 181.742 169.4 181.369C169.113 180.994 168.926 180.591 168.841 180.158L169.565 180.452C169.623 180.698 169.726 180.918 169.875 181.113C170.023 181.306 170.211 181.468 170.439 181.599C170.687 181.742 170.881 181.798 171.023 181.765C171.165 181.73 171.23 181.626 171.22 181.453C171.212 181.313 171.16 181.169 171.063 181.021C170.968 180.874 170.826 180.722 170.638 180.566L169.97 180.02C169.602 179.715 169.325 179.409 169.139 179.1C168.955 178.793 168.853 178.48 168.835 178.161C168.82 177.896 168.87 177.701 168.987 177.577C169.104 177.453 169.272 177.4 169.492 177.42C169.711 177.438 169.967 177.531 170.259 177.699C170.679 177.942 171.016 178.238 171.269 178.587C171.523 178.935 171.698 179.306 171.796 179.701ZM173.838 183.364L173.819 183.661C173.807 183.879 173.778 184.098 173.732 184.316C173.688 184.536 173.64 184.737 173.588 184.918C173.538 185.1 173.497 185.243 173.464 185.348L172.927 185.038C172.942 184.93 172.963 184.785 172.99 184.601C173.017 184.419 173.042 184.212 173.064 183.981C173.087 183.749 173.099 183.508 173.103 183.256L173.109 182.944L173.838 183.364ZM177.894 186.592C177.648 186.45 177.422 186.268 177.217 186.048C177.012 185.827 176.845 185.581 176.717 185.311C176.59 185.043 176.518 184.762 176.501 184.468C176.487 184.215 176.517 184.031 176.592 183.916C176.667 183.802 176.773 183.738 176.911 183.726C177.049 183.713 177.205 183.734 177.379 183.787C177.554 183.841 177.732 183.908 177.915 183.989C178.146 184.093 178.333 184.176 178.477 184.241C178.621 184.303 178.725 184.33 178.788 184.321C178.851 184.313 178.879 184.256 178.873 184.151L178.872 184.13C178.857 183.875 178.783 183.642 178.65 183.43C178.519 183.219 178.331 183.042 178.086 182.901C177.832 182.754 177.635 182.703 177.495 182.749C177.358 182.793 177.265 182.878 177.219 183.004L176.497 182.406C176.565 182.183 176.676 182.034 176.828 181.96C176.982 181.886 177.163 181.872 177.371 181.919C177.579 181.964 177.801 182.054 178.035 182.189C178.191 182.279 178.356 182.395 178.533 182.538C178.71 182.681 178.879 182.851 179.037 183.049C179.197 183.249 179.332 183.48 179.442 183.743C179.551 184.004 179.616 184.297 179.635 184.624L179.807 187.6L179.068 187.174L179.033 186.561L179.002 186.543C178.96 186.628 178.893 186.696 178.801 186.749C178.71 186.801 178.589 186.819 178.44 186.802C178.291 186.786 178.109 186.716 177.894 186.592ZM178.018 185.987C178.228 186.107 178.404 186.163 178.547 186.153C178.691 186.145 178.798 186.086 178.867 185.977C178.937 185.867 178.967 185.724 178.957 185.547L178.923 184.969C178.898 184.985 178.847 184.984 178.771 184.966C178.697 184.948 178.611 184.92 178.514 184.883C178.418 184.844 178.323 184.805 178.231 184.767C178.139 184.727 178.062 184.694 178 184.668C177.855 184.604 177.723 184.563 177.604 184.543C177.487 184.525 177.395 184.542 177.328 184.596C177.263 184.648 177.235 184.752 177.244 184.908C177.256 185.124 177.335 185.327 177.48 185.518C177.624 185.707 177.804 185.863 178.018 185.987ZM181.418 185.958L181.572 188.619L180.815 188.182L180.555 183.701L181.282 184.12L181.324 184.849L181.372 184.877C181.448 184.692 181.577 184.582 181.759 184.548C181.943 184.515 182.181 184.583 182.473 184.751C182.738 184.904 182.974 185.102 183.18 185.346C183.387 185.587 183.552 185.865 183.676 186.179C183.801 186.494 183.873 186.836 183.895 187.205L184.06 190.056L183.303 189.619L183.144 186.873C183.125 186.548 183.037 186.252 182.88 185.985C182.722 185.715 182.515 185.506 182.259 185.358C182.083 185.257 181.93 185.21 181.798 185.219C181.668 185.229 181.568 185.295 181.499 185.419C181.431 185.541 181.404 185.721 181.418 185.958ZM186.536 191.57C186.222 191.388 185.936 191.134 185.679 190.807C185.424 190.479 185.216 190.103 185.056 189.678C184.898 189.251 184.804 188.796 184.776 188.312C184.748 187.827 184.794 187.454 184.914 187.19C185.036 186.928 185.215 186.776 185.45 186.735C185.686 186.695 185.96 186.765 186.272 186.945C186.514 187.084 186.71 187.243 186.863 187.421C187.016 187.598 187.137 187.771 187.226 187.941C187.315 188.111 187.386 188.256 187.437 188.376L187.482 188.402L187.353 186.182L188.11 186.619L188.457 192.594L187.718 192.168L187.677 191.47L187.614 191.434C187.574 191.503 187.515 191.574 187.436 191.646C187.358 191.72 187.248 191.76 187.105 191.766C186.962 191.771 186.772 191.706 186.536 191.57ZM186.66 190.922C186.877 191.048 187.057 191.088 187.2 191.042C187.344 190.996 187.448 190.876 187.512 190.684C187.577 190.492 187.601 190.239 187.583 189.924C187.565 189.612 187.51 189.318 187.419 189.039C187.328 188.761 187.203 188.514 187.046 188.297C186.888 188.08 186.698 187.907 186.477 187.78C186.25 187.648 186.064 187.607 185.92 187.655C185.776 187.703 185.672 187.823 185.608 188.014C185.546 188.205 185.523 188.449 185.54 188.744C185.557 189.044 185.612 189.336 185.703 189.62C185.795 189.904 185.921 190.16 186.081 190.388C186.242 190.614 186.435 190.793 186.66 190.922ZM191.423 194.307L191.163 189.825L191.89 190.245L191.932 190.974L191.98 191.002C192.047 190.802 192.168 190.685 192.344 190.654C192.52 190.62 192.736 190.677 192.993 190.825C193.253 190.975 193.474 191.171 193.658 191.412C193.843 191.654 193.985 191.922 194.084 192.216L194.124 192.24C194.203 192.054 194.34 191.949 194.534 191.923C194.728 191.896 194.965 191.964 195.245 192.126C195.598 192.329 195.893 192.623 196.131 193.006C196.37 193.39 196.504 193.839 196.534 194.353L196.709 197.358L195.952 196.921L195.782 193.998C195.765 193.694 195.68 193.433 195.529 193.214C195.377 192.995 195.202 192.828 195.003 192.713C194.757 192.571 194.57 192.548 194.444 192.644C194.317 192.738 194.262 192.922 194.277 193.194L194.443 196.05L193.689 195.615L193.516 192.636C193.502 192.393 193.425 192.159 193.285 191.935C193.144 191.712 192.969 191.539 192.758 191.417C192.614 191.334 192.485 191.301 192.368 191.319C192.253 191.335 192.163 191.399 192.098 191.51C192.034 191.621 192.008 191.778 192.02 191.981L192.18 194.744L191.423 194.307ZM199.366 198.98C199.001 198.77 198.678 198.49 198.395 198.14C198.112 197.791 197.885 197.4 197.715 196.967C197.545 196.534 197.446 196.086 197.42 195.623C197.393 195.158 197.444 194.795 197.574 194.533C197.704 194.272 197.899 194.123 198.16 194.087C198.42 194.052 198.733 194.139 199.097 194.349C199.462 194.56 199.785 194.84 200.068 195.189C200.351 195.539 200.578 195.931 200.748 196.366C200.919 196.801 201.017 197.25 201.044 197.715C201.071 198.178 201.019 198.54 200.889 198.799C200.759 199.059 200.564 199.206 200.303 199.242C200.043 199.278 199.73 199.19 199.366 198.98ZM199.326 198.249C199.562 198.385 199.754 198.427 199.901 198.372C200.048 198.318 200.151 198.193 200.212 197.996C200.274 197.801 200.296 197.559 200.28 197.271C200.263 196.985 200.21 196.701 200.12 196.418C200.032 196.133 199.906 195.874 199.742 195.638C199.578 195.403 199.378 195.217 199.142 195.08C198.904 194.943 198.711 194.902 198.563 194.957C198.416 195.013 198.311 195.14 198.249 195.338C198.189 195.534 198.167 195.775 198.184 196.061C198.2 196.349 198.253 196.634 198.341 196.916C198.431 197.199 198.558 197.458 198.721 197.691C198.886 197.926 199.088 198.112 199.326 198.249ZM202.018 200.424L201.758 195.942L202.489 196.364L202.531 197.076L202.571 197.099C202.628 196.899 202.742 196.782 202.913 196.747C203.085 196.711 203.285 196.759 203.513 196.89C203.56 196.918 203.616 196.952 203.68 196.993C203.746 197.035 203.798 197.069 203.836 197.096L203.884 197.931C203.853 197.904 203.799 197.862 203.72 197.805C203.642 197.747 203.564 197.695 203.486 197.65C203.307 197.547 203.15 197.499 203.015 197.505C202.882 197.511 202.779 197.567 202.707 197.674C202.635 197.779 202.605 197.929 202.616 198.124L202.775 200.861L202.018 200.424ZM206.295 202.981C205.912 202.759 205.577 202.475 205.289 202.126C205.003 201.777 204.775 201.386 204.605 200.955C204.436 200.523 204.338 200.075 204.311 199.61C204.285 199.151 204.335 198.789 204.464 198.525C204.593 198.261 204.787 198.109 205.044 198.067C205.302 198.027 205.612 198.111 205.973 198.319C206.193 198.446 206.408 198.61 206.618 198.813C206.829 199.015 207.022 199.253 207.196 199.527C207.37 199.8 207.512 200.107 207.623 200.448C207.734 200.786 207.802 201.159 207.825 201.566L207.843 201.875L204.752 200.09L204.715 199.437L207.064 200.793C207.05 200.563 206.998 200.337 206.907 200.113C206.815 199.887 206.693 199.681 206.54 199.493C206.389 199.306 206.216 199.156 206.02 199.043C205.808 198.92 205.625 198.873 205.474 198.902C205.324 198.93 205.211 199.016 205.136 199.159C205.063 199.301 205.033 199.483 205.046 199.707L205.075 200.218C205.093 200.517 205.153 200.798 205.256 201.061C205.361 201.325 205.5 201.56 205.672 201.766C205.843 201.971 206.04 202.137 206.261 202.264C206.404 202.347 206.534 202.399 206.649 202.421C206.764 202.44 206.862 202.427 206.943 202.382C207.023 202.336 207.082 202.256 207.12 202.143L207.845 202.705C207.801 202.915 207.711 203.069 207.573 203.166C207.437 203.262 207.26 203.296 207.043 203.269C206.828 203.24 206.579 203.144 206.295 202.981Z" fill="white"/>
</g>
<g filter="url(#filter5_d_6873_1591)">
<path d="M157.225 128.513C154.059 126.685 151.647 127.97 151.869 131.795C152.089 135.6 154.824 139.876 157.99 141.704C161.155 143.532 163.567 142.227 163.346 138.422C163.125 134.616 160.39 130.34 157.225 128.513ZM157.839 139.109C156.113 138.112 154.51 135.583 154.374 133.242C154.236 130.861 155.632 130.101 157.375 131.108C159.119 132.115 160.702 134.594 160.84 136.975C160.959 139.307 159.566 140.106 157.839 139.109ZM172.681 138.87L172.597 138.821C171.993 137.718 170.869 136.39 169.497 135.598C166.637 133.947 164.181 135.339 164.397 139.047C164.61 142.735 167.402 147.138 170.263 148.79C171.634 149.582 172.677 149.505 173.189 149.027L173.273 149.076L173.329 150.032C173.475 152.549 172.385 153.221 170.506 152.137C168.966 151.247 167.944 149.431 167.492 148.133L165.37 147.926C166.098 150.044 167.898 153.158 170.675 154.761C173.62 156.462 175.993 155.908 175.71 151.03L175.023 139.184L172.636 137.806L172.681 138.87ZM170.332 146.322C168.606 145.325 167.052 142.806 166.919 140.503C166.784 138.181 168.141 137.324 169.868 138.321C171.578 139.308 173.014 141.778 173.148 144.1C173.283 146.422 172.042 147.309 170.332 146.322ZM144.698 121.28C141.532 119.452 139.12 120.738 139.342 124.563C139.562 128.368 142.297 132.644 145.463 134.472C148.629 136.299 151.04 134.994 150.819 131.189C150.598 127.384 147.863 123.108 144.698 121.28ZM145.312 131.876C143.586 130.879 141.983 128.351 141.847 126.009C141.709 123.628 143.105 122.869 144.848 123.876C146.575 124.872 148.176 127.362 148.314 129.743C148.433 132.075 147.039 132.873 145.312 131.876ZM129.901 114.68L130.062 117.47L135.869 120.822C135.791 122.305 135.401 123.193 134.753 123.592C133.964 124.079 132.705 124.39 130.386 123.051C126.814 120.989 123.829 116.059 123.59 111.941C123.351 107.824 125.952 106.119 129.524 108.181C131.453 109.296 132.909 110.985 134.023 112.703L135.619 111.719C134.07 109.279 132.069 106.935 129.361 105.371C124.468 102.547 120.605 104.767 120.932 110.407C121.259 116.047 125.64 123.027 130.549 125.861C133.19 127.386 135.13 127.544 136.579 126.57C138.079 125.644 138.42 123.332 138.298 121.244C138.261 120.6 138.175 119.966 138.061 119.41L129.901 114.68ZM190.97 152.069C190.41 150.313 188.797 146.76 185.834 145.049C182.889 143.349 180.589 144.605 180.817 148.527C181.031 152.215 183.62 156.521 186.87 158.397C189.494 159.912 190.91 158.938 191.474 158.226L189.44 155.6C188.861 156.321 188.005 156.525 186.736 155.792C185.466 155.059 184.512 153.848 183.844 152.199L191.284 152.967L190.97 152.069ZM183.31 149.759C183.094 147.164 184.797 146.902 186.083 147.645C187.082 148.221 187.961 149.276 188.281 150.271L183.31 149.759ZM177.452 152.563L179.957 154.01L178.833 134.632L176.327 133.186L177.452 152.563ZM202.126 148.08L196.116 144.611L197.241 163.988L199.746 165.435L199.32 158.097L202.824 160.121C205.601 161.723 208.208 160.985 207.993 157.277C207.779 153.589 204.902 149.683 202.126 148.08ZM202.734 157.428L199.162 155.365L198.777 148.731L202.349 150.793C204.228 151.878 205.398 154.289 205.487 155.811C205.575 157.333 204.613 158.513 202.734 157.428ZM210.157 171.445L212.662 172.892L211.538 153.514L209.033 152.068L210.157 171.445ZM218.079 163.609C216.268 162.563 214.425 162.386 213.765 163.985L216.062 166.349C216.474 165.549 217.334 165.706 218.265 166.244C219.568 166.996 220.941 168.656 221.05 170.266L221.062 170.461C220.588 169.905 219.597 168.899 218.395 168.205C215.991 166.817 213.642 166.932 213.807 169.781C213.957 172.376 216.017 175.169 218.235 176.449C219.928 177.426 220.808 177.086 221.325 176.403L221.409 176.452L221.496 177.955L223.917 179.352L223.486 171.917C223.304 168.493 220.957 165.271 218.079 163.609ZM218.391 174.068C217.562 173.59 216.401 172.466 216.333 171.296C216.245 169.793 217.635 170.048 218.87 170.762C219.971 171.397 220.511 171.973 221.193 172.725C221.111 174.413 219.847 174.909 218.391 174.068ZM232.036 172.082L229.646 178.831L229.561 178.782L226.094 168.652L223.386 167.088L228.536 181.416L226.36 186.497L228.984 188.011L234.83 173.714L232.037 172.102L232.036 172.082Z" fill="white"/>
</g>
<path d="M111.136 69.8344C111.498 70.0434 111.811 70.4304 111.967 70.7432L111.945 70.3562L112.496 70.6747L112.663 73.5469L112.266 73.3177C112.179 73.2672 112.104 73.1467 112.098 73.0466L112.086 72.8398C111.96 72.9924 111.671 73.0324 111.309 72.8234C110.621 72.4257 110.059 71.4503 110.012 70.6296C109.964 69.809 110.447 69.4368 111.136 69.8344ZM111.269 70.4655C110.822 70.2077 110.542 70.4361 110.572 70.9532C110.602 71.4702 110.926 72.0474 111.375 72.3069C111.822 72.5647 112.102 72.3363 112.072 71.8193C112.042 71.3022 111.718 70.725 111.269 70.4655ZM113.124 71.0369L113.678 71.3571L113.701 71.7474C113.836 71.5481 114.113 71.5531 114.44 71.7419C115.024 72.0789 115.427 72.7666 115.47 73.4972L115.57 75.2252L115.173 74.996C115.085 74.9455 115.011 74.825 115.005 74.7249L114.921 73.2804C114.895 72.8267 114.677 72.4336 114.356 72.2482C113.989 72.0359 113.727 72.2011 113.763 72.8149L113.845 74.2293L113.448 74.0002C113.361 73.9496 113.286 73.8291 113.28 73.729L113.124 71.0369ZM117.049 73.2483C117.411 73.4572 117.724 73.8443 117.88 74.157L117.775 72.3356L118.326 72.6541L118.576 76.9641L118.179 76.7349C118.092 76.6844 118.017 76.5639 118.011 76.4638L117.999 76.257C117.872 76.4063 117.581 76.4445 117.219 76.2356C116.531 75.8379 115.969 74.8624 115.922 74.0418C115.877 73.2228 116.36 72.8506 117.049 73.2483ZM117.181 73.8793C116.735 73.6215 116.455 73.8499 116.485 74.367C116.515 74.8841 116.839 75.4613 117.288 75.7208C117.735 75.9786 118.015 75.7502 117.985 75.2331C117.955 74.716 117.628 74.1371 117.181 73.8793ZM119.037 74.4508L119.588 74.7693L119.618 75.2797C119.695 75.0083 119.963 74.9566 120.249 75.1217C120.319 75.1622 120.39 75.2093 120.467 75.2698L120.504 75.9203C120.406 75.8313 120.326 75.7658 120.224 75.7068C119.906 75.5232 119.637 75.6616 119.671 76.2387L119.752 77.6398L119.355 77.4106C119.268 77.3601 119.193 77.2396 119.187 77.1395L119.031 74.4474L119.037 74.4508ZM122.131 79.0715C121.387 78.6418 120.777 77.651 120.728 76.817C120.68 75.983 121.214 75.6528 121.958 76.0825C122.702 76.5122 123.313 77.5029 123.361 78.3369C123.409 79.1709 122.876 79.5011 122.131 79.0715ZM122.097 78.4843C122.541 78.7405 122.827 78.5221 122.798 78.0117C122.768 77.5013 122.433 76.924 121.992 76.6696C121.545 76.4118 121.256 76.6285 121.286 77.1389C121.315 77.6493 121.651 78.2265 122.097 78.4843ZM123.965 76.6899C123.764 76.5736 123.583 76.2857 123.57 76.0522C123.556 75.822 123.718 75.7313 123.916 75.8459C124.123 75.9655 124.295 76.2483 124.308 76.4785C124.322 76.7154 124.172 76.8095 123.965 76.6899ZM123.727 77.1586L124.279 77.4771L124.445 80.3493L124.051 80.1218C123.964 80.0713 123.889 79.9508 123.883 79.8507L123.727 77.1586ZM125.942 78.3825C126.304 78.5915 126.617 78.9785 126.773 79.2913L126.667 77.4699L127.219 77.7883L127.469 82.0983L127.072 81.8692C126.985 81.8186 126.91 81.6981 126.904 81.598L126.892 81.3912C126.765 81.5405 126.474 81.5788 126.112 81.3698C125.423 80.9722 124.862 79.9967 124.814 79.1761C124.77 78.3571 125.253 77.9849 125.942 78.3825ZM126.077 79.0153C125.631 78.7575 125.351 78.9859 125.381 79.5029C125.411 80.02 125.735 80.5972 126.184 80.8567C126.631 81.1145 126.911 80.8861 126.881 80.369C126.851 79.852 126.524 79.2731 126.077 79.0153Z" fill="white"/>
<path d="M122.175 69.572C121.776 69.3413 121.43 68.7837 121.404 68.327C121.377 67.8704 121.68 67.687 122.079 67.9177C122.479 68.1483 122.824 68.706 122.851 69.1626C122.877 69.6193 122.575 69.8026 122.175 69.572ZM114.207 64.9718C113.808 64.7412 113.462 64.1835 113.436 63.7269C113.409 63.2702 113.712 63.0869 114.112 63.3175C114.511 63.5482 114.857 64.1058 114.883 64.5625C114.91 65.0191 114.607 65.2025 114.207 64.9718ZM122.144 64.7571L123.425 62.7408C123.499 62.625 123.434 62.3877 123.285 62.2102C123.137 62.0328 122.959 61.9886 122.886 62.1045L121.591 64.1465C120.441 62.9165 119.171 61.8667 117.837 61.0964C116.503 60.3261 115.263 59.9267 114.181 59.8598L112.551 56.1292C112.458 55.9176 112.274 55.7528 112.136 55.7649C111.998 55.777 111.958 55.9533 112.05 56.1649L113.655 59.8481C111.272 59.9629 109.742 61.8442 109.69 65.0866L127.005 75.0833C126.567 71.5666 124.713 67.7312 122.144 64.7571Z" fill="white"/>
<mask id="path-13-inside-1_6873_1591" fill="white">
<path d="M104.909 175.632C104.778 173.363 106.267 172.445 108.235 173.581L255.692 258.715C257.66 259.852 259.362 262.612 259.494 264.881L266.167 379.915L111.582 290.665L104.909 175.632Z"/>
</mask>
<path d="M104.909 175.632C104.778 173.363 106.267 172.445 108.235 173.581L255.692 258.715C257.66 259.852 259.362 262.612 259.494 264.881L266.167 379.915L111.582 290.665L104.909 175.632Z" fill="white"/>
<path d="M104.909 175.632C104.761 173.079 106.436 172.046 108.651 173.325L255.216 257.945C257.431 259.223 259.346 262.329 259.494 264.881L259.494 264.881C259.379 262.896 257.69 260.365 255.721 259.229L108.265 174.095C106.296 172.958 104.794 173.646 104.909 175.632L104.909 175.632ZM266.167 379.915L111.582 290.665L266.167 379.915ZM111.582 290.665L104.671 171.523L111.582 290.665ZM259.256 260.773L266.167 379.915L259.256 260.773Z" fill="white" fill-opacity="0.1" mask="url(#path-13-inside-1_6873_1591)"/>
<path d="M231.691 343.946C230.578 343.303 229.73 343.755 229.808 345.1C229.885 346.438 230.847 347.941 231.96 348.584C233.073 349.226 233.92 348.767 233.843 347.43C233.765 346.092 232.804 344.588 231.691 343.946ZM231.907 347.671C231.3 347.321 230.736 346.432 230.688 345.608C230.64 344.772 231.131 344.504 231.744 344.858C232.357 345.212 232.913 346.084 232.962 346.921C233.004 347.741 232.514 348.022 231.907 347.671ZM237.125 347.587L237.095 347.57C236.883 347.182 236.487 346.715 236.005 346.437C235 345.856 234.136 346.346 234.212 347.649C234.287 348.946 235.269 350.494 236.274 351.075C236.756 351.353 237.123 351.326 237.303 351.158L237.333 351.175L237.352 351.511C237.404 352.396 237.02 352.633 236.36 352.251C235.818 351.939 235.459 351.3 235.3 350.844L234.554 350.771C234.81 351.516 235.443 352.611 236.419 353.174C237.455 353.772 238.289 353.577 238.189 351.862L237.948 347.698L237.109 347.213L237.125 347.587ZM236.299 350.207C235.692 349.856 235.146 348.971 235.099 348.161C235.051 347.345 235.529 347.044 236.136 347.394C236.737 347.741 237.241 348.609 237.289 349.426C237.336 350.242 236.9 350.554 236.299 350.207ZM227.287 341.403C226.174 340.761 225.326 341.213 225.404 342.557C225.481 343.895 226.443 345.398 227.556 346.041C228.669 346.684 229.516 346.225 229.439 344.887C229.361 343.549 228.4 342.046 227.287 341.403ZM227.503 345.129C226.896 344.778 226.332 343.889 226.284 343.066C226.236 342.229 226.727 341.962 227.34 342.316C227.947 342.666 228.509 343.541 228.558 344.378C228.6 345.198 228.11 345.479 227.503 345.129ZM222.085 339.083L222.141 340.064L224.183 341.242C224.155 341.764 224.018 342.076 223.791 342.216C223.513 342.387 223.071 342.497 222.255 342.026C221 341.301 219.95 339.568 219.866 338.12C219.782 336.673 220.696 336.073 221.952 336.798C222.63 337.19 223.142 337.784 223.534 338.388L224.095 338.042C223.55 337.184 222.847 336.36 221.895 335.81C220.175 334.817 218.817 335.598 218.932 337.581C219.047 339.563 220.587 342.017 222.313 343.014C223.241 343.55 223.923 343.605 224.432 343.263C224.96 342.938 225.079 342.125 225.037 341.391C225.024 341.164 224.994 340.941 224.953 340.746L222.085 339.083ZM243.554 352.228C243.357 351.61 242.79 350.361 241.749 349.76C240.713 349.162 239.905 349.603 239.985 350.982C240.06 352.279 240.97 353.793 242.113 354.452C243.035 354.985 243.533 354.642 243.732 354.392L243.017 353.469C242.813 353.722 242.512 353.794 242.066 353.536C241.619 353.279 241.284 352.853 241.049 352.273L243.665 352.543L243.554 352.228ZM240.861 351.415C240.785 350.503 241.384 350.411 241.836 350.672C242.187 350.875 242.496 351.246 242.609 351.596L240.861 351.415ZM238.802 352.401L239.682 352.91L239.287 346.097L238.406 345.589L238.802 352.401ZM247.476 350.825L245.364 349.605L245.759 356.418L246.64 356.926L246.49 354.347L247.722 355.058C248.698 355.622 249.615 355.362 249.539 354.058C249.464 352.762 248.452 351.389 247.476 350.825ZM247.69 354.111L246.434 353.386L246.299 351.054L247.555 351.779C248.215 352.16 248.627 353.008 248.658 353.543C248.689 354.078 248.351 354.493 247.69 354.111ZM250.3 359.04L251.18 359.548L250.785 352.736L249.904 352.227L250.3 359.04ZM253.085 356.285C252.448 355.917 251.8 355.855 251.568 356.417L252.376 357.248C252.52 356.967 252.823 357.022 253.15 357.211C253.608 357.475 254.091 358.059 254.129 358.625L254.133 358.694C253.967 358.498 253.618 358.144 253.196 357.9C252.351 357.412 251.525 357.453 251.583 358.454C251.636 359.367 252.36 360.348 253.14 360.799C253.735 361.142 254.044 361.022 254.226 360.783L254.256 360.8L254.286 361.328L255.137 361.819L254.986 359.205C254.922 358.001 254.097 356.869 253.085 356.285ZM253.195 359.962C252.903 359.793 252.495 359.398 252.471 358.987C252.44 358.459 252.929 358.548 253.363 358.799C253.75 359.022 253.94 359.225 254.18 359.489C254.151 360.083 253.706 360.257 253.195 359.962ZM257.991 359.263L257.151 361.636L257.122 361.619L255.903 358.057L254.95 357.508L256.761 362.545L255.996 364.331L256.919 364.864L258.974 359.837L257.992 359.27L257.991 359.263Z" fill="#7D746B"/>
<path d="M162.443 227.365C161.757 227.832 161.395 228.981 161.499 230.768L165.234 295.149C165.337 296.936 165.862 298.596 166.652 299.916L166.849 300.236L196.058 282.224L196.008 281.373L162.613 227.216L162.443 227.365Z" fill="url(#paint4_linear_6873_1591)"/>
<path d="M207.166 300.276L196.058 282.224L196.008 281.373L205.756 275.362L205.987 275.66L218.822 290.885C222.499 295.228 222.719 299.016 219.311 299.31L207.414 300.255L207.166 300.276Z" fill="url(#paint5_linear_6873_1591)"/>
<path d="M207.414 300.255L196.033 281.799L166.651 299.917C167.877 301.981 169.846 303.324 171.903 303.113L207.414 300.255Z" fill="url(#paint6_linear_6873_1591)"/>
<path d="M205.989 275.703L167.674 230.222C165.415 227.56 163.505 226.622 162.442 227.366L196.035 281.842L205.989 275.703Z" fill="url(#paint7_linear_6873_1591)"/>
<path opacity="0.2" d="M207.142 299.851L171.88 302.687C169.892 302.855 168.078 301.726 166.825 299.81L166.653 299.916L166.85 300.236C168.103 302.152 169.953 303.302 171.905 303.113L207.416 300.255L207.142 299.851Z" fill="black"/>
<path opacity="0.12" d="M166.627 299.491C165.837 298.171 165.313 296.511 165.209 294.724L165.234 295.149C165.338 296.937 165.862 298.597 166.652 299.916L166.824 299.81L166.627 299.491ZM219.25 298.863L207.141 299.851L207.378 300.234L219.275 299.288C220.98 299.162 221.777 298.142 221.688 296.61C221.622 297.929 220.812 298.737 219.25 298.863Z" fill="black"/>
<path opacity="0.25" d="M167.696 230.604L218.81 291.288C220.459 293.269 221.458 295.12 221.687 296.61C221.598 295.078 220.623 293.035 218.785 290.863L167.672 230.178C163.995 225.835 161.227 226.087 161.496 230.725L161.52 231.151C161.251 226.513 164.019 226.26 167.696 230.604Z" fill="white"/>
</g>
</g>
<defs>
<filter id="filter0_d_6873_1591" x="0.422184" y="-2.56198" width="286.614" height="463.639" filterUnits="userSpaceOnUse" color-interpolation-filters="sRGB">
<feFlood flood-opacity="0" result="BackgroundImageFix"/>
<feColorMatrix in="SourceAlpha" type="matrix" values="0 0 0 0 0 0 0 0 0 0 0 0 0 0 0 0 0 0 127 0" result="hardAlpha"/>
<feOffset dx="-37.682" dy="22.6092"/>
<feGaussianBlur stdDeviation="29.276"/>
<feComposite in2="hardAlpha" operator="out"/>
<feColorMatrix type="matrix" values="0 0 0 0 0 0 0 0 0 0 0 0 0 0 0 0 0 0 0.25 0"/>
<feBlend mode="normal" in2="BackgroundImageFix" result="effect1_dropShadow_6873_1591"/>
<feBlend mode="normal" in="SourceGraphic" in2="effect1_dropShadow_6873_1591" result="shape"/>
</filter>
<filter id="filter1_f_6873_1591" x="26.2934" y="-119.096" width="345.009" height="428.292" filterUnits="userSpaceOnUse" color-interpolation-filters="sRGB">
<feFlood flood-opacity="0" result="BackgroundImageFix"/>
<feBlend mode="normal" in="SourceGraphic" in2="BackgroundImageFix" result="shape"/>
<feGaussianBlur stdDeviation="6.68728" result="effect1_foregroundBlur_6873_1591"/>
</filter>
<filter id="filter2_d_6873_1591" x="207.059" y="112.614" width="8.54689" height="13.9068" filterUnits="userSpaceOnUse" color-interpolation-filters="sRGB">
<feFlood flood-opacity="0" result="BackgroundImageFix"/>
<feColorMatrix in="SourceAlpha" type="matrix" values="0 0 0 0 0 0 0 0 0 0 0 0 0 0 0 0 0 0 127 0" result="hardAlpha"/>
<feOffset/>
<feGaussianBlur stdDeviation="1.02881"/>
<feComposite in2="hardAlpha" operator="out"/>
<feColorMatrix type="matrix" values="0 0 0 0 0 0 0 0 0 0 0 0 0 0 0 0 0 0 0.1 0"/>
<feBlend mode="normal" in2="BackgroundImageFix" result="effect1_dropShadow_6873_1591"/>
<feBlend mode="normal" in="SourceGraphic" in2="effect1_dropShadow_6873_1591" result="shape"/>
</filter>
<filter id="filter3_d_6873_1591" x="213.31" y="116.416" width="35.457" height="37.5996" filterUnits="userSpaceOnUse" color-interpolation-filters="sRGB">
<feFlood flood-opacity="0" result="BackgroundImageFix"/>
<feColorMatrix in="SourceAlpha" type="matrix" values="0 0 0 0 0 0 0 0 0 0 0 0 0 0 0 0 0 0 127 0" result="hardAlpha"/>
<feOffset dy="0.514406"/>
<feGaussianBlur stdDeviation="1.02881"/>
<feComposite in2="hardAlpha" operator="out"/>
<feColorMatrix type="matrix" values="0 0 0 0 0 0 0 0 0 0 0 0 0 0 0 0 0 0 0.1 0"/>
<feBlend mode="normal" in2="BackgroundImageFix" result="effect1_dropShadow_6873_1591"/>
<feBlend mode="normal" in="SourceGraphic" in2="effect1_dropShadow_6873_1591" result="shape"/>
</filter>
<filter id="filter4_d_6873_1591" x="139.892" y="148.544" width="78.8194" height="64.312" filterUnits="userSpaceOnUse" color-interpolation-filters="sRGB">
<feFlood flood-opacity="0" result="BackgroundImageFix"/>
<feColorMatrix in="SourceAlpha" type="matrix" values="0 0 0 0 0 0 0 0 0 0 0 0 0 0 0 0 0 0 127 0" result="hardAlpha"/>
<feOffset dy="0.514406"/>
<feGaussianBlur stdDeviation="1.02881"/>
<feComposite in2="hardAlpha" operator="out"/>
<feColorMatrix type="matrix" values="0 0 0 0 0 0 0 0 0 0 0 0 0 0 0 0 0 0 0.28 0"/>
<feBlend mode="normal" in2="BackgroundImageFix" result="effect1_dropShadow_6873_1591"/>
<feBlend mode="normal" in="SourceGraphic" in2="effect1_dropShadow_6873_1591" result="shape"/>
</filter>
<filter id="filter5_d_6873_1591" x="119.37" y="103.633" width="117.003" height="86.9507" filterUnits="userSpaceOnUse" color-interpolation-filters="sRGB">
<feFlood flood-opacity="0" result="BackgroundImageFix"/>
<feColorMatrix in="SourceAlpha" type="matrix" values="0 0 0 0 0 0 0 0 0 0 0 0 0 0 0 0 0 0 127 0" result="hardAlpha"/>
<feOffset dy="1.02881"/>
<feGaussianBlur stdDeviation="0.771609"/>
<feComposite in2="hardAlpha" operator="out"/>
<feColorMatrix type="matrix" values="0 0 0 0 0 0 0 0 0 0 0 0 0 0 0 0 0 0 0.2 0"/>
<feBlend mode="normal" in2="BackgroundImageFix" result="effect1_dropShadow_6873_1591"/>
<feBlend mode="normal" in="SourceGraphic" in2="effect1_dropShadow_6873_1591" result="shape"/>
</filter>
<linearGradient id="paint0_linear_6873_1591" x1="197.285" y1="0.926205" x2="-11.6614" y2="129.772" gradientUnits="userSpaceOnUse">
<stop stop-color="#00A0FF"/>
<stop offset="0.007" stop-color="#00A1FF"/>
<stop offset="0.26" stop-color="#00BEFF"/>
<stop offset="0.512" stop-color="#37B4EA"/>
<stop offset="0.76" stop-color="#36B4E7"/>
<stop offset="1" stop-color="#2CB3EB"/>
</linearGradient>
<linearGradient id="paint1_linear_6873_1591" x1="368" y1="267.412" x2="57.0138" y2="285.452" gradientUnits="userSpaceOnUse">
<stop stop-color="#FFE000"/>
<stop offset="0.409" stop-color="#FFBD00"/>
<stop offset="0.775" stop-color="#FFA500"/>
<stop offset="1" stop-color="#FF9C00"/>
</linearGradient>
<linearGradient id="paint2_linear_6873_1591" x1="249.92" y1="233.413" x2="-33.4252" y2="408.137" gradientUnits="userSpaceOnUse">
<stop stop-color="#FF3A44"/>
<stop offset="1" stop-color="#C31162"/>
</linearGradient>
<linearGradient id="paint3_linear_6873_1591" x1="-3.71098" y1="-241.958" x2="140.95" y2="-7.36544" gradientUnits="userSpaceOnUse">
<stop stop-color="#32A071"/>
<stop offset="0.069" stop-color="#2DA771"/>
<stop offset="0.476" stop-color="#69AE05"/>
<stop offset="0.801" stop-color="#559C18"/>
<stop offset="1" stop-color="#76CC2D"/>
</linearGradient>
<linearGradient id="paint4_linear_6873_1591" x1="191.319" y1="247.308" x2="151.764" y2="271.7" gradientUnits="userSpaceOnUse">
<stop stop-color="#00A0FF"/>
<stop offset="0.007" stop-color="#00A1FF"/>
<stop offset="0.26" stop-color="#00BEFF"/>
<stop offset="0.512" stop-color="#00D2FF"/>
<stop offset="0.76" stop-color="#00DFFF"/>
<stop offset="1" stop-color="#00E3FF"/>
</linearGradient>
<linearGradient id="paint5_linear_6873_1591" x1="223.637" y1="297.757" x2="164.765" y2="301.172" gradientUnits="userSpaceOnUse">
<stop stop-color="#FFE000"/>
<stop offset="0.409" stop-color="#FFBD00"/>
<stop offset="0.775" stop-color="#FFA500"/>
<stop offset="1" stop-color="#FF9C00"/>
</linearGradient>
<linearGradient id="paint6_linear_6873_1591" x1="201.283" y1="291.32" x2="147.644" y2="324.397" gradientUnits="userSpaceOnUse">
<stop stop-color="#FF3A44"/>
<stop offset="1" stop-color="#C31162"/>
</linearGradient>
<linearGradient id="paint7_linear_6873_1591" x1="153.268" y1="201.329" x2="180.654" y2="245.739" gradientUnits="userSpaceOnUse">
<stop stop-color="#32A071"/>
<stop offset="0.069" stop-color="#2DA771"/>
<stop offset="0.476" stop-color="#15CF74"/>
<stop offset="0.801" stop-color="#06E775"/>
<stop offset="1" stop-color="#00F076"/>
</linearGradient>
<clipPath id="clip0_6873_1591">
<rect width="178.499" height="257.718" rx="8.2305" transform="matrix(0.866025 0.5 0.0579125 0.998322 96.6562 33.3809)" fill="white"/>
</clipPath>
</defs>
</svg>
