<svg width="994" height="316" viewBox="0 0 994 316" fill="none" xmlns="http://www.w3.org/2000/svg">
<g opacity="0.1">
<path d="M-189 -142C-166 47.5 -34.7 23.049 61.5 -0.5C253.5 -47.5 430 291.562 575.5 237C721 182.438 774.5 -22.3649 893 -54.3649C987.8 -79.9649 1126.17 -65.0316 1183.5 -54.3649" stroke="#0E3E6A" stroke-width="2"/>
<path d="M-189 -124C-166 65.5 -34.7 41.049 61.5 17.5C253.5 -29.5 430 309.562 575.5 255C721 200.438 774.5 -4.36491 893 -36.3649C987.8 -61.9649 1126.17 -47.0316 1183.5 -36.3649" stroke="#0E3E6A" stroke-width="2"/>
<path d="M-189 -106C-166 83.5 -34.7 59.049 61.5 35.5C253.5 -11.5 430 327.562 575.5 273C721 218.438 774.5 13.6351 893 -18.3649C987.8 -43.9649 1126.17 -29.0316 1183.5 -18.3649" stroke="#0E3E6A" stroke-width="2"/>
<path d="M-189 -88C-166 101.5 -34.7 77.049 61.5 53.5C253.5 6.5 430 345.562 575.5 291C721 236.438 774.5 31.6351 893 -0.364914C987.8 -25.9649 1126.17 -11.0316 1183.5 -0.364914" stroke="#0E3E6A" stroke-width="2"/>
<path d="M-189 -70C-166 119.5 -34.7 95.049 61.5 71.5C253.5 24.5 430 363.562 575.5 309C721 254.438 774.5 49.6351 893 17.6351C987.8 -7.96491 1126.17 6.96842 1183.5 17.6351" stroke="#0E3E6A" stroke-width="2"/>
</g>
</svg>
