<svg width="994" height="337" viewBox="0 0 994 337" fill="none" xmlns="http://www.w3.org/2000/svg">
<g opacity="0.1">
<path d="M-189 1C-166 190.5 -34.7 166.049 61.5 142.5C253.5 95.5 430 434.562 575.5 380C721 325.438 774.5 120.635 893 88.6351C987.8 63.0351 1126.17 77.9684 1183.5 88.6351" stroke="#0E3E6A" stroke-width="2"/>
<path d="M-189 19C-166 208.5 -34.7 184.049 61.5 160.5C253.5 113.5 430 452.562 575.5 398C721 343.438 774.5 138.635 893 106.635C987.8 81.0351 1126.17 95.9684 1183.5 106.635" stroke="#0E3E6A" stroke-width="2"/>
<path d="M-189 37C-166 226.5 -34.7 202.049 61.5 178.5C253.5 131.5 430 470.562 575.5 416C721 361.438 774.5 156.635 893 124.635C987.8 99.0351 1126.17 113.968 1183.5 124.635" stroke="#0E3E6A" stroke-width="2"/>
<path d="M-189 55C-166 244.5 -34.7 220.049 61.5 196.5C253.5 149.5 430 488.562 575.5 434C721 379.438 774.5 174.635 893 142.635C987.8 117.035 1126.17 131.968 1183.5 142.635" stroke="#0E3E6A" stroke-width="2"/>
<path d="M-189 73C-166 262.5 -34.7 238.049 61.5 214.5C253.5 167.5 430 506.562 575.5 452C721 397.438 774.5 192.635 893 160.635C987.8 135.035 1126.17 149.968 1183.5 160.635" stroke="#0E3E6A" stroke-width="2"/>
</g>
</svg>
