<svg width="300" height="300" viewBox="0 0 171 347" fill="none" xmlns="http://www.w3.org/2000/svg">
<g clip-path="url(#clip0_6873_1550)">
<path fill-rule="evenodd" clip-rule="evenodd" d="M155.807 97.8465C155.544 93.3086 152.14 87.7874 148.203 85.5146L7.87392 4.49562C3.93733 2.22283 0.959497 4.05912 1.22274 8.59707L15.1945 249.449C15.4578 253.987 18.8624 259.508 22.799 261.781L163.128 342.8C167.065 345.072 170.042 343.236 169.779 338.698L155.807 97.8465ZM85.2564 69.0525V69.0525C85.2665 69.226 85.3943 69.4399 85.5448 69.5268L96.6138 75.9175C99.3604 77.5033 101.736 81.3553 101.92 84.5216C102.103 87.6879 100.026 88.969 97.2789 87.3832L62.9971 67.5907C60.2504 66.0048 57.875 62.1528 57.6914 58.9865C57.5077 55.8202 59.5853 54.5391 62.332 56.1249L73.4009 62.5155C73.5514 62.6024 73.6624 62.5263 73.6523 62.3529V62.3529C73.4381 58.6591 75.8621 57.1643 79.0664 59.0143C82.2707 60.8643 85.0422 65.3587 85.2564 69.0525Z" fill="url(#paint0_linear_6873_1550)"/>
<mask id="path-3-inside-1_6873_1550" fill="white">
<path d="M9.71391 154.956C9.58229 152.688 11.0712 151.769 13.0395 152.906L160.496 238.04C162.465 239.176 164.167 241.937 164.299 244.206L170.257 346.915L15.672 257.665L9.71391 154.956Z"/>
</mask>
<path d="M9.71391 154.956C9.58229 152.688 11.0712 151.769 13.0395 152.906L160.496 238.04C162.465 239.176 164.167 241.937 164.299 244.206L170.257 346.915L15.672 257.665L9.71391 154.956Z" fill="url(#paint1_radial_6873_1550)"/>
<path d="M9.71391 154.956C9.56583 152.404 11.2409 151.371 13.4552 152.649L160.021 237.269C162.235 238.548 164.15 241.653 164.299 244.206L164.299 244.206C164.183 242.221 162.494 239.69 160.526 238.554L13.0693 153.419C11.101 152.283 9.59874 152.971 9.71391 154.956L9.71391 154.956ZM170.257 346.915L15.672 257.665L170.257 346.915ZM15.672 257.665L9.47559 150.848L15.672 257.665ZM164.06 240.098L170.257 346.915L164.06 240.098Z" fill="white" fill-opacity="0.1" mask="url(#path-3-inside-1_6873_1550)"/>
<g clip-path="url(#clip1_6873_1550)">
<path d="M112.467 251.02C108.54 251.569 106.3 255.104 106.622 260.654C106.985 266.898 110.567 274.466 115.643 279.676C114.889 282.727 113.636 285.223 112.006 287.233C109.606 290.004 107.093 292.845 102.997 290.48C98.9007 288.115 97.5351 284.644 92.7164 281.862C88.0181 279.15 86.5006 281.09 82.6456 278.864C78.7907 276.639 75.907 271.084 72.6055 264.35C68.2276 255.117 65.4718 245.747 64.8603 237.213C64.0634 223.476 71.3467 220.573 79.0567 225.025C83.1526 227.389 86.7028 232.389 89.2326 233.85C91.6419 235.241 95.3118 234.275 99.8895 236.918C104.7 239.562 109.431 244.841 112.467 251.02ZM97.3831 229.838C99.27 228.246 100.153 225.403 100.064 221.864C100.04 221.448 100.008 220.893 99.8632 220.407C96.3938 218.806 93.2539 218.871 91.1421 220.602C89.247 222.056 88.2356 224.691 88.3244 228.229C88.3485 228.646 88.3727 229.062 88.5173 229.548C88.7582 229.687 89.1277 230.034 89.3686 230.173C92.6051 231.774 95.5041 231.57 97.3831 229.838Z" fill="white"/>
</g>
<path d="M29.2983 114.367L28.5473 111.932L26.0501 110.49L25.5394 112.197L24.7172 111.722L26.6119 105.822L27.3862 106.269L30.1205 114.842L29.2983 114.367ZM27.032 107.194L26.2362 109.856L28.2722 111.031L27.1016 107.234L27.032 107.194ZM32.9923 111.183C33.5898 111.528 34.0816 112.057 34.4678 112.771C34.857 113.487 35.0761 114.27 35.1254 115.119C35.1745 115.965 35.034 116.54 34.7041 116.844C34.3739 117.144 33.9115 117.123 33.317 116.78C32.9834 116.587 32.683 116.338 32.4158 116.032C32.1484 115.722 31.9425 115.387 31.7982 115.025L31.7286 114.985L31.8805 117.603L31.1322 117.171L30.7138 109.959L31.4273 110.371L31.4797 111.274L31.5493 111.314C31.6821 111.09 31.8753 110.966 32.1289 110.941C32.3855 110.918 32.6733 110.999 32.9923 111.183ZM33.0935 115.899C33.5228 116.147 33.8488 116.163 34.0717 115.945C34.2946 115.728 34.3877 115.304 34.351 114.672C34.3144 114.04 34.1638 113.475 33.8995 112.976C33.638 112.48 33.2926 112.107 32.8634 111.86C32.4399 111.615 32.1141 111.603 31.8858 111.824C31.6573 112.041 31.5611 112.46 31.5972 113.082C31.633 113.701 31.7848 114.263 32.0525 114.77C32.3231 115.278 32.6701 115.655 33.0935 115.899ZM38.3237 114.261C38.9212 114.606 39.413 115.135 39.7992 115.85C40.1883 116.565 40.4075 117.348 40.4568 118.197C40.5059 119.043 40.3654 119.618 40.0354 119.922C39.7053 120.222 39.2429 120.201 38.6484 119.858C38.3148 119.665 38.0144 119.416 37.7472 119.11C37.4798 118.8 37.2739 118.465 37.1296 118.104L37.06 118.063L37.2118 120.681L36.4636 120.249L36.0452 113.038L36.7587 113.449L36.8111 114.352L36.8807 114.392C37.0135 114.168 37.2067 114.044 37.4603 114.019C37.7169 113.996 38.0047 114.077 38.3237 114.261ZM38.4249 118.977C38.8541 119.225 39.1802 119.241 39.4031 119.023C39.626 118.806 39.7191 118.382 39.6824 117.75C39.6458 117.118 39.4952 116.553 39.2309 116.055C38.9694 115.558 38.624 115.186 38.1948 114.938C37.7713 114.693 37.4455 114.681 37.2172 114.902C36.9887 115.119 36.8925 115.538 36.9286 116.16C36.9644 116.779 37.1162 117.341 37.3839 117.848C37.6544 118.356 38.0015 118.733 38.4249 118.977ZM41.3537 117.532C41.3277 117.084 41.4727 116.806 41.7888 116.698C42.1049 116.589 42.5124 116.679 43.0112 116.967C43.5014 117.25 43.9135 117.614 44.2477 118.059C44.5818 118.504 44.7865 118.963 44.8616 119.436L44.122 119.009C44.057 118.759 43.9309 118.518 43.7437 118.287C43.5592 118.054 43.3278 117.858 43.0493 117.697C42.768 117.534 42.536 117.473 42.3533 117.513C42.1735 117.555 42.0905 117.694 42.1043 117.932C42.1149 118.116 42.1891 118.307 42.3268 118.506C42.4672 118.703 42.6788 118.921 42.9617 119.159L43.6955 119.776C44.1494 120.158 44.4889 120.527 44.7142 120.883C44.9424 121.241 45.0677 121.612 45.09 121.997C45.1177 122.475 44.9621 122.765 44.6233 122.866C44.2842 122.965 43.8449 122.858 43.3054 122.546C42.7834 122.245 42.3478 121.864 41.9988 121.404C41.6497 120.944 41.4419 120.479 41.3753 120.007L42.1453 120.452C42.2227 120.723 42.3595 120.979 42.5558 121.222C42.7519 121.461 42.9964 121.665 43.2893 121.834C43.6055 122.017 43.8605 122.088 44.0544 122.048C44.2483 122.008 44.3381 121.865 44.3237 121.617C44.3024 121.249 44.0397 120.852 43.5356 120.425L42.7177 119.735C42.2667 119.355 41.9316 118.99 41.7123 118.641C41.4957 118.29 41.3762 117.92 41.3537 117.532ZM46.8978 126.307L46.2452 125.931L46.4973 123.318L47.3761 123.825L46.8978 126.307ZM54.055 127.337C54.284 127.13 54.3814 126.731 54.3471 126.139C54.3127 125.547 54.1607 125.004 53.8909 124.509C53.6211 124.014 53.2716 123.642 52.8423 123.395C52.4131 123.147 52.0896 123.128 51.872 123.338C51.6543 123.549 51.5629 123.953 51.5976 124.552C51.6323 125.15 51.7786 125.692 52.0366 126.177C52.2946 126.662 52.6383 127.028 53.0675 127.276C53.4997 127.526 53.8288 127.546 54.055 127.337ZM53.2716 130.215C52.7119 129.892 52.2502 129.496 51.8867 129.028C51.526 128.561 51.3036 128.085 51.2194 127.6L52.0112 128.057C52.0648 128.305 52.1983 128.553 52.4118 128.803C52.6253 129.052 52.8974 129.272 53.228 129.463C53.6485 129.706 53.9697 129.781 54.1914 129.689C54.4163 129.603 54.5171 129.36 54.494 128.963L54.4324 127.899L54.3628 127.859C54.2321 128.071 54.0439 128.186 53.7982 128.202C53.5523 128.215 53.2684 128.129 52.9464 127.943C52.3431 127.595 51.8503 127.073 51.468 126.377C51.0854 125.678 50.8705 124.92 50.8232 124.105C50.7759 123.289 50.9161 122.735 51.244 122.443C51.5718 122.15 52.0345 122.177 52.6319 122.522C52.9597 122.711 53.2634 122.97 53.5433 123.3C53.8229 123.626 54.0393 123.974 54.1925 124.344L54.2621 124.384L54.2123 123.526L54.9258 123.938L55.2449 129.44C55.2801 130.045 55.1195 130.417 54.7632 130.558C54.4069 130.698 53.9097 130.583 53.2716 130.215ZM57.9569 130.274C58.3427 130.496 58.6542 130.552 58.8916 130.44C59.1319 130.33 59.2408 130.081 59.2183 129.693L59.1895 129.197L57.9334 128.564C57.5811 128.386 57.3265 128.321 57.1695 128.37C57.0125 128.418 56.942 128.579 56.9579 128.853C56.9736 129.124 57.0745 129.389 57.2605 129.649C57.4464 129.904 57.6785 130.113 57.9569 130.274ZM57.8616 130.95C57.4005 130.684 57.0121 130.319 56.6965 129.856C56.3836 129.391 56.213 128.915 56.1847 128.426C56.1567 127.945 56.2827 127.653 56.5627 127.549C56.8426 127.446 57.2556 127.534 57.8016 127.814L59.1491 128.5L59.1206 128.008C59.1012 127.674 58.9964 127.366 58.8063 127.085C58.6162 126.804 58.3472 126.563 57.9991 126.362C57.7178 126.2 57.4877 126.123 57.3089 126.133C57.13 126.143 57.0207 126.24 56.9809 126.424L56.224 125.987C56.2482 125.584 56.4209 125.348 56.7421 125.278C57.0661 125.209 57.479 125.32 57.9807 125.61C58.5492 125.938 58.9978 126.351 59.3265 126.847C59.6553 127.344 59.8361 127.875 59.8689 128.44L60.0836 132.141L59.3701 131.729L59.3238 130.932L59.2542 130.892C59.1201 131.092 58.9328 131.197 58.6922 131.207C58.4517 131.217 58.1749 131.131 57.8616 130.95ZM61.369 132.883L61.0554 127.477L61.7689 127.889L61.8183 128.742L61.8879 128.782C61.9778 128.543 62.1311 128.407 62.3478 128.374C62.5643 128.337 62.8292 128.409 63.1424 128.59C63.4499 128.767 63.7187 129.005 63.9491 129.303C64.1823 129.602 64.3639 129.93 64.4939 130.286L64.5635 130.327C64.6742 130.109 64.8523 129.989 65.0976 129.966C65.3429 129.943 65.6251 130.023 65.9441 130.208C66.4227 130.484 66.8 130.85 67.0759 131.307C67.3517 131.76 67.506 132.269 67.5388 132.834L67.7555 136.571L67.0072 136.139L66.8021 132.603C66.7562 131.811 66.404 131.224 65.7456 130.844C65.4266 130.66 65.1725 130.63 64.9835 130.753C64.7944 130.877 64.7101 131.114 64.7304 131.465L64.932 134.94L64.1838 134.508L63.9708 130.837C63.9522 130.516 63.8474 130.209 63.6566 129.914C63.4686 129.622 63.2267 129.39 62.9309 129.219C62.6263 129.043 62.3759 129.028 62.1797 129.173C61.9864 129.32 61.9008 129.584 61.9229 129.965L62.1173 133.315L61.369 132.883ZM70.6193 133.644C70.2452 133.428 69.9462 133.395 69.7223 133.547C69.4985 133.699 69.3859 134.006 69.3847 134.467L71.9688 135.959C71.9324 135.476 71.7912 135.023 71.5452 134.6C71.2992 134.177 70.9906 133.858 70.6193 133.644ZM72.0486 137.697L72.7969 138.129C72.7109 138.532 72.5016 138.765 72.1689 138.828C71.8391 138.893 71.4189 138.778 70.9085 138.483C70.2588 138.108 69.7295 137.56 69.3204 136.839C68.9112 136.115 68.6818 135.325 68.6321 134.469C68.5826 133.616 68.7346 133.047 69.088 132.759C69.4413 132.472 69.9399 132.515 70.5838 132.886C71.2161 133.251 71.7275 133.781 72.1182 134.475C72.5089 135.169 72.7286 135.937 72.7775 136.78L72.7967 137.111L69.4251 135.164L69.4274 135.204C69.4788 135.751 69.6339 136.251 69.8929 136.704C70.1547 137.159 70.4843 137.501 70.8817 137.731C71.4878 138.081 71.8768 138.07 72.0486 137.697ZM73.679 136.195C73.6531 135.747 73.7981 135.469 74.1142 135.361C74.4303 135.252 74.8377 135.342 75.3366 135.63C75.8267 135.913 76.2389 136.277 76.5731 136.722C76.9072 137.167 77.1119 137.626 77.187 138.099L76.4474 137.672C76.3824 137.422 76.2563 137.181 76.0691 136.95C75.8846 136.717 75.6531 136.521 75.3747 136.36C75.0934 136.198 74.8614 136.136 74.6787 136.176C74.4989 136.218 74.4159 136.357 74.4296 136.595C74.4403 136.779 74.5145 136.97 74.6522 137.169C74.7926 137.367 75.0042 137.584 75.2871 137.822L76.0209 138.439C76.4747 138.821 76.8143 139.19 77.0396 139.546C77.2678 139.904 77.3931 140.275 77.4154 140.66C77.4431 141.138 77.2875 141.428 76.9486 141.529C76.6095 141.628 76.1703 141.521 75.6308 141.21C75.1087 140.908 74.6732 140.527 74.3241 140.067C73.9751 139.607 73.7673 139.142 73.7007 138.67L74.4707 139.115C74.5481 139.386 74.6849 139.642 74.8812 139.885C75.0773 140.124 75.3218 140.328 75.6147 140.497C75.9309 140.68 76.1859 140.751 76.3798 140.711C76.5737 140.671 76.6635 140.528 76.6491 140.28C76.6278 139.913 76.3651 139.515 75.861 139.089L75.043 138.398C74.5921 138.018 74.257 137.654 74.0377 137.304C73.8211 136.953 73.7015 136.583 73.679 136.195ZM79.2232 144.97L78.5706 144.594L78.8227 141.981L79.7015 142.489L79.2232 144.97ZM83.545 145.687L83.2313 140.28L83.9448 140.692L83.9943 141.545L84.0639 141.585C84.1537 141.346 84.307 141.21 84.5237 141.177C84.7403 141.14 85.0052 141.212 85.3184 141.393C85.6258 141.571 85.8947 141.808 86.125 142.106C86.3582 142.406 86.5398 142.733 86.6698 143.09L86.7394 143.13C86.8502 142.913 87.0282 142.792 87.2735 142.769C87.5189 142.746 87.8011 142.827 88.1201 143.011C88.5986 143.287 88.9759 143.654 89.2519 144.11C89.5277 144.564 89.6819 145.073 89.7147 145.638L89.9315 149.374L89.1832 148.942L88.9781 145.406C88.9321 144.614 88.5799 144.028 87.9216 143.648C87.6025 143.463 87.3485 143.433 87.1594 143.556C86.9704 143.68 86.886 143.917 86.9064 144.268L87.108 147.744L86.3597 147.312L86.1468 143.641C86.1281 143.32 86.0234 143.012 85.8325 142.718C85.6445 142.425 85.4026 142.193 85.1068 142.022C84.8023 141.847 84.5519 141.831 84.3557 141.977C84.1624 142.123 84.0768 142.387 84.0989 142.769L84.2932 146.119L83.545 145.687ZM94.6795 146.89L94.9931 152.296L94.2796 151.884L94.2305 151.037L94.1609 150.997C94.0596 151.232 93.8905 151.361 93.6534 151.382C93.4162 151.4 93.1192 151.306 92.7625 151.101C92.2404 150.799 91.8331 150.398 91.5405 149.896C91.2479 149.394 91.0829 148.82 91.0454 148.175L90.8424 144.675L91.5907 145.107L91.7815 148.397C91.81 148.888 91.9151 149.298 92.0967 149.625C92.2781 149.95 92.5544 150.219 92.9256 150.434C93.3346 150.67 93.6416 150.719 93.8467 150.583C94.0545 150.444 94.1446 150.136 94.1168 149.658L93.9312 146.458L94.6795 146.89ZM95.9681 149.064C95.9421 148.616 96.0872 148.338 96.4032 148.229C96.7193 148.121 97.1268 148.211 97.6256 148.499C98.1158 148.782 98.528 149.146 98.8621 149.591C99.1963 150.036 99.4009 150.495 99.476 150.968L98.7364 150.541C98.6714 150.29 98.5453 150.049 98.3581 149.819C98.1737 149.586 97.9422 149.389 97.6638 149.229C97.3824 149.066 97.1504 149.005 96.9677 149.045C96.7879 149.086 96.7049 149.226 96.7187 149.463C96.7294 149.647 96.8035 149.839 96.9412 150.038C97.0816 150.235 97.2933 150.453 97.5762 150.69L98.31 151.308C98.7638 151.689 99.1034 152.058 99.3287 152.415C99.5569 152.773 99.6821 153.144 99.7044 153.528C99.7322 154.006 99.5766 154.296 99.2377 154.398C98.8986 154.496 98.4593 154.39 97.9199 154.078C97.3978 153.777 96.9623 153.396 96.6132 152.936C96.2641 152.476 96.0563 152.01 95.9897 151.539L96.7598 151.983C96.8372 152.254 96.974 152.511 97.1703 152.753C97.3663 152.993 97.6109 153.197 97.9038 153.366C98.2199 153.549 98.4749 153.62 98.6688 153.58C98.8628 153.54 98.9525 153.396 98.9382 153.149C98.9168 152.781 98.6541 152.384 98.15 151.957L97.3321 151.267C96.8812 150.887 96.5461 150.522 96.3268 150.173C96.1102 149.821 95.9906 149.452 95.9681 149.064ZM100.888 155.7L100.574 150.293L101.322 150.725L101.636 156.132L100.888 155.7ZM101.244 149.449C101.149 149.507 101.03 149.495 100.885 149.411C100.74 149.327 100.613 149.198 100.505 149.022C100.396 148.843 100.337 148.672 100.328 148.508C100.318 148.344 100.361 148.233 100.455 148.174C100.55 148.113 100.67 148.124 100.815 148.207C100.96 148.291 101.087 148.422 101.195 148.601C101.303 148.777 101.362 148.947 101.372 149.111C101.381 149.274 101.339 149.387 101.244 149.449ZM106.628 155.388L105.871 154.951C105.791 154.63 105.639 154.318 105.417 154.015C105.198 153.711 104.927 153.466 104.605 153.28C104.185 153.037 103.86 153.024 103.632 153.241C103.406 153.46 103.311 153.875 103.346 154.487C103.383 155.109 103.536 155.677 103.807 156.193C104.078 156.704 104.422 157.081 104.84 157.322C105.156 157.504 105.414 157.574 105.613 157.531C105.815 157.489 105.942 157.336 105.994 157.072L106.751 157.509C106.711 157.981 106.528 158.277 106.201 158.399C105.875 158.517 105.437 158.418 104.889 158.102C104.231 157.722 103.692 157.165 103.274 156.433C102.856 155.697 102.622 154.899 102.572 154.04C102.523 153.197 102.678 152.636 103.038 152.356C103.397 152.075 103.905 152.124 104.56 152.502C105.108 152.819 105.564 153.242 105.929 153.773C106.296 154.305 106.529 154.843 106.628 155.388ZM108.495 161.87L107.842 161.493L108.094 158.881L108.973 159.388L108.495 161.87ZM112.816 162.586L112.503 157.18L113.216 157.592L113.266 158.445L113.335 158.485C113.425 158.246 113.578 158.11 113.795 158.077C114.012 158.04 114.276 158.112 114.59 158.293C114.897 158.471 115.166 158.708 115.396 159.006C115.63 159.305 115.811 159.633 115.941 159.989L116.011 160.03C116.122 159.812 116.3 159.692 116.545 159.669C116.79 159.646 117.072 159.726 117.391 159.911C117.87 160.187 118.247 160.553 118.523 161.01C118.799 161.463 118.953 161.972 118.986 162.538L119.203 166.274L118.455 165.842L118.249 162.306C118.203 161.514 117.851 160.927 117.193 160.547C116.874 160.363 116.62 160.333 116.431 160.456C116.242 160.58 116.157 160.817 116.178 161.168L116.379 164.644L115.631 164.212L115.418 160.541C115.399 160.22 115.295 159.912 115.104 159.618C114.916 159.325 114.674 159.093 114.378 158.922C114.074 158.746 113.823 158.731 113.627 158.876C113.434 159.023 113.348 159.287 113.37 159.668L113.565 163.018L112.816 162.586ZM121.301 166.317C121.562 166.807 121.915 167.18 122.359 167.436C122.802 167.693 123.134 167.715 123.355 167.503C123.575 167.287 123.666 166.859 123.629 166.217C123.592 165.575 123.443 165.009 123.182 164.519C122.92 164.025 122.568 163.651 122.124 163.394C121.68 163.138 121.348 163.118 121.128 163.333C120.908 163.545 120.816 163.972 120.853 164.614C120.891 165.256 121.04 165.824 121.301 166.317ZM123.94 168.378C123.583 168.654 123.071 168.599 122.404 168.214C121.737 167.829 121.194 167.275 120.777 166.552C120.362 165.828 120.129 165.033 120.079 164.167C120.029 163.298 120.182 162.725 120.539 162.45C120.896 162.175 121.409 162.23 122.079 162.617C122.749 163.004 123.291 163.558 123.706 164.279C124.121 164.999 124.353 165.794 124.403 166.664C124.454 167.53 124.299 168.101 123.94 168.378ZM124.74 164.246L125.541 164.708L127.083 169.902L127.152 169.942L128.177 166.23L128.978 166.692L127.555 171.096L126.79 170.654L124.74 164.246ZM130.211 172.629L129.898 167.223L130.646 167.655L130.96 173.062L130.211 172.629ZM130.568 166.379C130.473 166.437 130.353 166.425 130.208 166.341C130.063 166.257 129.936 166.128 129.828 165.952C129.72 165.773 129.661 165.602 129.651 165.438C129.642 165.274 129.684 165.163 129.779 165.104C129.874 165.043 129.993 165.054 130.138 165.137C130.283 165.221 130.41 165.352 130.519 165.531C130.627 165.707 130.686 165.877 130.695 166.041C130.705 166.204 130.662 166.317 130.568 166.379ZM133.884 170.17C133.51 169.954 133.211 169.922 132.987 170.073C132.763 170.225 132.651 170.532 132.65 170.993L135.234 172.485C135.197 172.002 135.056 171.549 134.81 171.126C134.564 170.703 134.256 170.384 133.884 170.17ZM135.314 174.223L136.062 174.655C135.976 175.058 135.767 175.291 135.434 175.354C135.104 175.419 134.684 175.304 134.173 175.009C133.524 174.634 132.994 174.086 132.585 173.365C132.176 172.641 131.947 171.851 131.897 170.995C131.848 170.142 132 169.573 132.353 169.285C132.706 168.998 133.205 169.041 133.849 169.412C134.481 169.777 134.993 170.307 135.383 171.001C135.774 171.695 135.994 172.463 136.043 173.306L136.062 173.637L132.69 171.69L132.692 171.731C132.744 172.277 132.899 172.777 133.158 173.23C133.42 173.685 133.749 174.027 134.147 174.257C134.753 174.607 135.142 174.596 135.314 174.223ZM136.944 172.721C136.918 172.273 137.063 171.995 137.379 171.887C137.695 171.778 138.103 171.868 138.602 172.156C139.092 172.439 139.504 172.803 139.838 173.248C140.172 173.693 140.377 174.152 140.452 174.625L139.712 174.198C139.647 173.948 139.521 173.707 139.334 173.476C139.15 173.243 138.918 173.047 138.64 172.886C138.358 172.724 138.126 172.662 137.944 172.702C137.764 172.744 137.681 172.883 137.695 173.121C137.705 173.305 137.779 173.496 137.917 173.695C138.058 173.893 138.269 174.11 138.552 174.348L139.286 174.965C139.74 175.347 140.079 175.716 140.305 176.072C140.533 176.43 140.658 176.801 140.68 177.186C140.708 177.664 140.553 177.954 140.214 178.055C139.875 178.154 139.435 178.047 138.896 177.736C138.374 177.434 137.938 177.053 137.589 176.593C137.24 176.133 137.032 175.668 136.966 175.196L137.736 175.641C137.813 175.912 137.95 176.168 138.146 176.411C138.342 176.65 138.587 176.854 138.88 177.023C139.196 177.206 139.451 177.277 139.645 177.237C139.839 177.197 139.928 177.054 139.914 176.806C139.893 176.439 139.63 176.041 139.126 175.615L138.308 174.924C137.857 174.544 137.522 174.18 137.303 173.83C137.086 173.479 136.967 173.109 136.944 172.721ZM142.488 181.496L141.836 181.12L142.088 178.507L142.967 179.015L142.488 181.496ZM28.327 125.385L27.5439 124.933L27.1712 118.509L25.1482 117.341L25.1011 116.528L29.9301 119.316L29.9773 120.129L27.9543 118.961L28.327 125.385ZM34.0499 128.689L33.2755 128.242L30.5413 119.669L31.3635 120.144L33.5601 127.277L33.6297 127.317L35.1223 122.314L35.9446 122.789L34.0499 128.689ZM39.3513 127.955C39.3253 127.507 39.4704 127.229 39.7865 127.12C40.1025 127.012 40.51 127.102 41.0089 127.39C41.499 127.673 41.9112 128.037 42.2453 128.482C42.5795 128.927 42.7841 129.386 42.8592 129.859L42.1197 129.432C42.0546 129.181 41.9285 128.94 41.7414 128.709C41.5569 128.477 41.3254 128.28 41.047 128.119C40.7657 127.957 40.5336 127.896 40.351 127.936C40.1712 127.977 40.0881 128.117 40.1019 128.354C40.1126 128.538 40.1868 128.73 40.3245 128.929C40.4649 129.126 40.6765 129.344 40.9594 129.581L41.6932 130.199C42.147 130.58 42.4866 130.949 42.7119 131.306C42.9401 131.663 43.0653 132.035 43.0876 132.419C43.1154 132.897 42.9598 133.187 42.6209 133.289C42.2818 133.387 41.8425 133.28 41.3031 132.969C40.781 132.668 40.3455 132.287 39.9964 131.827C39.6474 131.367 39.4395 130.901 39.3729 130.43L40.143 130.874C40.2204 131.145 40.3572 131.402 40.5535 131.644C40.7496 131.884 40.9941 132.088 41.287 132.257C41.6031 132.439 41.8582 132.511 42.0521 132.471C42.246 132.431 42.3357 132.287 42.3214 132.04C42.3001 131.672 42.0373 131.275 41.5332 130.848L40.7153 130.158C40.2644 129.778 39.9293 129.413 39.71 129.063C39.4934 128.712 39.3738 128.343 39.3513 127.955ZM44.2971 134.606L43.859 127.053L44.6072 127.485L44.7812 130.484L44.8508 130.524C44.9521 130.288 45.1198 130.159 45.3539 130.136C45.5909 130.114 45.8864 130.206 46.2402 130.41C46.739 130.698 47.1438 131.103 47.4544 131.625C47.7648 132.143 47.9382 132.717 47.9746 133.345L48.1777 136.846L47.4294 136.414L47.2386 133.124C47.1831 132.168 46.7943 131.481 46.0721 131.064C45.6603 130.827 45.3478 130.78 45.1348 130.926C44.9245 131.069 44.8328 131.373 44.8598 131.838L45.0454 135.038L44.2971 134.606ZM50.2762 136.889C50.5373 137.379 50.8897 137.753 51.3335 138.009C51.7772 138.265 52.1093 138.287 52.3296 138.075C52.5498 137.86 52.6412 137.431 52.604 136.789C52.5668 136.147 52.4176 135.581 52.1565 135.091C51.8952 134.598 51.5427 134.223 51.099 133.967C50.6552 133.71 50.3233 133.69 50.1031 133.905C49.8827 134.118 49.7912 134.545 49.8284 135.186C49.8656 135.828 50.0149 136.396 50.2762 136.889ZM52.9144 138.951C52.5576 139.226 52.0456 139.171 51.3785 138.786C50.7115 138.401 50.1692 137.847 49.7516 137.125C49.3368 136.4 49.1043 135.605 49.054 134.739C49.0036 133.87 49.1568 133.298 49.5136 133.022C49.8705 132.747 50.3839 132.802 51.0539 133.189C51.7238 133.576 52.2662 134.13 52.6808 134.851C53.0954 135.572 53.328 136.367 53.3784 137.236C53.4286 138.102 53.274 138.673 52.9144 138.951ZM60.0234 138.46L59.0232 143.108L58.2619 142.668L56.9708 137.88L56.9012 137.84L56.0997 141.42L55.3427 140.983L53.7152 134.818L54.4722 135.255L55.6453 140.11L55.7149 140.151L56.5126 136.433L57.2304 136.847L58.5297 141.776L58.5993 141.816L59.2708 138.025L60.0234 138.46ZM60.7726 140.322C60.7466 139.874 60.8916 139.596 61.2077 139.488C61.5238 139.38 61.9313 139.469 62.4301 139.757C62.9203 140.04 63.3324 140.404 63.6666 140.849C64.0008 141.294 64.2054 141.753 64.2805 142.226L63.5409 141.8C63.4759 141.549 63.3498 141.308 63.1626 141.077C62.9781 140.844 62.7467 140.648 62.4683 140.487C62.1869 140.325 61.9549 140.263 61.7722 140.303C61.5924 140.345 61.5094 140.484 61.5232 140.722C61.5339 140.906 61.608 141.097 61.7457 141.296C61.8861 141.494 62.0978 141.711 62.3807 141.949L63.1145 142.566C63.5683 142.948 63.9079 143.317 64.1332 143.673C64.3614 144.031 64.4866 144.402 64.5089 144.787C64.5366 145.265 64.3811 145.555 64.0422 145.656C63.7031 145.755 63.2638 145.648 62.7243 145.337C62.2023 145.035 61.7667 144.654 61.4177 144.194C61.0686 143.734 60.8608 143.269 60.7942 142.797L61.5642 143.242C61.6416 143.513 61.7785 143.769 61.9747 144.012C62.1708 144.251 62.4153 144.455 62.7083 144.624C63.0244 144.807 63.2794 144.878 63.4733 144.838C63.6672 144.798 63.757 144.655 63.7427 144.407C63.7213 144.04 63.4586 143.642 62.9545 143.216L62.1366 142.525C61.6857 142.145 61.3505 141.781 61.1312 141.431C60.9146 141.08 60.7951 140.71 60.7726 140.322ZM66.3167 149.097L65.6642 148.721L65.9163 146.108L66.7951 146.616L66.3167 149.097ZM72.9759 151.255C72.651 151.068 72.3504 150.813 72.0738 150.492C71.8 150.169 71.5804 149.815 71.4151 149.428L71.3454 149.388L71.3955 150.251L70.682 149.839L70.2439 142.286L70.9922 142.718L71.1661 145.717L71.2357 145.757C71.3465 145.54 71.5289 145.423 71.7829 145.404C72.0398 145.388 72.3293 145.473 72.6512 145.659C73.2487 146.003 73.7405 146.533 74.1267 147.247C74.513 147.961 74.7307 148.743 74.78 149.592C74.829 150.438 74.6886 151.013 74.3586 151.317C74.0314 151.619 73.5704 151.599 72.9759 151.255ZM72.5223 146.335C72.0959 146.089 71.7685 146.075 71.54 146.292C71.3145 146.511 71.2198 146.933 71.2561 147.558C71.2923 148.183 71.4442 148.747 71.7117 149.251C71.9821 149.756 72.3304 150.131 72.7568 150.378C73.186 150.625 73.5106 150.64 73.7306 150.421C73.9506 150.202 74.0422 149.777 74.0056 149.145C73.9689 148.513 73.8199 147.949 73.5584 147.452C73.2969 146.955 72.9515 146.583 72.5223 146.335ZM76.8438 152.228C77.1049 152.718 77.4573 153.091 77.9011 153.348C78.3448 153.604 78.6769 153.626 78.8973 153.414C79.1174 153.198 79.2089 152.77 79.1717 152.128C79.1344 151.486 78.9852 150.92 78.7242 150.43C78.4629 149.936 78.1104 149.562 77.6666 149.305C77.2229 149.049 76.8909 149.029 76.6707 149.244C76.4504 149.456 76.3588 149.883 76.396 150.525C76.4333 151.167 76.5825 151.735 76.8438 152.228ZM79.4821 154.289C79.1252 154.565 78.6133 154.51 77.9462 154.125C77.2791 153.74 76.7368 153.186 76.3193 152.463C75.9044 151.739 75.6719 150.944 75.6217 150.078C75.5712 149.209 75.7244 148.637 76.0813 148.361C76.4381 148.086 76.9515 148.141 77.6215 148.528C78.2915 148.915 78.8338 149.469 79.2484 150.19C79.6631 150.911 79.8956 151.706 79.946 152.575C79.9963 153.441 79.8416 154.012 79.4821 154.289ZM82.0099 155.211C82.271 155.701 82.6234 156.074 83.0672 156.33C83.5109 156.586 83.843 156.608 84.0633 156.396C84.2835 156.181 84.375 155.752 84.3377 155.11C84.3005 154.468 84.1513 153.902 83.8902 153.412C83.6289 152.919 83.2764 152.544 82.8327 152.288C82.3889 152.032 82.057 152.011 81.8368 152.227C81.6164 152.439 81.5249 152.866 81.5621 153.508C81.5994 154.15 81.7486 154.717 82.0099 155.211ZM84.6481 157.272C84.2913 157.548 83.7793 157.493 83.1123 157.108C82.4452 156.722 81.9029 156.169 81.4853 155.446C81.0705 154.722 80.838 153.927 80.7877 153.061C80.7373 152.192 80.8905 151.619 81.2474 151.344C81.6042 151.068 82.1176 151.124 82.7876 151.511C83.4576 151.898 83.9999 152.451 84.4145 153.172C84.8291 153.893 85.0617 154.688 85.1121 155.557C85.1623 156.423 85.0077 156.995 84.6481 157.272ZM87.0303 156.335L88.9293 155.149L89.8473 155.679L87.9631 156.83L90.2958 161.163L89.343 160.613L87.4385 157.065L87.0183 157.288L87.1373 159.339L86.389 158.907L85.9509 151.355L86.6992 151.787L86.9607 156.295L87.0303 156.335ZM90.5747 157.529C90.5487 157.081 90.6937 156.802 91.0098 156.694C91.3259 156.586 91.7334 156.676 92.2322 156.964C92.7224 157.247 93.1345 157.611 93.4687 158.056C93.8029 158.501 94.0075 158.96 94.0826 159.433L93.343 159.006C93.278 158.755 93.1519 158.514 92.9647 158.283C92.7802 158.051 92.5488 157.854 92.2704 157.693C91.989 157.531 91.757 157.47 91.5743 157.51C91.3945 157.551 91.3115 157.691 91.3253 157.928C91.336 158.112 91.4101 158.303 91.5478 158.502C91.6882 158.7 91.8999 158.917 92.1828 159.155L92.9166 159.773C93.3704 160.154 93.71 160.523 93.9353 160.879C94.1635 161.237 94.2887 161.609 94.311 161.993C94.3387 162.471 94.1832 162.761 93.8443 162.863C93.5052 162.961 93.0659 162.854 92.5264 162.543C92.0044 162.241 91.5688 161.861 91.2198 161.401C90.8707 160.941 90.6629 160.475 90.5963 160.003L91.3663 160.448C91.4437 160.719 91.5806 160.976 91.7768 161.218C91.9729 161.457 92.2174 161.662 92.5104 161.831C92.8265 162.013 93.0815 162.085 93.2754 162.045C93.4693 162.005 93.5591 161.861 93.5448 161.614C93.5234 161.246 93.2607 160.849 92.7566 160.422L91.9387 159.731C91.4878 159.352 91.1526 158.987 90.9333 158.637C90.7167 158.286 90.5972 157.916 90.5747 157.529ZM96.1188 166.304L95.4663 165.927L95.7184 163.314L96.5972 163.822L96.1188 166.304ZM101.847 167.192C102.232 167.415 102.544 167.47 102.781 167.358C103.022 167.248 103.13 166.999 103.108 166.611L103.079 166.115L101.823 165.482C101.471 165.304 101.216 165.24 101.059 165.288C100.902 165.336 100.832 165.498 100.848 165.772C100.863 166.043 100.964 166.308 101.15 166.567C101.336 166.823 101.568 167.031 101.847 167.192ZM101.751 167.869C101.29 167.603 100.902 167.238 100.586 166.774C100.273 166.309 100.103 165.833 100.074 165.345C100.046 164.863 100.172 164.571 100.452 164.467C100.732 164.364 101.145 164.452 101.691 164.732L103.039 165.418L103.01 164.926C102.991 164.592 102.886 164.284 102.696 164.003C102.506 163.722 102.237 163.481 101.889 163.28C101.607 163.118 101.377 163.042 101.199 163.052C101.02 163.061 100.91 163.158 100.871 163.342L100.114 162.905C100.138 162.502 100.311 162.266 100.632 162.196C100.956 162.128 101.369 162.239 101.87 162.528C102.439 162.856 102.887 163.269 103.216 163.766C103.545 164.262 103.726 164.793 103.758 165.358L103.973 169.06L103.26 168.648L103.213 167.85L103.144 167.81C103.01 168.01 102.822 168.116 102.582 168.125C102.341 168.135 102.065 168.05 101.751 167.869ZM105.259 169.802L104.945 164.395L105.658 164.807L105.708 165.66L105.778 165.7C105.99 165.212 106.442 165.168 107.132 165.566C107.657 165.869 108.072 166.277 108.376 166.788C108.68 167.297 108.851 167.872 108.888 168.514L109.091 172.015L108.343 171.583L108.152 168.293C108.124 167.808 108.012 167.396 107.816 167.056C107.622 166.715 107.338 166.436 106.964 166.22C106.587 166.003 106.295 165.966 106.087 166.112C105.883 166.255 105.794 166.563 105.821 167.034L106.007 170.234L105.259 169.802ZM112.105 173.847C111.505 173.5 111.012 172.97 110.625 172.255C110.239 171.541 110.021 170.76 109.972 169.91C109.923 169.065 110.062 168.49 110.389 168.188C110.719 167.884 111.183 167.905 111.78 168.25C112.108 168.439 112.406 168.693 112.674 169.013C112.945 169.331 113.155 169.675 113.306 170.047L113.371 170.084L113.197 167.085L113.946 167.517L114.384 175.07L113.67 174.658L113.62 173.795L113.551 173.755C113.42 173.971 113.228 174.088 112.974 174.106C112.72 174.121 112.43 174.034 112.105 173.847ZM112 169.128C111.573 168.881 111.249 168.869 111.026 169.089C110.803 169.306 110.71 169.729 110.746 170.357C110.783 170.989 110.932 171.554 111.194 172.05C111.458 172.549 111.805 172.922 112.234 173.17C112.66 173.416 112.986 173.43 113.212 173.211C113.438 172.992 113.532 172.57 113.496 171.945C113.46 171.326 113.307 170.763 113.036 170.254C112.769 169.748 112.423 169.372 112 169.128ZM118.155 177.248L117.842 171.841L118.555 172.253L118.605 173.106L118.674 173.146C118.764 172.907 118.917 172.771 119.134 172.738C119.351 172.701 119.615 172.773 119.929 172.954C120.236 173.132 120.505 173.369 120.735 173.667C120.969 173.967 121.15 174.294 121.28 174.651L121.35 174.691C121.46 174.474 121.639 174.353 121.884 174.33C122.129 174.307 122.411 174.388 122.73 174.572C123.209 174.848 123.586 175.214 123.862 175.671C124.138 176.124 124.292 176.634 124.325 177.199L124.542 180.935L123.793 180.503L123.588 176.967C123.542 176.175 123.19 175.589 122.532 175.208C122.213 175.024 121.959 174.994 121.77 175.117C121.581 175.241 121.496 175.478 121.517 175.829L121.718 179.305L120.97 178.873L120.757 175.202C120.738 174.881 120.634 174.573 120.443 174.279C120.255 173.986 120.013 173.754 119.717 173.583C119.413 173.407 119.162 173.392 118.966 173.537C118.773 173.684 118.687 173.948 118.709 174.33L118.904 177.68L118.155 177.248ZM126.64 180.978C126.901 181.468 127.254 181.841 127.697 182.098C128.141 182.354 128.473 182.376 128.694 182.164C128.914 181.948 129.005 181.52 128.968 180.878C128.931 180.236 128.782 179.67 128.521 179.18C128.259 178.686 127.907 178.312 127.463 178.055C127.019 177.799 126.687 177.779 126.467 177.994C126.247 178.206 126.155 178.633 126.192 179.275C126.23 179.917 126.379 180.485 126.64 180.978ZM129.278 183.039C128.922 183.315 128.41 183.26 127.743 182.875C127.076 182.49 126.533 181.936 126.116 181.213C125.701 180.489 125.468 179.694 125.418 178.828C125.368 177.959 125.521 177.387 125.878 177.111C126.235 176.836 126.748 176.891 127.418 177.278C128.088 177.665 128.63 178.219 129.045 178.94C129.459 179.66 129.692 180.456 129.742 181.325C129.793 182.191 129.638 182.762 129.278 183.039ZM130.976 184.65L130.662 179.243L131.376 179.655L131.422 180.458L131.492 180.498C131.546 180.274 131.69 180.149 131.924 180.122C132.158 180.096 132.43 180.172 132.741 180.351C132.883 180.433 133.008 180.514 133.116 180.592L133.166 181.455C133.063 181.363 132.902 181.254 132.685 181.128C132.328 180.922 132.041 180.876 131.823 180.99C131.605 181.103 131.508 181.35 131.53 181.732L131.724 185.082L130.976 184.65ZM135.737 182.818C135.362 182.602 135.063 182.57 134.84 182.721C134.616 182.873 134.503 183.18 134.502 183.641L137.086 185.133C137.05 184.65 136.908 184.197 136.662 183.774C136.416 183.351 136.108 183.032 135.737 182.818ZM137.166 186.871L137.914 187.303C137.828 187.706 137.619 187.939 137.286 188.002C136.956 188.067 136.536 187.952 136.026 187.657C135.376 187.282 134.847 186.734 134.438 186.013C134.028 185.289 133.799 184.499 133.749 183.643C133.7 182.79 133.852 182.221 134.205 181.933C134.558 181.646 135.057 181.689 135.701 182.06C136.333 182.425 136.845 182.955 137.235 183.649C137.626 184.343 137.846 185.111 137.895 185.954L137.914 186.285L134.542 184.338L134.545 184.378C134.596 184.925 134.751 185.425 135.01 185.878C135.272 186.333 135.601 186.675 135.999 186.905C136.605 187.255 136.994 187.244 137.166 186.871Z" fill="white"/>
<path d="M112.628 78.378L112.621 78.2496L112.509 78.1853L111.684 77.7086L111.572 77.6443L111.58 77.7726L111.648 78.9467C111.35 78.8184 111.079 78.7489 110.837 78.7398C110.471 78.7259 110.189 78.8456 109.995 79.101L109.995 79.101L109.995 79.1015C109.803 79.3607 109.725 79.7497 109.755 80.2607C109.784 80.7772 109.907 81.275 110.127 81.7505L110.127 81.7505L110.128 81.7525C110.349 82.2177 110.644 82.6702 111.01 83.1093L111.01 83.1093L111.011 83.1108C111.375 83.5409 111.794 83.9802 112.267 84.4287L112.267 84.429C112.587 84.7312 112.839 85.0015 113.025 85.24L113.025 85.24L113.027 85.2415C113.212 85.4756 113.341 85.6878 113.421 85.88L113.421 85.88L113.422 85.884C113.506 86.0758 113.555 86.2768 113.567 86.4893C113.58 86.7077 113.547 86.8725 113.472 86.9888L113.471 86.9894C113.4 87.1015 113.286 87.1583 113.123 87.155C112.965 87.1499 112.76 87.0777 112.503 86.9296C112.353 86.8428 112.201 86.7317 112.047 86.5956C111.902 86.4662 111.767 86.3137 111.644 86.1373C111.526 85.9687 111.426 85.7711 111.346 85.5401C111.267 85.3142 111.217 85.0523 111.2 84.7524L111.192 84.624L111.081 84.5597L109.783 83.8105L109.672 83.7462L109.679 83.8746C109.71 84.4064 109.814 84.9095 109.995 85.3819L109.995 85.3826C110.174 85.8451 110.405 86.2699 110.688 86.6541C110.966 87.0321 111.27 87.3648 111.6 87.6517L111.602 87.6529C111.762 87.7896 111.922 87.9154 112.081 88.0304L112.142 89.0811L112.15 89.2095L112.261 89.2738L113.082 89.7475L113.193 89.8118L113.185 89.6834L113.125 88.6324C113.422 88.7619 113.693 88.8391 113.937 88.8626L113.938 88.8626C114.326 88.8977 114.624 88.7914 114.826 88.5398C115.033 88.2885 115.118 87.8903 115.087 87.3551C115.057 86.8392 114.936 86.3451 114.715 85.8768C114.501 85.4148 114.209 84.9657 113.843 84.5305C113.487 84.1001 113.069 83.6579 112.593 83.2036C112.253 82.8745 111.989 82.5928 111.798 82.3577C111.612 82.1238 111.486 81.9156 111.411 81.731C111.333 81.5413 111.287 81.3424 111.275 81.1326C111.262 80.9138 111.286 80.7442 111.343 80.6193C111.402 80.5007 111.499 80.4369 111.639 80.4292L111.639 80.4292L111.641 80.4291C111.778 80.4181 111.964 80.4758 112.205 80.6149C112.369 80.7101 112.514 80.8272 112.64 80.9644L112.64 80.9644L112.641 80.9654C112.772 81.1061 112.886 81.2654 112.983 81.4453L112.983 81.4453L112.984 81.4472C113.079 81.6221 113.157 81.8164 113.215 82.0323L113.215 82.0323L113.216 82.0357C113.276 82.2489 113.314 82.4778 113.328 82.7227L113.336 82.8511L113.447 82.9154L114.734 83.6584L114.845 83.7227L114.838 83.5943C114.811 83.132 114.728 82.6839 114.587 82.2508C114.45 81.8173 114.263 81.4082 114.024 81.0255C113.787 80.6435 113.506 80.2969 113.184 79.9862C113.029 79.8362 112.867 79.6967 112.697 79.5677L112.628 78.378Z" fill="white" stroke="black" stroke-width="0.257203"/>
<path d="M132.315 106.206L132.314 106.205C131.106 105.503 130.04 104.556 129.122 103.363L129.122 103.363C128.209 102.173 127.482 100.796 126.94 99.2365L126.94 99.236C126.401 97.6791 126.084 96.0027 125.985 94.2081M132.315 106.206L134.495 91.8549C133.582 90.6754 132.522 89.7395 131.319 89.0449C130.116 88.3503 129.092 88.083 128.253 88.2508C127.419 88.416 126.805 89.0044 126.411 90.0076L126.411 90.0079C126.021 91.014 125.881 92.4162 125.985 94.2081M132.315 106.206C133.523 106.903 134.546 107.165 135.38 106.984C136.214 106.802 136.823 106.196 137.212 105.175M132.315 106.206L136.683 95.9457M125.985 94.2081C125.985 94.2081 125.985 94.2081 125.985 94.2081L126.096 94.2724L125.985 94.2078C125.985 94.2079 125.985 94.208 125.985 94.2081ZM145.504 113.821L145.504 113.82C144.296 113.118 143.23 112.171 142.312 110.978L142.312 110.978C141.399 109.788 140.672 108.411 140.129 106.852L140.129 106.851C139.591 105.294 139.274 103.618 139.174 101.823M145.504 113.821L139.706 97.7319C140.095 96.7441 140.696 96.1696 141.511 96.0084M145.504 113.821C146.712 114.518 147.736 114.78 148.57 114.599C149.404 114.417 150.013 113.812 150.402 112.79M145.504 113.821L150.402 112.79M139.174 101.823L139.286 101.888L139.175 101.823C139.175 101.823 139.174 101.823 139.174 101.823ZM139.174 101.823C139.071 100.031 139.211 98.629 139.601 97.623L139.601 97.6226C139.995 96.6195 140.608 96.0311 141.443 95.8659M141.443 95.8659L141.511 96.0084M141.443 95.8659C141.443 95.8659 141.443 95.8659 141.443 95.8659L141.511 96.0084M141.443 95.8659C142.282 95.698 143.306 95.9654 144.509 96.66C145.712 97.3546 146.772 98.2905 147.685 99.4699L141.511 96.0084M137.643 100.939C137.543 99.1498 137.225 97.4848 136.683 95.9457M137.643 100.939L137.532 100.875L137.643 100.939C137.643 100.939 137.643 100.939 137.643 100.939ZM137.643 100.939C137.747 102.742 137.605 104.156 137.212 105.175M136.683 95.9457C136.141 94.402 135.412 93.0365 134.495 91.855L136.683 95.9457ZM137.212 105.175C137.212 105.175 137.212 105.175 137.212 105.175L137.106 105.066L137.212 105.175ZM150.832 108.554C150.733 106.765 150.415 105.1 149.873 103.561M150.832 108.554L150.721 108.49L150.832 108.554C150.832 108.554 150.832 108.554 150.832 108.554ZM150.832 108.554C150.937 110.357 150.795 111.771 150.402 112.79M149.873 103.561L150.402 112.79C150.402 112.79 150.402 112.79 150.402 112.79M149.873 103.561C149.331 102.017 148.602 100.652 147.685 99.4701L149.873 103.561ZM122.748 84.4363L122.741 84.3079L122.629 84.2436L119.815 82.619L119.783 82.6004L119.757 82.6045L116.4 83.1391L116.351 83.147L116.355 83.2176L116.532 86.2781L116.546 86.5101L116.709 86.4853L119.732 86.0269L120.479 98.9015L120.486 99.0298L120.597 99.0941L123.591 100.823L123.702 100.887L123.695 100.758L122.748 84.4363ZM134.364 99.046L134.364 99.0463C134.477 100.921 134.318 102.166 133.902 102.806C133.487 103.445 132.898 103.529 132.134 103.088C131.622 102.792 131.167 102.341 130.764 101.728C130.359 101.109 130.022 100.331 129.757 99.3849C129.496 98.4387 129.329 97.3434 129.257 96.0974C129.154 94.2544 129.319 93.0307 129.735 92.4009C130.151 91.7722 130.738 91.692 131.498 92.131C132.01 92.4265 132.462 92.8767 132.861 93.4865L132.861 93.4872C133.265 94.101 133.6 94.8698 133.86 95.8021L133.86 95.8029C134.124 96.7353 134.293 97.8158 134.364 99.046ZM132.93 93.4346L132.93 93.4346L132.93 93.4346ZM147.554 106.661L147.554 106.661C147.667 108.536 147.508 109.781 147.092 110.421C146.677 111.06 146.088 111.144 145.323 110.703C144.812 110.407 144.357 109.956 143.953 109.343C143.549 108.724 143.212 107.946 142.946 107C142.686 106.054 142.519 104.959 142.446 103.712C142.344 101.87 142.508 100.646 142.925 100.016C143.34 99.3873 143.927 99.3071 144.688 99.7461C145.2 100.042 145.652 100.492 146.051 101.102L146.051 101.102C146.455 101.716 146.79 102.485 147.05 103.417L147.05 103.418C147.313 104.35 147.482 105.431 147.554 106.661Z" fill="white" stroke="black" stroke-width="0.257203"/>
<path d="M45.55 103.947L44.7178 89.6009L47.1634 91.0128L47.9956 105.359L45.55 103.947ZM46.8977 87.9564C46.6194 88.1098 46.2518 88.0546 45.7946 87.7907C45.3375 87.5268 44.9472 87.1443 44.6236 86.6435C44.3071 86.1382 44.1346 85.6396 44.106 85.1478C44.0775 84.656 44.2021 84.329 44.4799 84.1668C44.7653 84.009 45.1365 84.0621 45.5936 84.326C46.0508 84.5899 46.4376 84.9745 46.7541 85.4798C47.0782 85.9895 47.2545 86.4902 47.283 86.982C47.3115 87.4738 47.1831 87.7987 46.8977 87.9564ZM58.3776 111.353L55.8177 109.875L54.8709 93.5529L49.6826 90.5574L49.5267 87.87L62.4517 95.3323L62.6076 98.0197L57.4308 95.0308L58.3776 111.353ZM74.2813 106.669L75.1136 121.016L72.748 119.65L72.6158 117.371L72.4215 117.259C71.888 118.597 70.6841 118.726 68.8099 117.644C67.4386 116.852 66.3528 115.779 65.5527 114.426C64.7602 113.077 64.3148 111.555 64.2165 109.86L63.6762 100.547L66.1332 101.965L66.6307 110.541C66.6985 111.709 66.9582 112.695 67.4098 113.499C67.8685 114.299 68.5474 114.958 69.4464 115.477C70.4292 116.045 71.1689 116.166 71.6655 115.842C72.1617 115.509 72.3769 114.775 72.3111 113.643L71.8243 105.251L74.2813 106.669ZM78.4217 122.926L77.5894 108.579L79.955 109.945L80.0872 112.224L80.2701 112.33C80.8188 111 82.0074 110.863 83.8359 111.918C85.2225 112.719 86.3121 113.794 87.1046 115.142C87.9047 116.496 88.3544 118.029 88.4538 119.741L88.9925 129.029L86.5355 127.61L86.038 119.034C85.9045 116.733 84.9426 115.066 83.1522 114.032C82.2456 113.508 81.5409 113.42 81.0382 113.766C80.5426 114.108 80.3272 114.837 80.3919 115.952L80.8787 124.344L78.4217 122.926ZM98.8392 123.891C98.2515 122.898 97.5043 122.14 96.5976 121.616C95.691 121.093 94.964 121 94.4166 121.338C93.8692 121.675 93.5938 122.386 93.5905 123.471L99.8759 127.1C99.7797 125.949 99.4341 124.88 98.8392 123.891ZM100.133 131.717L102.498 133.083C102.291 134.211 101.733 134.869 100.823 135.057C99.9215 135.249 98.762 134.936 97.345 134.118C95.5622 133.089 94.1184 131.619 93.0134 129.708C91.9156 127.792 91.3002 125.688 91.1672 123.396C91.0342 121.104 91.4466 119.58 92.4043 118.826C93.362 118.072 94.7169 118.201 96.4692 119.212C98.1987 120.211 99.592 121.635 100.649 123.484C101.714 125.338 102.312 127.394 102.443 129.651L102.5 130.639L93.712 125.565L93.7211 125.723C93.8326 127.01 94.2069 128.194 94.8439 129.275C95.481 130.356 96.2909 131.18 97.2737 131.747C98.7746 132.614 99.7276 132.604 100.133 131.717ZM104.68 128.142C104.607 126.877 105 126.102 105.859 125.818C106.719 125.524 107.853 125.785 109.263 126.598C110.664 127.408 111.816 128.417 112.719 129.625C113.621 130.834 114.169 132.105 114.365 133.44L112.011 132.081C111.865 131.479 111.563 130.897 111.103 130.335C110.651 129.777 110.082 129.3 109.396 128.904C108.703 128.504 108.138 128.347 107.701 128.434C107.264 128.513 107.061 128.829 107.093 129.382C107.118 129.813 107.299 130.261 107.635 130.727C107.972 131.192 108.484 131.709 109.172 132.276L111.273 134.023C112.487 135.03 113.391 136.006 113.983 136.951C114.583 137.9 114.913 138.897 114.974 139.942C115.051 141.277 114.63 142.082 113.711 142.358C112.792 142.633 111.582 142.338 110.081 141.472C108.603 140.618 107.386 139.568 106.43 138.32C105.481 137.067 104.916 135.773 104.736 134.438L107.193 135.857C107.386 136.511 107.72 137.129 108.195 137.709C108.67 138.289 109.274 138.79 110.005 139.212C110.775 139.657 111.393 139.839 111.86 139.761C112.326 139.682 112.543 139.358 112.51 138.787C112.462 137.952 111.818 137.016 110.58 135.979L108.375 134.146C107.168 133.135 106.263 132.146 105.662 131.179C105.069 130.217 104.742 129.204 104.68 128.142Z" fill="white"/>
</g>
<defs>
<linearGradient id="paint0_linear_6873_1550" x1="155.509" y1="92.7111" x2="2.57502" y2="196.03" gradientUnits="userSpaceOnUse">
<stop stop-color="#4E1359"/>
<stop offset="1" stop-color="#D94294"/>
</linearGradient>
<radialGradient id="paint1_radial_6873_1550" cx="0" cy="0" r="1" gradientUnits="userSpaceOnUse" gradientTransform="translate(164.06 240.098) rotate(173.248) scale(149.424 404.055)">
<stop stop-color="#DD117B"/>
<stop offset="0.505294" stop-color="#B5197E"/>
<stop offset="1" stop-color="#FB9C0B"/>
</radialGradient>
<clipPath id="clip0_6873_1550">
<rect width="178.499" height="257.718" rx="8.2305" transform="matrix(0.866025 0.5 0.0579125 0.998322 0.745117 0.380859)" fill="white"/>
</clipPath>
<clipPath id="clip1_6873_1550">
<rect width="57.7282" height="70.8869" fill="white" transform="matrix(0.866025 0.5 0.0579125 0.998322 62.6396 198.914)"/>
</clipPath>
</defs>
</svg>
