<svg width="40" height="40" viewBox="0 0 40 40" fill="none" xmlns="http://www.w3.org/2000/svg">
<rect x="0.5" y="0.5" width="39" height="39" rx="7.5" fill="white"/>
<rect x="0.5" y="0.5" width="39" height="39" rx="7.5" stroke="#E3E3E3"/>
<path d="M29.1406 20.7498H26.1406C25.7428 20.7498 25.3613 20.9079 25.08 21.1892C24.7987 21.4705 24.6406 21.852 24.6406 22.2498V25.9998C24.6406 26.3976 24.7987 26.7792 25.08 27.0605C25.3613 27.3418 25.7428 27.4998 26.1406 27.4998H27.6406C28.0384 27.4998 28.42 27.3418 28.7013 27.0605C28.9826 26.7792 29.1406 26.3976 29.1406 25.9998V20.7498ZM29.1406 20.7498C29.1407 19.5616 28.9054 18.3851 28.4484 17.2883C27.9915 16.1914 27.3218 15.1959 26.4781 14.3592C25.6344 13.5225 24.6334 12.8611 23.5328 12.4133C22.4322 11.9654 21.2538 11.7399 20.0656 11.7498C18.8782 11.7412 17.7008 11.9676 16.6013 12.416C15.5018 12.8644 14.5019 13.526 13.6592 14.3625C12.8165 15.1991 12.1477 16.1942 11.6913 17.2904C11.2349 18.3867 11 19.5624 11 20.7498V25.9998C11 26.3976 11.158 26.7792 11.4393 27.0605C11.7206 27.3418 12.1022 27.4998 12.5 27.4998H14C14.3978 27.4998 14.7794 27.3418 15.0607 27.0605C15.342 26.7792 15.5 26.3976 15.5 25.9998V22.2498C15.5 21.852 15.342 21.4705 15.0607 21.1892C14.7794 20.9079 14.3978 20.7498 14 20.7498H11" stroke="black" stroke-width="2" stroke-linecap="round" stroke-linejoin="round"/>
</svg>
