<svg width="1280" height="459" viewBox="0 0 1280 459" fill="none" xmlns="http://www.w3.org/2000/svg">
<g opacity="0.3">
<path d="M-46 1C-23 190.5 108.3 166.049 204.5 142.5C396.5 95.5 573 434.562 718.5 380C864 325.438 917.5 120.635 1036 88.6351C1130.8 63.0351 1269.17 77.9684 1326.5 88.6351" stroke="#EBEBEB" stroke-width="2"/>
<path d="M-46 19C-23 208.5 108.3 184.049 204.5 160.5C396.5 113.5 573 452.562 718.5 398C864 343.438 917.5 138.635 1036 106.635C1130.8 81.0351 1269.17 95.9684 1326.5 106.635" stroke="#EBEBEB" stroke-width="2"/>
<path d="M-46 37C-23 226.5 108.3 202.049 204.5 178.5C396.5 131.5 573 470.562 718.5 416C864 361.438 917.5 156.635 1036 124.635C1130.8 99.0351 1269.17 113.968 1326.5 124.635" stroke="#EBEBEB" stroke-width="2"/>
<path d="M-46 55C-23 244.5 108.3 220.049 204.5 196.5C396.5 149.5 573 488.562 718.5 434C864 379.438 917.5 174.635 1036 142.635C1130.8 117.035 1269.17 131.968 1326.5 142.635" stroke="#EBEBEB" stroke-width="2"/>
<path d="M-46 73C-23 262.5 108.3 238.049 204.5 214.5C396.5 167.5 573 506.562 718.5 452C864 397.438 917.5 192.635 1036 160.635C1130.8 135.035 1269.17 149.968 1326.5 160.635" stroke="#EBEBEB" stroke-width="2"/>
</g>
</svg>
