<svg width="557" height="355" viewBox="0 0 557 355" fill="none" xmlns="http://www.w3.org/2000/svg">
<g opacity="0.1">
<path d="M-108 -103C-85 86.5 46.3 62.049 142.5 38.5C334.5 -8.5 511 330.562 656.5 276C802 221.438 855.5 16.6351 974 -15.3649C1068.8 -40.9649 1207.17 -26.0316 1264.5 -15.3649" stroke="#0E3E6A" stroke-width="2"/>
<path d="M-108 -85C-85 104.5 46.3 80.049 142.5 56.5C334.5 9.5 511 348.562 656.5 294C802 239.438 855.5 34.6351 974 2.63509C1068.8 -22.9649 1207.17 -8.03158 1264.5 2.63509" stroke="#0E3E6A" stroke-width="2"/>
<path d="M-108 -67C-85 122.5 46.3 98.049 142.5 74.5C334.5 27.5 511 366.562 656.5 312C802 257.438 855.5 52.6351 974 20.6351C1068.8 -4.96491 1207.17 9.96842 1264.5 20.6351" stroke="#0E3E6A" stroke-width="2"/>
<path d="M-108 -49C-85 140.5 46.3 116.049 142.5 92.5C334.5 45.5 511 384.562 656.5 330C802 275.438 855.5 70.6351 974 38.6351C1068.8 13.0351 1207.17 27.9684 1264.5 38.6351" stroke="#0E3E6A" stroke-width="2"/>
<path d="M-108 -31C-85 158.5 46.3 134.049 142.5 110.5C334.5 63.5 511 402.562 656.5 348C802 293.438 855.5 88.6351 974 56.6351C1068.8 31.0351 1207.17 45.9684 1264.5 56.6351" stroke="#0E3E6A" stroke-width="2"/>
</g>
</svg>
