<svg width="557" height="355" viewBox="0 0 557 355" fill="none" xmlns="http://www.w3.org/2000/svg">
<g opacity="0.1">
<path d="M-108 457.963C-85 268.463 46.3 292.914 142.5 316.463C334.5 363.463 511 24.4004 656.5 78.9629C802 133.525 855.5 338.328 974 370.328C1068.8 395.928 1207.17 380.994 1264.5 370.328" stroke="#0E3E6A" stroke-width="2"/>
<path d="M-108 439.963C-85 250.463 46.3 274.914 142.5 298.463C334.5 345.463 511 6.40041 656.5 60.9629C802 115.525 855.5 320.328 974 352.328C1068.8 377.928 1207.17 362.994 1264.5 352.328" stroke="#0E3E6A" stroke-width="2"/>
<path d="M-108 421.963C-85 232.463 46.3 256.914 142.5 280.463C334.5 327.463 511 -11.5996 656.5 42.9629C802 97.5254 855.5 302.328 974 334.328C1068.8 359.928 1207.17 344.994 1264.5 334.328" stroke="#0E3E6A" stroke-width="2"/>
<path d="M-108 403.963C-85 214.463 46.3 238.914 142.5 262.463C334.5 309.463 511 -29.5996 656.5 24.9629C802 79.5254 855.5 284.328 974 316.328C1068.8 341.928 1207.17 326.994 1264.5 316.328" stroke="#0E3E6A" stroke-width="2"/>
<path d="M-108 385.963C-85 196.463 46.3 220.914 142.5 244.463C334.5 291.463 511 -47.5996 656.5 6.96289C802 61.5254 855.5 266.328 974 298.328C1068.8 323.928 1207.17 308.994 1264.5 298.328" stroke="#0E3E6A" stroke-width="2"/>
</g>
</svg>
