<svg width="32" height="32" viewBox="0 0 32 32" fill="none" xmlns="http://www.w3.org/2000/svg">
<circle cx="16" cy="16" r="15.5" stroke="#181818"/>
<path d="M23.0214 21.8662H20.2277V17.5342C20.2277 16.5012 20.209 15.1714 18.7746 15.1714C17.3196 15.1714 17.0969 16.2969 17.0969 17.459V21.8659H14.3032V12.9575H16.9852V14.175H17.0227C17.2911 13.7206 17.679 13.3468 18.145 13.0934C18.611 12.84 19.1376 12.7164 19.6689 12.736C22.5005 12.736 23.0226 14.5801 23.0226 16.9792L23.0214 21.8662ZM11.1509 11.7398C10.8303 11.7399 10.5168 11.6458 10.2502 11.4695C9.98354 11.2931 9.77571 11.0424 9.65295 10.7491C9.53019 10.4558 9.49801 10.1331 9.56051 9.82168C9.62301 9.51027 9.77737 9.22422 10.0041 8.99967C10.2308 8.77513 10.5196 8.62219 10.8341 8.5602C11.1486 8.4982 11.4745 8.52993 11.7708 8.65138C12.0671 8.77283 12.3203 8.97853 12.4985 9.24249C12.6767 9.50644 12.7718 9.81679 12.7719 10.1343C12.7719 10.3451 12.73 10.5538 12.6486 10.7486C12.5672 10.9434 12.4478 11.1204 12.2973 11.2695C12.1467 11.4186 11.968 11.5368 11.7713 11.6175C11.5747 11.6982 11.3639 11.7398 11.1509 11.7398ZM12.5478 21.8662H9.75117V12.9575H12.5478V21.8662Z" fill="#FFFFFF"/>
</svg>
