<svg width="40" height="40" viewBox="0 0 40 40" fill="none" xmlns="http://www.w3.org/2000/svg">
<rect x="0.5" y="0.5" width="39" height="39" rx="7.5" fill="white"/>
<rect x="0.5" y="0.5" width="39" height="39" rx="7.5" stroke="#E3E3E3"/>
<path d="M17 24.5H10.8125C10.6633 24.5 10.5202 24.4407 10.4148 24.3352C10.3093 24.2298 10.25 24.0867 10.25 23.9375V17.75C10.25 15.9598 10.9612 14.2429 12.227 12.977C13.4929 11.7112 15.2098 11 17 11V11C18.7902 11 20.5071 11.7112 21.773 12.977C23.0388 14.2429 23.75 15.9598 23.75 17.75V17.75C23.75 19.5402 23.0388 21.2571 21.773 22.523C20.5071 23.7888 18.7902 24.5 17 24.5V24.5Z" stroke="black" stroke-width="2" stroke-linecap="round" stroke-linejoin="round"/>
<path d="M16.6343 24.4999C17.0997 25.8162 17.9618 26.9558 19.1018 27.7617C20.2419 28.5677 21.6038 29.0002 22.9999 28.9999H29.1874C29.3366 28.9999 29.4797 28.9406 29.5851 28.8351C29.6906 28.7297 29.7499 28.5866 29.7499 28.4374V22.2499C29.7523 20.5222 29.0913 18.8596 27.9032 17.6052C26.7151 16.3509 25.0908 15.6006 23.3655 15.5093" stroke="black" stroke-width="2" stroke-linecap="round" stroke-linejoin="round"/>
</svg>
