<svg width="40" height="40" viewBox="0 0 40 40" fill="none" xmlns="http://www.w3.org/2000/svg">
<rect x="0.5" y="0.5" width="39" height="39" rx="7.5" fill="white"/>
<rect x="0.5" y="0.5" width="39" height="39" rx="7.5" stroke="#E3E3E3"/>
<path d="M22.5688 17.4968C20.895 16.9183 19.0749 16.9216 17.4032 17.5062C17.2812 17.5486 17.1722 17.6218 17.0868 17.7187C17.0014 17.8156 16.9424 17.933 16.9157 18.0593L16.3719 20.825C16.3462 20.9476 16.291 21.0621 16.2109 21.1585C16.1308 21.2549 16.0284 21.3303 15.9126 21.3781L11.4782 23.15C11.3273 23.2125 11.1601 23.2234 11.0024 23.181C10.8447 23.1386 10.7055 23.0453 10.6063 22.9156C9.93643 22.05 9.60498 20.97 9.674 19.8776C9.74303 18.7853 10.2078 17.7556 10.9813 16.9812C13.3739 14.5905 16.6178 13.2476 20.0001 13.2476C23.3823 13.2476 26.6262 14.5905 29.0188 16.9812C29.7923 17.7556 30.2571 18.7853 30.3261 19.8776C30.3951 20.97 30.0637 22.05 29.3938 22.9156C29.2946 23.0453 29.1554 23.1386 28.9977 23.181C28.84 23.2234 28.6728 23.2125 28.5219 23.15L24.0876 21.3781C23.9728 21.3312 23.8711 21.2573 23.7911 21.1626C23.7112 21.0679 23.6552 20.9553 23.6282 20.8343L23.0469 18.05C23.0219 17.9243 22.9647 17.8072 22.8809 17.7103C22.7971 17.6133 22.6895 17.5398 22.5688 17.4968V17.4968Z" stroke="black" stroke-width="2" stroke-linecap="round" stroke-linejoin="round"/>
<path d="M11.75 26.75H28.25" stroke="black" stroke-width="2" stroke-linecap="round" stroke-linejoin="round"/>
</svg>
