<svg width="13" height="12" viewBox="0 0 13 12" fill="none" xmlns="http://www.w3.org/2000/svg">
    <path d="M11.7123 4.56563C11.6654 4.41796 11.5749 4.28792 11.4528 4.19256C11.3307 4.09721 11.1826 4.04098 11.028 4.03125L8.24358 3.83906L7.21233 1.2375C7.15602 1.09425 7.05801 0.971205 6.93098 0.884289C6.80395 0.797374 6.65375 0.750592 6.49983 0.75C6.34592 0.750592 6.19572 0.797374 6.06869 0.884289C5.94166 0.971205 5.84364 1.09425 5.78733 1.2375L4.73733 3.85312L1.97171 4.03125C1.81726 4.04161 1.66947 4.09807 1.54746 4.19334C1.42545 4.28861 1.33483 4.4183 1.28733 4.56563C1.23856 4.71521 1.23571 4.87598 1.27915 5.02721C1.3226 5.17843 1.41035 5.31317 1.53108 5.41406L3.65921 7.21406L3.0264 9.70312C2.98261 9.87151 2.99049 10.0492 3.04901 10.213C3.10753 10.3769 3.21398 10.5193 3.35452 10.6219C3.49094 10.7198 3.65348 10.7748 3.82132 10.7798C3.98917 10.7848 4.15469 10.7396 4.29671 10.65L6.49515 9.25781H6.50452L8.87171 10.7531C8.99314 10.832 9.13471 10.8743 9.27952 10.875C9.39776 10.8741 9.51422 10.846 9.61993 10.7931C9.72565 10.7401 9.81781 10.6636 9.88934 10.5694C9.96086 10.4753 10.0098 10.366 10.0325 10.2499C10.0552 10.1339 10.051 10.0142 10.0201 9.9L9.34983 7.17656L11.4686 5.41406C11.5893 5.31317 11.6771 5.17843 11.7205 5.02721C11.764 4.87598 11.7611 4.71521 11.7123 4.56563Z" fill="#F0C644" />
</svg>