<svg width="32" height="32" viewBox="0 0 32 32" fill="none" xmlns="http://www.w3.org/2000/svg">
<circle cx="16" cy="16" r="15.5" stroke="#181818"/>
<path d="M22.3943 13.7906C22.4039 13.9291 22.4039 14.0677 22.4039 14.2075C22.4039 18.4676 19.1671 23.3808 13.2484 23.3808V23.3782C11.5 23.3808 9.78791 22.879 8.31604 21.9329C8.57027 21.9635 8.82578 21.9788 9.08192 21.9795C10.5308 21.9807 11.9384 21.4936 13.0783 20.5967C11.7013 20.5705 10.4939 19.671 10.0721 18.3578C10.5544 18.451 11.0514 18.4318 11.5248 18.3022C10.0237 17.9984 8.94365 16.6769 8.94365 15.1421C8.94365 15.1281 8.94365 15.1147 8.94365 15.1013C9.39095 15.3509 9.89177 15.4894 10.4041 15.5047C8.99017 14.558 8.55434 12.6734 9.40815 11.2C11.0419 13.2141 13.4523 14.4386 16.0398 14.5682C15.7805 13.4484 16.1348 12.275 16.9707 11.4879C18.2667 10.2672 20.3051 10.3298 21.5233 11.6277C22.244 11.4853 22.9347 11.2204 23.5667 10.845C23.3265 11.5913 22.8238 12.2252 22.1522 12.6281C22.79 12.5527 23.4132 12.3816 24 12.1205C23.568 12.7692 23.0239 13.3342 22.3943 13.7906Z" fill="#FFFFFF"/>
</svg>
